<?xml version="1.0" standalone="no"?>
<!DOCTYPE svg PUBLIC "-//W3C//DTD SVG 1.1//EN" "http://www.w3.org/Graphics/SVG/1.1/DTD/svg11.dtd" >
<svg xmlns="http://www.w3.org/2000/svg">
<metadata></metadata>
<defs>
<font id="6809chargenregular" horiz-adv-x="921" >
<font-face units-per-em="2048" ascent="1638" descent="-410" />
<missing-glyph horiz-adv-x="675" />
<glyph horiz-adv-x="0" />
<glyph unicode="&#xd;" horiz-adv-x="675" />
<glyph unicode=" "  horiz-adv-x="675" />
<glyph unicode="&#x09;" horiz-adv-x="675" />
<glyph unicode="&#xa0;" horiz-adv-x="675" />
<glyph unicode="!" horiz-adv-x="716" d="M96 1247q0 47 29 73t70 26q53 0 81 -41q27 41 82 41q53 0 82 -41q27 41 82 41q39 0 67.5 -26t28.5 -73q0 -55 -38 -82q39 -27 38 -82q0 -55 -38 -82q39 -27 38 -81q0 -55 -38 -82q39 -27 38 -82q0 -55 -38 -82q39 -27 38 -82q0 -55 -38 -82q39 -27 38 -82 q0 -47 -28.5 -72.5t-69.5 -25.5q-53 0 -80 41q-29 -41 -84 -41q-39 0 -67.5 25.5t-28.5 72.5q0 55 41 82q-41 27 -41 82t41 82q-41 27 -41 82t41 82q-41 27 -41 82t41 81q-41 27 -41 82t41 82q-16 10 -25 25q-29 -41 -83 -41q-39 0 -68 25.5t-29 72.5zM260 100q0 47 28.5 73 t69.5 26q53 0 82 -41q27 41 82 41q39 0 67.5 -26t28.5 -73t-28.5 -72.5t-69.5 -25.5q-53 0 -80 41q-29 -41 -84 -41q-39 0 -67.5 25.5t-28.5 72.5z" />
<glyph unicode="&#x22;" horiz-adv-x="1052" d="M104 756q0 47 29 72.5t70 25.5q39 0 68.5 -25.5t29.5 -72.5t-29.5 -73t-68.5 -26q-41 0 -70 26t-29 73zM104 1083q0 55 41 82q-41 27 -41 82q0 47 29 73t70 26q53 0 82 -41q27 41 82 41q39 0 68.5 -26t29.5 -73q0 -55 -41 -82q41 -27 41 -82t-41 -82q41 -26 41 -81 q0 -47 -29.5 -73t-68.5 -26q-41 0 -70 25.5t-29 73.5q0 55 41 81q-14 10 -24 25q-29 -41 -82 -41q-41 0 -70 25.5t-29 72.5zM596 756q0 47 28.5 72.5t69.5 25.5q39 0 69 -25.5t30 -72.5t-30 -73t-69 -26q-41 0 -69.5 26t-28.5 73zM596 1083q0 55 41 82q-41 27 -41 82 q0 47 28.5 73t69.5 26q53 0 82 -41q27 41 82 41q39 0 68.5 -26t29.5 -73q0 -55 -41 -82q41 -27 41 -82t-41 -82q41 -26 41 -81q0 -47 -29.5 -73t-68.5 -26q-41 0 -69.5 25.5t-28.5 73.5q0 55 41 81q-14 10 -25 25q-29 -41 -82 -41q-41 0 -69.5 25.5t-28.5 72.5z" />
<glyph unicode="#" horiz-adv-x="1406" d="M86 264q0 47 28.5 72.5t69.5 25.5q53 0 82 -40q8 14 25 24q-41 27 -41 82t41 82q-41 27 -41 82t41 82q-41 27 -41 82t41 82q-41 27 -41 82t41 81q-16 10 -25 25q-29 -41 -84 -41q-39 0 -67.5 25.5t-28.5 72.5t28.5 73t69.5 26q53 0 82 -41q8 14 25 24q-41 27 -41 82 q0 47 28.5 73t69.5 26q39 0 67.5 -26t28.5 -73q0 -55 -41 -82q16 -10 27 -24q27 41 82 41q53 0 82 -41q27 41 82 41q53 0 82 -41q27 41 82 41q53 0 82 -41q8 14 24 24q-41 27 -41 82q0 47 29 73t70 26q39 0 67.5 -26t28.5 -73q0 -55 -41 -82q16 -10 26 -24q27 41 82 41 q39 0 68 -26t29 -73t-29 -72.5t-70 -25.5q-53 0 -80 41q-10 -14 -26 -25q41 -27 41 -81q0 -55 -41 -82q41 -27 41 -82t-41 -82q41 -27 41 -82t-41 -82q41 -27 41 -82t-41 -82q16 -10 26 -24q27 41 82 40q39 0 68 -25.5t29 -72.5t-29 -72.5t-68 -25.5q-55 0 -82 41 q-10 -14 -26 -25q41 -27 41 -82q0 -47 -29 -72.5t-67 -25.5q-41 0 -70 25.5t-29 72.5q0 55 41 82q-16 10 -24 25q-29 -41 -82 -41q-55 0 -82 41q-29 -41 -82 -41q-55 0 -82 41q-29 -41 -82 -41q-55 0 -82 41q-10 -14 -27 -25q41 -27 41 -82q0 -47 -28.5 -72.5t-67.5 -25.5 q-41 0 -69.5 25.5t-28.5 72.5q0 55 41 82q-16 10 -25 25q-29 -41 -84 -41q-39 0 -67.5 25.5t-28.5 72.5zM403 346q16 -10 27 -24q27 41 82 40q53 0 82 -40q27 41 82 40q53 0 82 -40q27 41 82 40q53 0 82 -40q8 14 24 24q-41 27 -41 82t41 82q-41 27 -41 82t41 82 q-41 27 -41 82t41 82q-41 27 -41 82t41 81q-16 10 -24 25q-29 -41 -82 -41q-55 0 -82 41q-29 -41 -82 -41q-55 0 -82 41q-29 -41 -82 -41q-55 0 -82 41q-10 -14 -27 -25q41 -27 41 -81q0 -55 -41 -82q41 -27 41 -82t-41 -82q41 -27 41 -82t-41 -82q41 -27 41 -82t-41 -82z " />
<glyph unicode="$" horiz-adv-x="1398" d="M78 100q0 47 28.5 73t67.5 26q55 0 82 -41q29 41 82 41q55 0 82 -41q10 14 24 24q-39 27 -38 82q0 55 38 82q-39 27 -38 82q0 55 38 82q-14 10 -24 25q-27 -43 -82 -41q-96 0 -96 98q0 47 28.5 72.5t67.5 25.5q55 0 82 -41q10 14 24 25q-39 27 -38 82q0 55 38 82 q-39 27 -38 82q0 55 38 81q-14 10 -24 25q-27 -43 -82 -41q-96 0 -96 98q0 47 28.5 73t67.5 26q55 0 82 -41q10 14 24 24q-39 27 -38 82q0 47 28.5 73t67.5 26q41 0 69.5 -26t28.5 -73q0 -55 -41 -82q16 -10 25 -24q29 41 82 41q55 0 82 -41q10 14 24 24q-39 27 -39 82 q0 47 29 73t67 26q41 0 70 -26t29 -73q0 -55 -41 -82q16 -10 24 -24q29 41 82 41q55 0 82 -41q29 41 84 41q39 0 67.5 -26t28.5 -73t-28.5 -72.5t-69.5 -25.5q-53 0 -82 41q-27 -41 -82 -41q-53 0 -82 41q-8 -14 -24 -25q41 -27 41 -81q0 -55 -41 -82q41 -27 41 -82t-41 -82 q16 -10 24 -25q29 41 84 41q39 0 68 -25.5t29 -72.5t-29 -72.5t-70 -25.5q-53 0 -82 41q-8 -14 -24 -25q41 -27 41 -82t-41 -82q41 -27 41 -82t-41 -82q16 -10 24 -24q29 41 84 41q39 0 68 -26t29 -73t-29 -72.5t-70 -25.5q-53 0 -82 41q-27 -41 -82 -41q-53 0 -81 41 q-27 -41 -82 -41q-53 0 -82 41q-27 -41 -82 -41q-53 0 -82 41q-27 -41 -82 -41q-53 0 -82 41q-27 -43 -82 -41q-96 0 -96 98zM78 756q0 55 39 82q-39 27 -39 82q0 47 28.5 72.5t67.5 25.5q41 0 69.5 -25.5t28.5 -72.5q0 -55 -41 -82q41 -27 41 -82q0 -47 -28.5 -73 t-69.5 -26q-39 0 -67.5 26t-28.5 73zM559 182q16 -10 25 -24q29 41 82 41q55 0 82 -41q10 14 24 24q-39 27 -39 82t39 82q-39 27 -39 82t39 82q-14 10 -24 25q-27 -41 -82 -41q-53 0 -82 41q-8 -14 -25 -25q41 -27 41 -82t-41 -82q41 -27 41 -82t-41 -82zM559 674 q16 -10 25 -25q29 41 82 41q55 0 82 -41q10 14 24 25q-39 27 -39 82t39 82q-39 27 -39 82t39 81q-14 10 -24 25q-27 -41 -82 -41q-53 0 -82 41q-8 -14 -25 -25q41 -27 41 -81q0 -55 -41 -82q41 -27 41 -82t-41 -82zM1061 264q0 55 39 82q-39 27 -39 82q0 47 28.5 72.5 t67.5 25.5q41 0 69.5 -25.5t28.5 -72.5q0 -55 -41 -82q41 -27 41 -82q0 -47 -28.5 -72.5t-69.5 -25.5q-39 0 -67.5 25.5t-28.5 72.5z" />
<glyph unicode="%" horiz-adv-x="1355" d="M74 100q0 47 29.5 73t68.5 26q41 0 69.5 -26t28.5 -73t-28.5 -72.5t-69.5 -25.5q-39 0 -68.5 25.5t-29.5 72.5zM74 920q0 55 41 81q-41 27 -41 82t41 82q-41 27 -41 82q0 47 29.5 73t68.5 26q55 0 82 -41q29 41 82 41q55 0 82 -41q29 41 82 41q41 0 69.5 -26t28.5 -73 q0 -55 -41 -82q41 -27 41 -82t-41 -82q41 -27 41 -81q0 -47 -28.5 -73t-69.5 -26q-53 0 -82 41q-27 -41 -82 -41q-53 0 -82 41q-27 -41 -82 -41q-39 0 -68.5 25.5t-29.5 73.5zM229 1001q16 -10 25 -24q29 41 82 41q55 0 82 -41q10 14 24 24q-41 27 -41 82t41 82 q-14 10 -24 25q-27 -41 -82 -41q-53 0 -82 41q-8 -14 -25 -25q41 -27 41 -82t-41 -82zM238 264q0 47 29.5 72.5t68.5 25.5q41 0 69.5 -25.5t28.5 -72.5t-28.5 -72.5t-69.5 -25.5q-39 0 -68.5 25.5t-29.5 72.5zM401 428q0 47 30 72.5t69 25.5q41 0 69.5 -25.5t28.5 -72.5 t-28.5 -72.5t-69.5 -25.5q-39 0 -69 25.5t-30 72.5zM565 592q0 55 41 82q-41 27 -41 82q0 47 30 72.5t69 25.5q41 0 69.5 -25.5t28.5 -72.5q0 -55 -41 -82q41 -27 41 -82q0 -47 -28.5 -72.5t-69.5 -25.5q-39 0 -69 25.5t-30 72.5zM729 100q0 55 41 82q-41 27 -41 82t41 82 q-41 27 -41 82q0 47 29.5 72.5t68.5 25.5q55 0 82 -41q29 41 82 41q55 0 82 -41q29 41 82 41q41 0 69.5 -25.5t28.5 -72.5q0 -55 -41 -82q41 -27 41 -82t-41 -82q41 -27 41 -82q0 -47 -28.5 -72.5t-69.5 -25.5q-53 0 -82 41q-27 -41 -82 -41q-53 0 -82 41q-27 -41 -82 -41 q-39 0 -68.5 25.5t-29.5 72.5zM729 920q0 47 29.5 72.5t68.5 25.5q41 0 70 -25.5t29 -72.5t-29 -73t-70 -26q-39 0 -68.5 25.5t-29.5 73.5zM885 182q16 -10 24 -24q29 41 82 41q55 0 82 -41q10 14 25 24q-41 27 -41 82t41 82q-14 10 -25 25q-27 -41 -82 -41q-53 0 -82 41 q-8 -14 -24 -25q41 -27 41 -82t-41 -82zM893 1083q0 47 29.5 73t68.5 26q41 0 70 -26t29 -73t-29 -72.5t-70 -25.5q-39 0 -68.5 25.5t-29.5 72.5zM1057 1247q0 47 29.5 73t68.5 26q41 0 69.5 -26t28.5 -73t-28.5 -72.5t-69.5 -25.5q-39 0 -68.5 25.5t-29.5 72.5z" />
<glyph unicode="&#x26;" horiz-adv-x="1339" d="M72 264q0 55 41 82q-41 27 -41 82t41 82q-41 27 -41 82t41 82q-41 27 -41 82q0 47 29.5 72.5t68.5 25.5q55 0 82 -41q10 14 24 25q-41 27 -40 82q0 55 40 81q-14 10 -24 25q-27 -41 -82 -41q-39 0 -68.5 25.5t-29.5 72.5t29.5 73t68.5 26q55 0 82 -41q10 14 24 24 q-41 27 -40 82q0 47 29.5 73t68.5 26q55 0 82 -41q29 41 82 41q55 0 82 -41q29 41 82 41q41 0 69.5 -26t28.5 -73t-29 -72.5t-69 -25.5q-53 0 -82 41q-27 -41 -82 -41q-53 0 -82 41q-8 -14 -25 -25q41 -27 41 -82t-41 -82q16 -10 25 -24q29 41 82 41q55 0 82 -41 q29 41 82 41q55 0 81 -41q10 14 25 24q-41 27 -41 82q0 47 29.5 73t68.5 26q41 0 70 -26t29 -73q0 -55 -41 -82q16 -10 24 -24q29 41 84 41q39 0 67.5 -25.5t28.5 -72.5t-28.5 -73t-69.5 -26q-53 0 -82 41q-8 -14 -24 -24q41 -27 41 -82t-41 -82q41 -27 41 -82t-41 -82 q41 -27 41 -82t-41 -82q41 -27 41 -82t-41 -82q16 -10 24 -24q29 41 82 41q55 0 82 -41q29 41 82 41q41 0 69.5 -26t28.5 -73t-28.5 -72.5t-69.5 -25.5q-53 0 -82 41q-27 -41 -82 -41q-53 0 -82 41q-27 -41 -82 -41q-53 0 -82 41q-27 -41 -81 -41q-53 0 -82 41 q-27 -41 -82 -41q-53 0 -82 41q-27 -41 -82 -41q-39 0 -68.5 25.5t-29.5 72.5q0 55 40 82q-14 10 -24 25q-27 -41 -82 -41q-39 0 -68.5 25.5t-29.5 72.5zM391 182q16 -10 25 -24q29 41 82 41q55 0 82 -41q29 41 82 41q55 0 81 -41q10 14 25 24q-41 27 -41 82t41 82 q-41 27 -41 82t41 82q-41 27 -41 82t41 82q-41 27 -41 82t41 82q-14 10 -25 24q-27 -41 -81 -41q-53 0 -82 41q-27 -41 -82 -41q-53 0 -82 41q-8 -14 -25 -24q41 -27 41 -82t-41 -82q41 -27 41 -82t-41 -82q41 -27 41 -82t-41 -82q41 -27 41 -82t-41 -82z" />
<glyph unicode="'" horiz-adv-x="561" d="M104 756q0 47 29 72.5t70 25.5q39 0 68.5 -25.5t29.5 -72.5t-29.5 -73t-68.5 -26q-41 0 -70 26t-29 73zM104 1083q0 55 41 82q-41 27 -41 82q0 47 29 73t70 26q53 0 82 -41q27 41 82 41q39 0 68.5 -26t29.5 -73q0 -55 -41 -82q41 -27 41 -82t-41 -82q41 -26 41 -81 q0 -47 -29.5 -73t-68.5 -26q-41 0 -70 25.5t-29 73.5q0 55 41 81q-14 10 -24 25q-29 -41 -82 -41q-41 0 -70 25.5t-29 72.5z" />
<glyph unicode="(" horiz-adv-x="714" d="M94 264q0 55 41 82q-41 27 -41 82t41 82q-41 27 -41 82t41 82q-41 27 -41 82t41 82q-41 27 -41 82t41 81q-41 27 -41 82q0 47 29 73t70 26q53 0 81 -41q10 14 25 24q-41 27 -41 82q0 47 28.5 73t69.5 26q53 0 82 -41q27 41 82 41q39 0 68.5 -26t29.5 -73t-29.5 -72.5 t-68.5 -25.5q-55 0 -82 41q-10 -14 -24 -25q41 -27 41 -82t-41 -82q41 -27 41 -81q0 -55 -41 -82q41 -27 41 -82t-41 -82q41 -27 41 -82t-41 -82q41 -27 41 -82t-41 -82q41 -27 41 -82t-41 -82q14 -10 24 -24q27 41 82 41q39 0 68.5 -26t29.5 -73t-29.5 -72.5t-68.5 -25.5 q-55 0 -82 41q-29 -41 -82 -41q-41 0 -69.5 25.5t-28.5 72.5q0 55 41 82q-14 10 -25 25q-29 -41 -81 -41q-41 0 -70 25.5t-29 72.5z" />
<glyph unicode=")" horiz-adv-x="714" d="M94 100q0 47 29 73t70 26q53 0 81 -41q10 14 25 24q-41 27 -41 82t41 82q-41 27 -41 82t41 82q-41 27 -41 82t41 82q-41 27 -41 82t41 82q-41 27 -41 82t41 81q-41 27 -41 82t41 82q-14 10 -25 25q-29 -41 -81 -41q-41 0 -70 25.5t-29 72.5t29 73t70 26q53 0 81 -41 q27 41 82 41q39 0 69 -26t30 -73q0 -55 -41 -82q14 -10 24 -24q27 41 82 41q39 0 68.5 -26t29.5 -73q0 -55 -40 -82q41 -27 40 -81q0 -55 -40 -82q41 -27 40 -82q0 -55 -40 -82q41 -27 40 -82q0 -55 -40 -82q41 -27 40 -82q0 -55 -40 -82q41 -27 40 -82q0 -47 -29.5 -72.5 t-68.5 -25.5q-55 0 -82 41q-10 -14 -24 -25q41 -27 41 -82q0 -47 -30 -72.5t-69 -25.5q-55 0 -82 41q-29 -41 -81 -41q-41 0 -70 25.5t-29 72.5z" />
<glyph unicode="*" horiz-adv-x="1003" d="M74 428q0 47 28.5 72.5t69.5 25.5q39 0 68.5 -25.5t29.5 -72.5t-29.5 -72.5t-68.5 -25.5q-41 0 -69.5 25.5t-28.5 72.5zM74 1083q0 47 28.5 73t69.5 26q39 0 68.5 -26t29.5 -73t-29.5 -72.5t-68.5 -25.5q-41 0 -69.5 25.5t-28.5 72.5zM238 592q0 47 29.5 72.5t68.5 25.5 q53 0 82 -41q10 14 24 25q-41 27 -41 82t41 82q-14 10 -24 24q-29 -41 -82 -41q-41 0 -69.5 25.5t-28.5 73.5q0 47 29.5 72.5t68.5 25.5q53 0 82 -41q10 14 24 24q-41 27 -41 82t41 82q-41 27 -41 82q0 47 29 73t70 26q39 0 68.5 -26t29.5 -73q0 -55 -41 -82q41 -27 41 -82 t-41 -82q14 -10 25 -24q27 41 82 41q39 0 68.5 -25.5t29.5 -72.5t-30 -73t-68 -26q-55 0 -82 41q-10 -14 -25 -24q41 -27 41 -82t-41 -82q14 -10 25 -25q27 41 82 41q39 0 68.5 -25.5t29.5 -72.5t-30 -72.5t-68 -25.5q-55 0 -82 41q-10 -14 -25 -25q41 -27 41 -82t-41 -82 q41 -27 41 -82q0 -47 -29.5 -72.5t-68.5 -25.5q-41 0 -70 25.5t-29 72.5q0 55 41 82q-41 27 -41 82t41 82q-14 10 -24 25q-29 -41 -82 -41q-41 0 -69.5 25.5t-28.5 72.5zM729 428q0 47 28.5 72.5t69.5 25.5q39 0 69 -25.5t30 -72.5t-30 -72.5t-69 -25.5q-41 0 -69.5 25.5 t-28.5 72.5zM729 1083q0 47 28.5 73t69.5 26q39 0 69 -26t30 -73t-30 -72.5t-69 -25.5q-41 0 -69.5 25.5t-28.5 72.5z" />
<glyph unicode="+" horiz-adv-x="993" d="M55 756q0 47 29 72.5t70 25.5q53 0 79 -41q29 41 82 41q55 0 82 -41q10 14 25 25q-39 27 -39 82t39 81q-39 27 -39 82q0 47 28.5 73t67.5 26q41 0 70 -26t29 -73q0 -55 -41 -82q41 -27 41 -81q0 -55 -41 -82q16 -10 24 -25q29 41 82 41q55 0 82 -41q29 41 84 41 q39 0 67.5 -25.5t28.5 -72.5t-28.5 -73t-69.5 -26q-53 0 -82 41q-27 -41 -82 -41q-53 0 -82 41q-8 -14 -24 -24q41 -27 41 -82t-41 -82q41 -27 41 -82q0 -47 -29 -72.5t-70 -25.5q-39 0 -67.5 25.5t-28.5 72.5q0 55 39 82q-39 27 -39 82t39 82q-14 10 -25 24 q-27 -41 -82 -41q-53 0 -82 41q-27 -43 -81 -41q-96 0 -97 99z" />
<glyph unicode="," horiz-adv-x="550" d="M104 -63q0 47 29 72.5t70 25.5q39 0 68.5 -25.5t29.5 -72.5t-29.5 -73t-68.5 -26q-41 0 -70 25.5t-29 73.5zM104 264q0 55 41 82q-41 27 -41 82q0 47 29 72.5t70 25.5q53 0 82 -41q27 41 82 41q39 0 68.5 -25.5t29.5 -72.5q0 -55 -41 -82q41 -27 41 -82t-41 -82 q41 -27 41 -82q0 -47 -29.5 -72.5t-68.5 -25.5q-41 0 -70 25.5t-29 72.5q0 55 41 82q-14 10 -24 25q-29 -41 -82 -41q-41 0 -70 25.5t-29 72.5z" />
<glyph unicode="-" d="M147 756q0 47 30 72.5t69 25.5q53 0 82 -41q29 41 82 41t82 -41q29 41 81 41q53 0 82 -41q29 41 82 41q39 0 69 -25.5t30 -72.5t-30 -73t-69 -26q-53 0 -82 41q-29 -41 -82 -41t-81 41q-29 -41 -82 -41t-82 41q-29 -41 -82 -41q-39 0 -69 26t-30 73z" />
<glyph unicode="." horiz-adv-x="530" d="M111 100q0 55 41 82q-41 27 -41 82q0 47 29.5 72.5t68.5 25.5q55 0 82 -40q29 41 82 40q41 0 69.5 -25.5t28.5 -72.5q0 -55 -41 -82q41 -27 41 -82q0 -47 -28.5 -72.5t-69.5 -25.5q-53 0 -82 41q-27 -41 -82 -41q-39 0 -68.5 25.5t-29.5 72.5z" />
<glyph unicode="/" horiz-adv-x="1210" d="M0 100q0 47 28.5 73t69.5 26q39 0 69 -26t30 -73t-30 -72.5t-69 -25.5q-41 0 -69.5 25.5t-28.5 72.5zM164 264q0 47 28.5 72.5t69.5 25.5q39 0 68.5 -25.5t29.5 -72.5t-29.5 -72.5t-68.5 -25.5q-41 0 -69.5 25.5t-28.5 72.5zM328 428q0 47 28.5 72.5t69.5 25.5 q39 0 68.5 -25.5t29.5 -72.5t-29.5 -72.5t-68.5 -25.5q-41 0 -69.5 25.5t-28.5 72.5zM492 592q0 55 40 82q-41 27 -40 82q0 47 28.5 72.5t69.5 25.5q39 0 68.5 -25.5t29.5 -72.5q0 -55 -41 -82q41 -27 41 -82q0 -47 -29.5 -72.5t-68.5 -25.5q-41 0 -69.5 25.5t-28.5 72.5z M655 920q0 47 29 72.5t70 25.5q39 0 68.5 -25.5t29.5 -72.5t-29.5 -73t-68.5 -26q-41 0 -70 25.5t-29 73.5zM819 1083q0 47 29 73t70 26q39 0 68.5 -26t29.5 -73t-30 -72.5t-68 -25.5q-41 0 -70 25.5t-29 72.5zM983 1247q0 47 28.5 73t69.5 26q39 0 69 -26t30 -73t-30 -72.5 t-69 -25.5q-41 0 -69.5 25.5t-28.5 72.5z" />
<glyph unicode="0" horiz-adv-x="1378" d="M102 264q0 55 41 82q-41 27 -41 82t41 82q-41 27 -41 82t41 82q-41 27 -41 82t41 82q-41 27 -41 82t41 81q-41 27 -41 82q0 47 30 73t69 26q55 0 82 -41q10 14 24 24q-41 27 -41 82q0 47 30 73t69 26q55 0 81 -41q29 41 82 41q55 0 82 -41q29 41 82 41q55 0 82 -41 q29 41 82 41q55 0 82 -41q29 41 82 41q41 0 69.5 -26t28.5 -73q0 -55 -41 -82q16 -10 25 -24q29 41 82 41q41 0 69.5 -26t28.5 -73q0 -55 -41 -82q41 -27 41 -81q0 -55 -41 -82q41 -27 41 -82t-41 -82q41 -27 41 -82t-41 -82q41 -27 41 -82t-41 -82q41 -27 41 -82 q0 -47 -28.5 -72.5t-69.5 -25.5q-53 0 -82 41q-8 -14 -25 -25q41 -27 41 -82q0 -47 -28.5 -72.5t-69.5 -25.5q-53 0 -82 41q-27 -41 -82 -41q-53 0 -82 41q-27 -41 -82 -41q-53 0 -82 41q-27 -41 -82 -41q-53 0 -82 41q-27 -41 -81 -41q-39 0 -69 25.5t-30 72.5q0 55 41 82 q-14 10 -24 25q-27 -41 -82 -41q-39 0 -69 25.5t-30 72.5zM422 182q16 -10 24 -24q29 41 82 41q55 0 82 -41q29 41 82 41q55 0 82 -41q29 41 82 41q55 0 82 -41q10 14 25 24q-41 27 -41 82t41 82q-41 27 -41 82t41 82q-41 27 -41 82t41 82q-41 27 -41 82t41 82 q-14 10 -25 24q-27 -41 -82 -41q-39 0 -68.5 25.5t-29.5 73.5q0 47 29.5 72.5t68.5 25.5q55 0 82 -41q10 14 25 24q-41 27 -41 82t41 82q-14 10 -25 25q-27 -41 -82 -41q-53 0 -82 41q-27 -41 -82 -41q-53 0 -82 41q-27 -41 -82 -41q-53 0 -82 41q-8 -14 -24 -25 q41 -27 41 -82t-41 -82q41 -27 41 -81q0 -55 -41 -82q41 -27 41 -82t-41 -82q41 -27 41 -82t-41 -82q16 -10 24 -25q29 41 82 41q41 0 70 -25.5t29 -72.5t-29 -72.5t-70 -25.5q-53 0 -82 41q-8 -14 -24 -25q41 -27 41 -82t-41 -82zM594 592q0 55 41 82q-41 27 -41 82 q0 47 29.5 72.5t68.5 25.5q41 0 70 -25.5t29 -72.5q0 -55 -41 -82q41 -27 41 -82q0 -47 -29 -72.5t-70 -25.5q-39 0 -68.5 25.5t-29.5 72.5z" />
<glyph unicode="1" horiz-adv-x="716" d="M96 1247q0 47 29 73t70 26q53 0 81 -41q27 41 82 41q53 0 82 -41q27 41 82 41q39 0 69 -26t30 -73q0 -55 -41 -82q41 -27 41 -82t-41 -82q41 -27 41 -81q0 -55 -41 -82q41 -27 41 -82t-41 -82q41 -27 41 -82t-41 -82q41 -27 41 -82t-41 -82q41 -27 41 -82t-41 -82 q41 -27 41 -82q0 -47 -30 -72.5t-71 -25.5q-53 0 -80 41q-29 -41 -82 -41q-41 0 -69.5 25.5t-28.5 72.5q0 55 41 82q-41 27 -41 82t41 82q-41 27 -41 82t41 82q-41 27 -41 82t41 82q-41 27 -41 82t41 82q-41 27 -41 82t41 81q-41 27 -41 82t41 82q-16 10 -25 25 q-29 -41 -83 -41q-39 0 -68 25.5t-29 72.5z" />
<glyph unicode="2" horiz-adv-x="1339" d="M63 100q0 55 41 82q-41 27 -41 82t41 82q-41 27 -41 82t41 82q-41 27 -41 82q0 47 29 72.5t70 25.5q53 0 82 -41q10 14 24 25q-41 27 -41 82q0 47 29 72.5t70 25.5q53 0 82 -41q27 41 81 41q53 0 82 -41q27 41 82 41q53 0 82 -41q27 41 82 41q53 0 82 -41q10 14 25 25 q-41 27 -41 82t41 81q-41 27 -41 82t41 82q-14 10 -25 25q-29 -41 -82 -41q-55 0 -82 41q-29 -41 -82 -41q-55 0 -82 41q-29 -41 -82 -41q-55 0 -81 41q-10 -14 -25 -25q41 -27 41 -82q0 -47 -29.5 -72.5t-68.5 -25.5q-55 0 -82 41q-29 -41 -82 -41q-41 0 -70 25.5t-29 72.5 t29 73t70 26q53 0 82 -41q10 14 24 24q-41 27 -41 82q0 47 29 73t70 26q53 0 82 -41q27 41 81 41q53 0 82 -41q27 41 82 41q53 0 82 -41q27 41 82 41q53 0 82 -41q27 41 82 41q39 0 68.5 -26t29.5 -73q0 -55 -41 -82q14 -10 25 -24q27 41 82 41q39 0 68.5 -26t29.5 -73 q0 -55 -41 -82q41 -27 41 -81q0 -47 -29.5 -73t-68.5 -26q-55 0 -82 41q-10 -14 -25 -24q41 -27 41 -82q0 -47 -29.5 -73t-68.5 -26q-55 0 -82 41q-29 -41 -82 -41q-55 0 -82 41q-29 -41 -82 -41q-55 0 -82 41q-29 -41 -82 -41q-55 0 -81 41q-10 -14 -25 -24q41 -27 41 -82 t-41 -82q41 -27 41 -82t-41 -82q41 -27 41 -82t-41 -82q14 -10 25 -24q27 41 81 41q53 0 82 -41q27 41 82 41q53 0 82 -41q27 41 82 41q53 0 82 -41q27 41 82 41q53 0 82 -41q27 41 82 41q39 0 68.5 -26t29.5 -73t-29.5 -72.5t-68.5 -25.5q-55 0 -82 41q-29 -41 -82 -41 q-55 0 -82 41q-29 -41 -82 -41q-55 0 -82 41q-29 -41 -82 -41q-55 0 -82 41q-29 -41 -82 -41q-55 0 -81 41q-29 -41 -82 -41q-55 0 -82 41q-29 -41 -82 -41q-41 0 -70 25.5t-29 72.5z" />
<glyph unicode="3" horiz-adv-x="1345" d="M70 264q0 47 28.5 72.5t69.5 25.5q53 0 82 -40q27 41 82 40q39 0 67.5 -25.5t28.5 -72.5q0 -55 -39 -82q14 -10 25 -24q27 41 82 41q53 0 82 -41q27 41 81 41q53 0 82 -41q27 41 82 41q53 0 82 -41q8 14 25 24q-41 27 -41 82t41 82q-41 27 -41 82t41 82q-41 27 -41 82 t41 82q-16 10 -25 24q-29 -41 -82 -41q-55 0 -82 41q-29 -41 -82 -41q-55 0 -81 41q-29 -41 -82 -41q-41 0 -70 26t-29 73t29 72.5t70 25.5q53 0 82 -41q27 41 81 41q53 0 82 -41q27 41 82 41q53 0 82 -41q8 14 25 25q-41 27 -41 82t41 81q-41 27 -41 82t41 82 q-16 10 -25 25q-29 -41 -82 -41q-55 0 -82 41q-29 -41 -82 -41q-55 0 -81 41q-29 -43 -84 -41q-53 0 -80 41q-10 -14 -25 -25q39 -27 39 -82q0 -47 -28.5 -72.5t-67.5 -25.5q-55 0 -82 41q-29 -41 -82 -41q-41 0 -69.5 25.5t-28.5 72.5t28.5 73t69.5 26q53 0 82 -41 q8 14 24 24q-41 27 -41 82q0 47 29 73t70 26q53 0 82 -41q27 41 82 41q53 0 82 -41q27 41 81 41q53 0 82 -41q27 41 82 41q53 0 82 -41q27 41 82 41q39 0 67.5 -26t28.5 -73q0 -55 -39 -82q14 -10 25 -24q27 41 82 41q39 0 67.5 -26t28.5 -73q0 -55 -39 -82q39 -27 39 -81 q0 -47 -28.5 -73t-67.5 -26q-55 0 -82 41q-10 -14 -25 -24q39 -27 39 -82t-39 -82q14 -10 25 -25q27 41 82 41q39 0 67.5 -25.5t28.5 -72.5q0 -55 -39 -82q39 -27 39 -82t-39 -82q39 -27 39 -82q0 -47 -28.5 -72.5t-69.5 -25.5q-53 0 -80 41q-10 -14 -25 -25q39 -27 39 -82 q0 -47 -28.5 -72.5t-67.5 -25.5q-55 0 -82 41q-29 -41 -82 -41q-55 0 -82 41q-29 -41 -82 -41q-55 0 -81 41q-29 -41 -82 -41q-55 0 -82 41q-29 -41 -82 -41q-41 0 -70 25.5t-29 72.5q0 55 41 82q-16 10 -24 25q-29 -41 -82 -41q-41 0 -69.5 25.5t-28.5 72.5z" />
<glyph unicode="4" horiz-adv-x="1368" d="M92 428q0 55 39 82q-39 27 -39 82t39 82q-39 27 -39 82t39 82q-39 27 -39 82t39 81q-39 27 -39 82t39 82q-39 27 -39 82q0 47 29 73t67 26q55 0 82 -41q29 41 82 41q41 0 70 -26t29 -73q0 -55 -41 -82q41 -27 41 -82t-41 -82q41 -27 41 -81q0 -55 -41 -82q41 -27 41 -82 t-41 -82q41 -27 41 -82t-41 -82q16 -10 24 -25q29 41 82 41q55 0 82 -41q29 41 82 41q55 0 82 -41q29 41 82 41q55 0 82 -41q10 14 24 25q-39 27 -39 82t39 82q-39 27 -39 82t39 82q-39 27 -39 82t39 81q-39 27 -39 82t39 82q-39 27 -39 82q0 47 29 73t68 26q55 0 82 -41 q29 41 81 41q41 0 70 -26t29 -73q0 -55 -41 -82q41 -27 41 -82t-41 -82q41 -27 41 -81q0 -55 -41 -82q41 -27 41 -82t-41 -82q41 -27 41 -82t-41 -82q41 -27 41 -82t-41 -82q41 -27 41 -82t-41 -82q41 -27 41 -82q0 -47 -29 -72.5t-70 -25.5q-53 0 -81 41q-27 -41 -82 -41 q-39 0 -68 25.5t-29 72.5q0 55 39 82q-39 27 -39 82t39 82q-14 10 -24 25q-27 -41 -82 -41q-53 0 -82 41q-27 -41 -82 -41q-53 0 -82 41q-27 -41 -82 -41q-53 0 -82 41q-27 -41 -82 -41q-53 0 -82 41q-27 -41 -82 -41q-39 0 -67.5 25.5t-28.5 72.5z" />
<glyph unicode="5" horiz-adv-x="1413" d="M82 264q0 47 29.5 72.5t68.5 25.5q55 0 82 -40q29 41 82 40q41 0 69.5 -25.5t28.5 -72.5q0 -55 -41 -82q14 -10 25 -24q29 41 82 41q55 0 82 -41q29 41 82 41q55 0 82 -41q29 41 82 41q55 0 82 -41q10 14 24 24q-41 27 -41 82t41 82q-41 27 -41 82t41 82q-41 27 -41 82 t41 82q-41 27 -41 82t41 82q-14 10 -24 24q-27 -41 -82 -41q-53 0 -82 41q-27 -41 -82 -41q-39 0 -69 25.5t-30 73.5q0 47 30 72.5t69 25.5q55 0 82 -41q29 41 82 41q55 0 82 -41q29 41 81 41q41 0 70 -25.5t29 -72.5q0 -55 -41 -82q14 -10 24 -25q29 41 82 41 q41 0 70 -25.5t29 -72.5q0 -55 -41 -82q41 -27 41 -82t-41 -82q41 -27 41 -82t-41 -82q41 -27 41 -82q0 -47 -29 -72.5t-70 -25.5q-53 0 -82 41q-10 -14 -24 -25q41 -27 41 -82q0 -47 -29 -72.5t-70 -25.5q-53 0 -81 41q-27 -41 -82 -41q-53 0 -82 41q-27 -41 -82 -41 q-53 0 -82 41q-27 -41 -82 -41q-53 0 -82 41q-27 -41 -82 -41q-39 0 -68.5 25.5t-29.5 72.5q0 55 41 82q-14 10 -25 25q-27 -41 -82 -41q-39 0 -68.5 25.5t-29.5 72.5zM82 756q0 55 41 82q-41 27 -41 82t41 81q-41 27 -41 82t41 82q-41 27 -41 82q0 47 29.5 73t68.5 26 q55 0 82 -41q29 41 82 41q55 0 82 -41q29 41 82 41q55 0 82 -41q29 41 82 41q55 0 82 -41q29 41 82 41q55 0 82 -41q29 41 81 41q55 0 82 -41q29 41 82 41q41 0 70 -26t29 -73t-29 -72.5t-70 -25.5q-53 0 -82 41q-27 -41 -82 -41q-53 0 -81 41q-27 -41 -82 -41q-53 0 -82 41 q-27 -41 -82 -41q-53 0 -82 41q-27 -43 -82 -41q-53 0 -82 41q-10 -14 -25 -25q41 -27 41 -82t-41 -82q41 -27 41 -81q0 -55 -41 -82q14 -10 25 -25q29 41 82 41q41 0 69.5 -25.5t28.5 -72.5t-28.5 -73t-69.5 -26q-53 0 -82 41q-27 -41 -82 -41q-53 0 -82 41 q-27 -41 -82 -41q-39 0 -68.5 26t-29.5 73z" />
<glyph unicode="6" horiz-adv-x="1415" d="M92 264q0 55 41 82q-41 27 -41 82t41 82q-41 27 -41 82t41 82q-41 27 -41 82t41 82q-41 27 -41 82t41 81q-41 27 -41 82q0 47 30 73t68 26q55 0 82 -41q10 14 25 24q-41 27 -41 82q0 47 29.5 73t68.5 26q55 0 82 -41q29 41 82 41q55 0 82 -41q29 41 82 41q55 0 82 -41 q29 41 82 41q55 0 82 -41q29 41 82 41q41 0 69.5 -26t28.5 -73q0 -55 -41 -82q14 -10 25 -24q29 41 82 41q41 0 69.5 -26t28.5 -73t-29 -72.5t-69 -25.5q-53 0 -82 41q-27 -41 -82 -41q-39 0 -69 25.5t-30 72.5q0 55 41 82q-14 10 -24 25q-27 -41 -82 -41q-53 0 -82 41 q-27 -41 -82 -41q-53 0 -82 41q-27 -41 -82 -41q-53 0 -82 41q-10 -14 -24 -25q41 -27 41 -82t-41 -82q41 -27 41 -81q0 -55 -41 -82q14 -10 24 -25q29 41 82 41q55 0 82 -41q29 41 82 41q55 0 82 -41q29 41 82 41q55 0 82 -41q29 41 82 41q41 0 69.5 -25.5t28.5 -72.5 q0 -55 -41 -82q14 -10 25 -25q29 41 82 41q41 0 69.5 -25.5t28.5 -72.5q0 -55 -41 -82q41 -27 41 -82t-41 -82q41 -27 41 -82q0 -47 -29 -72.5t-69 -25.5q-53 0 -82 41q-10 -14 -25 -25q41 -27 41 -82q0 -47 -28.5 -72.5t-69.5 -25.5q-53 0 -82 41q-27 -41 -82 -41 q-53 0 -82 41q-27 -41 -82 -41q-53 0 -82 41q-27 -41 -82 -41q-53 0 -82 41q-27 -41 -82 -41q-39 0 -68.5 25.5t-29.5 72.5q0 55 41 82q-14 10 -25 25q-27 -41 -82 -41q-39 0 -68.5 25.5t-29.5 72.5zM412 182q14 -10 24 -24q29 41 82 41q55 0 82 -41q29 41 82 41 q55 0 82 -41q29 41 82 41q55 0 82 -41q10 14 24 24q-41 27 -41 82t41 82q-41 27 -41 82t41 82q-41 27 -41 82t41 82q-14 10 -24 24q-27 -41 -82 -41q-53 0 -82 41q-27 -41 -82 -41q-53 0 -82 41q-27 -41 -82 -41q-53 0 -82 41q-10 -14 -24 -24q41 -27 41 -82t-41 -82 q41 -27 41 -82t-41 -82q41 -27 41 -82t-41 -82z" />
<glyph unicode="7" horiz-adv-x="1273" d="M31 1247q0 47 29.5 73t68.5 26q55 0 82 -41q29 41 82 41q55 0 82 -41q29 41 82 41q55 0 82 -41q29 41 82 41q55 0 81 -41q29 41 82 41q55 0 82 -41q29 41 82 41q55 0 82 -41q29 41 82 41q41 0 69.5 -26t28.5 -73q0 -55 -41 -82q41 -27 41 -82q0 -47 -28.5 -72.5 t-69.5 -25.5q-53 0 -82 41q-10 -14 -24 -25q41 -27 41 -81q0 -47 -29 -73t-70 -26q-53 0 -82 41q-10 -14 -24 -24q41 -27 41 -82q0 -47 -29 -73t-70 -26q-53 0 -82 41q-10 -14 -24 -24q41 -27 41 -82t-41 -82q41 -27 41 -82t-41 -82q41 -27 41 -82t-41 -82q41 -27 41 -82 q0 -47 -28.5 -72.5t-69.5 -25.5q-53 0 -82 41q-27 -41 -82 -41q-39 0 -69 25.5t-30 72.5q0 55 41 82q-41 27 -41 82t41 82q-41 27 -41 82t41 82q-41 27 -41 82q0 47 30 72.5t69 25.5q55 0 82 -41q10 14 24 25q-41 27 -41 82q0 47 30 72.5t69 25.5q55 0 81 -41q10 14 25 25 q-41 27 -41 82q0 47 29.5 72.5t68.5 25.5q55 0 82 -41q10 14 25 24q-41 27 -41 82t41 82q-14 10 -25 25q-27 -41 -82 -41q-53 0 -82 41q-27 -41 -81 -41q-53 0 -82 41q-27 -41 -82 -41q-53 0 -82 41q-27 -41 -82 -41q-53 0 -82 41q-27 -41 -82 -41q-39 0 -68.5 25.5 t-29.5 72.5z" />
<glyph unicode="8" horiz-adv-x="1376" d="M98 264q0 55 41 82q-41 27 -41 82t41 82q-41 27 -41 82q0 47 30 72.5t69 25.5q55 0 82 -41q10 14 24 25q-41 27 -41 82t41 82q-14 10 -24 24q-27 -41 -82 -41q-39 0 -69 25.5t-30 73.5q0 55 41 81q-41 27 -41 82q0 47 30 73t69 26q55 0 82 -41q10 14 24 24q-41 27 -41 82 q0 47 30 73t68 26q55 0 82 -41q29 41 82 41q55 0 82 -41q29 41 82 41q55 0 82 -41q29 41 82 41q55 0 82 -41q29 41 82 41q41 0 69.5 -26t28.5 -73q0 -55 -41 -82q16 -10 25 -24q29 41 82 41q41 0 69.5 -26t28.5 -73q0 -55 -41 -82q41 -27 41 -81q0 -47 -28.5 -73t-69.5 -26 q-53 0 -82 41q-8 -14 -25 -24q41 -27 41 -82t-41 -82q16 -10 25 -25q29 41 82 41q41 0 69.5 -25.5t28.5 -72.5q0 -55 -41 -82q41 -27 41 -82t-41 -82q41 -27 41 -82q0 -47 -28.5 -72.5t-69.5 -25.5q-53 0 -82 41q-8 -14 -25 -25q41 -27 41 -82q0 -47 -28.5 -72.5 t-69.5 -25.5q-53 0 -82 41q-27 -41 -82 -41q-53 0 -82 41q-27 -41 -82 -41q-53 0 -82 41q-27 -41 -82 -41q-53 0 -82 41q-27 -41 -82 -41q-39 0 -68.5 25.5t-29.5 72.5q0 55 41 82q-14 10 -24 25q-27 -41 -82 -41q-39 0 -69 25.5t-30 72.5zM418 182q16 -10 24 -24 q29 41 82 41q55 0 82 -41q29 41 82 41q55 0 82 -41q29 41 82 41q55 0 82 -41q10 14 24 24q-41 27 -40 82q0 55 40 82q-41 27 -40 82q0 55 40 82q-41 27 -40 82q0 55 40 82q-14 10 -24 24q-27 -41 -82 -41q-53 0 -82 41q-27 -41 -82 -41q-53 0 -82 41q-27 -41 -82 -41 q-53 0 -82 41q-8 -14 -24 -24q41 -27 41 -82t-41 -82q41 -27 41 -82t-41 -82q41 -27 41 -82t-41 -82zM418 838q16 -10 24 -25q29 41 82 41q55 0 82 -41q29 41 82 41q55 0 82 -41q29 41 82 41q55 0 82 -41q10 14 24 25q-41 27 -40 82q0 55 40 81q-41 27 -40 82q0 55 40 82 q-14 10 -24 25q-27 -41 -82 -41q-53 0 -82 41q-27 -41 -82 -41q-53 0 -82 41q-27 -41 -82 -41q-53 0 -82 41q-8 -14 -24 -25q41 -27 41 -82t-41 -82q41 -27 41 -81q0 -55 -41 -82z" />
<glyph unicode="9" horiz-adv-x="1370" d="M94 264q0 47 30 72.5t69 25.5q53 0 81 -40q27 41 82 40q39 0 69 -25.5t30 -72.5q0 -55 -41 -82q14 -10 24 -24q27 41 82 41q53 0 82 -41q27 41 82 41q53 0 82 -41q27 41 82 41q53 0 82 -41q10 14 24 24q-41 27 -41 82t41 82q-41 27 -41 82t41 82q-14 10 -24 25 q-29 -41 -82 -41q-55 0 -82 41q-29 -41 -82 -41q-55 0 -82 41q-29 -41 -82 -41q-55 0 -82 41q-29 -41 -82 -41q-41 0 -69.5 25.5t-28.5 72.5q0 55 41 82q-14 10 -25 24q-29 -41 -81 -41q-41 0 -70 26t-29 73q0 55 41 82q-41 27 -41 82t41 81q-41 27 -41 82q0 47 30 73t69 26 q53 0 81 -41q10 14 25 24q-41 27 -41 82q0 47 29.5 73t68.5 26q53 0 82 -41q27 41 82 41q53 0 82 -41q27 41 82 41q53 0 82 -41q27 41 82 41q53 0 82 -41q27 41 82 41q39 0 68.5 -26t29.5 -73q0 -55 -41 -82q14 -10 25 -24q27 41 82 41q39 0 68.5 -26t29.5 -73 q0 -55 -41 -82q41 -27 41 -81q0 -55 -41 -82q41 -27 41 -82t-41 -82q41 -27 41 -82t-41 -82q41 -27 41 -82t-41 -82q41 -27 41 -82q0 -47 -30 -72.5t-68 -25.5q-55 0 -82 41q-10 -14 -25 -25q41 -27 41 -82q0 -47 -29.5 -72.5t-68.5 -25.5q-55 0 -82 41q-29 -41 -82 -41 q-55 0 -82 41q-29 -41 -82 -41q-55 0 -82 41q-29 -41 -82 -41q-55 0 -82 41q-29 -41 -82 -41q-41 0 -69.5 25.5t-28.5 72.5q0 55 41 82q-14 10 -25 25q-29 -43 -84 -41q-96 0 -96 98zM414 674q14 -10 24 -25q27 41 82 41q53 0 82 -41q27 41 82 41q53 0 82 -41q27 41 82 41 q53 0 82 -41q10 14 24 25q-41 27 -41 82t41 82q-41 27 -41 82t41 81q-41 27 -41 82t41 82q-14 10 -24 25q-29 -41 -82 -41q-55 0 -82 41q-29 -41 -82 -41q-55 0 -82 41q-29 -41 -82 -41q-55 0 -82 41q-10 -14 -24 -25q41 -27 41 -82t-41 -82q41 -27 41 -81q0 -55 -41 -82 q41 -27 41 -82t-41 -82z" />
<glyph unicode=":" horiz-adv-x="536" d="M111 100q0 55 41 82q-41 27 -41 82q0 47 29.5 72.5t68.5 25.5q55 0 82 -40q29 41 82 40q41 0 69.5 -25.5t28.5 -72.5q0 -55 -41 -82q41 -27 41 -82q0 -47 -28.5 -72.5t-69.5 -25.5q-53 0 -82 41q-27 -41 -82 -41q-39 0 -68.5 25.5t-29.5 72.5zM111 592q0 55 41 82 q-41 27 -41 82q0 47 29.5 72.5t68.5 25.5q55 0 82 -41q29 41 82 41q41 0 69.5 -25.5t28.5 -72.5q0 -55 -41 -82q41 -27 41 -82q0 -47 -28.5 -72.5t-69.5 -25.5q-53 0 -82 41q-27 -43 -82 -41q-98 0 -98 98z" />
<glyph unicode=";" horiz-adv-x="550" d="M104 -63q0 47 29 72.5t70 25.5q39 0 68.5 -25.5t29.5 -72.5t-29.5 -73t-68.5 -26q-41 0 -70 25.5t-29 73.5zM104 264q0 55 41 82q-41 27 -41 82q0 47 29 72.5t70 25.5q53 0 82 -41q27 41 82 41q39 0 68.5 -25.5t29.5 -72.5q0 -55 -41 -82q41 -27 41 -82t-41 -82 q41 -27 41 -82q0 -47 -29.5 -72.5t-68.5 -25.5q-41 0 -70 25.5t-29 72.5q0 55 41 82q-14 10 -24 25q-29 -41 -82 -41q-41 0 -70 25.5t-29 72.5z" />
<glyph unicode="&#x3c;" horiz-adv-x="851" d="M78 592q0 47 28.5 72.5t69.5 25.5q53 0 82 -41q8 14 25 25q-41 27 -41 82q0 47 28.5 72.5t69.5 25.5q53 0 82 -41q8 14 24 25q-41 27 -40 82q0 47 28.5 72.5t69.5 25.5q53 0 82 -41q27 41 82 41q39 0 68.5 -25.5t29.5 -72.5t-29.5 -73t-68.5 -26q-55 0 -82 41 q-10 -14 -25 -24q41 -27 41 -82q0 -47 -29.5 -73t-68.5 -26q-55 0 -82 41q-10 -14 -25 -24q41 -27 41 -82t-41 -82q14 -10 25 -25q27 41 82 41q39 0 68.5 -25.5t29.5 -72.5q0 -55 -41 -82q14 -10 25 -24q27 41 82 40q39 0 68.5 -25.5t29.5 -72.5t-29.5 -72.5t-68.5 -25.5 q-55 0 -82 41q-29 -41 -82 -41q-41 0 -69.5 25.5t-28.5 72.5q0 55 40 82q-16 10 -24 25q-29 -41 -82 -41q-41 0 -69.5 25.5t-28.5 72.5q0 55 41 82q-16 10 -25 25q-29 -41 -82 -41q-41 0 -69.5 25.5t-28.5 72.5z" />
<glyph unicode="=" horiz-adv-x="884" d="M111 428q0 47 28.5 72.5t69.5 25.5q53 0 82 -41q27 41 82 41q53 0 82 -41q27 41 82 41q53 0 81 -41q27 41 82 41q41 0 70 -25.5t29 -72.5t-30 -72.5t-69 -25.5q-55 0 -82 41q-29 -41 -81 -41q-55 0 -82 41q-29 -41 -82 -41q-55 0 -82 41q-29 -43 -84 -41q-96 0 -96 98z M111 920q0 47 28.5 72.5t69.5 25.5q53 0 82 -41q27 41 82 41q53 0 82 -41q27 41 82 41q53 0 81 -41q27 41 82 41q41 0 70 -25.5t29 -72.5t-30 -73t-69 -26q-55 0 -82 41q-29 -41 -81 -41q-55 0 -82 41q-29 -41 -82 -41q-55 0 -82 41q-29 -43 -84 -41q-96 0 -96 99z" />
<glyph unicode="&#x3e;" horiz-adv-x="827" d="M78 264q0 47 28.5 72.5t69.5 25.5q53 0 82 -40q8 14 25 24q-41 27 -41 82q0 47 28.5 72.5t69.5 25.5q53 0 82 -41q8 14 24 25q-41 27 -40 82q0 55 40 82q-16 10 -24 24q-29 -41 -82 -41q-41 0 -69.5 26t-28.5 73q0 55 41 82q-16 10 -25 24q-29 -41 -82 -41 q-41 0 -69.5 25.5t-28.5 73.5q0 47 28.5 72.5t69.5 25.5q53 0 82 -41q27 41 82 41q39 0 68.5 -25.5t29.5 -72.5q0 -55 -41 -82q14 -10 25 -25q27 41 82 41q39 0 68.5 -25.5t29.5 -72.5q0 -55 -41 -82q14 -10 25 -25q27 41 82 41q39 0 68.5 -25.5t29.5 -72.5t-29.5 -72.5 t-68.5 -25.5q-55 0 -82 41q-10 -14 -25 -25q41 -27 41 -82q0 -47 -29.5 -72.5t-68.5 -25.5q-55 0 -82 41q-10 -14 -25 -25q41 -27 41 -82q0 -47 -29.5 -72.5t-68.5 -25.5q-55 0 -82 41q-29 -41 -82 -41q-41 0 -69.5 25.5t-28.5 72.5z" />
<glyph unicode="?" horiz-adv-x="1318" d="M43 1083q0 47 28.5 73t69.5 26q53 0 80 -41q10 14 25 24q-39 27 -39 82q0 47 28.5 73t67.5 26q55 0 82 -41q29 41 82 41q55 0 82 -41q29 41 82 41q55 0 82 -41q29 41 82 41q55 0 82 -41q29 41 84 41q39 0 67.5 -26t28.5 -73q0 -55 -41 -82q16 -10 24 -24q29 41 84 41 q39 0 68 -26t29 -73q0 -55 -41 -82q41 -27 41 -81q0 -47 -29 -73t-70 -26q-53 0 -82 41q-8 -14 -24 -24q41 -27 41 -82q0 -47 -29 -73t-70 -26q-53 0 -81 41q-27 -41 -82 -41q-53 0 -82 41q-8 -14 -25 -24q41 -27 41 -82t-41 -82q41 -27 41 -82q0 -47 -28.5 -72.5 t-69.5 -25.5q-53 0 -82 41q-27 -41 -82 -41q-39 0 -67.5 25.5t-28.5 72.5q0 55 39 82q-39 27 -39 82q0 47 28.5 72.5t67.5 25.5q55 0 82 -41q10 14 24 25q-39 27 -38 82q0 47 28.5 72.5t67.5 25.5q55 0 82 -41q29 41 82 41q55 0 82 -41q10 14 24 25q-39 27 -39 82t39 81 q-39 27 -39 82t39 82q-14 10 -24 25q-27 -41 -82 -41q-53 0 -82 41q-27 -41 -82 -41q-53 0 -82 41q-27 -41 -82 -41q-53 0 -82 41q-8 -14 -25 -25q41 -27 41 -82q0 -47 -28.5 -72.5t-69.5 -25.5q-53 0 -82 41q-27 -41 -82 -41q-39 0 -67.5 25.5t-28.5 72.5zM371 100 q0 47 28.5 73t69.5 26q53 0 80 -41q29 41 84 41q39 0 67.5 -26t28.5 -73t-28.5 -72.5t-69.5 -25.5q-53 0 -82 41q-27 -41 -82 -41q-39 0 -67.5 25.5t-28.5 72.5z" />
<glyph unicode="@" horiz-adv-x="1374" d="M98 264q0 55 41 82q-41 27 -41 82t41 82q-41 27 -41 82t41 82q-41 27 -41 82t41 82q-41 27 -41 82t41 81q-41 27 -41 82q0 47 30 73t69 26q55 0 82 -41q10 14 24 24q-41 27 -41 82q0 47 30 73t68 26q55 0 82 -41q29 41 82 41q55 0 82 -41q29 41 82 41q55 0 82 -41 q29 41 82 41q55 0 82 -41q29 41 82 41q41 0 69.5 -26t28.5 -73q0 -55 -41 -82q14 -10 25 -24q29 41 82 41q41 0 69.5 -26t28.5 -73q0 -55 -41 -82q41 -27 41 -81q0 -55 -41 -82q41 -27 41 -82t-41 -82q41 -27 41 -82t-41 -82q41 -27 41 -82q0 -47 -28.5 -72.5t-69.5 -25.5 q-53 0 -82 41q-27 -41 -82 -41q-53 0 -82 41q-27 -41 -82 -41q-53 0 -82 41q-27 -41 -82 -41q-53 0 -82 41q-27 -41 -82 -41q-39 0 -68.5 25.5t-29.5 72.5q0 55 41 82q-41 27 -41 82t41 82q-41 27 -41 82q0 47 29.5 72.5t68.5 25.5q55 0 82 -41q29 41 82 41q55 0 82 -41 q29 41 82 41q41 0 69.5 -25.5t28.5 -72.5q0 -55 -41 -82q41 -27 41 -82t-41 -82q14 -10 25 -25q29 41 82 41q55 0 82 -41q10 14 24 25q-41 27 -41 82t41 82q-41 27 -41 82t41 82q-41 27 -41 82t41 81q-14 10 -24 25q-27 -41 -82 -41q-39 0 -68.5 25.5t-29.5 72.5q0 55 40 82 q-14 10 -24 25q-27 -41 -82 -41q-53 0 -82 41q-27 -41 -82 -41q-53 0 -82 41q-27 -43 -82 -41q-53 0 -82 41q-10 -14 -24 -25q41 -27 41 -82q0 -47 -29 -72.5t-70 -25.5q-53 0 -81 41q-10 -14 -25 -25q41 -27 41 -81q0 -55 -41 -82q41 -27 41 -82t-41 -82q41 -27 41 -82 t-41 -82q41 -27 41 -82t-41 -82q14 -10 25 -24q29 41 81 40q41 0 70 -25.5t29 -72.5q0 -55 -41 -82q14 -10 24 -24q29 41 82 41q55 0 82 -41q29 41 82 41q55 0 82 -41q29 41 82 41q55 0 82 -41q29 41 82 41q55 0 82 -41q29 41 82 41q41 0 69.5 -26t28.5 -73t-28.5 -72.5 t-69.5 -25.5q-53 0 -82 41q-27 -41 -82 -41q-53 0 -82 41q-27 -41 -82 -41q-53 0 -82 41q-27 -41 -82 -41q-53 0 -82 41q-27 -41 -82 -41q-53 0 -82 41q-27 -41 -82 -41q-39 0 -68.5 25.5t-29.5 72.5q0 55 41 82q-14 10 -24 25q-27 -41 -82 -41q-39 0 -69 25.5t-30 72.5z M582 510q14 -10 24 -25q29 41 82 41q55 0 82 -41q10 14 25 25q-41 27 -41 82t41 82q-14 10 -25 24q-27 -41 -82 -41q-53 0 -82 41q-10 -14 -24 -24q41 -27 41 -82t-41 -82z" />
<glyph unicode="A" horiz-adv-x="1384" d="M109 100q0 55 41 82q-41 27 -41 82t41 82q-41 27 -41 82t41 82q-41 27 -41 82t41 82q-41 27 -41 82t41 82q-41 27 -41 82t41 81q-41 27 -41 82q0 47 28.5 73t69.5 26q53 0 82 -41q8 14 24 24q-41 27 -41 82q0 47 29 73t70 26q53 0 82 -41q27 41 82 41q53 0 81 -41 q27 41 82 41q53 0 82 -41q27 41 82 41q53 0 82 -41q27 41 82 41q39 0 68.5 -26t29.5 -73q0 -55 -41 -82q14 -10 25 -24q27 41 82 41q39 0 68.5 -26t29.5 -73q0 -55 -41 -82q41 -27 41 -81q0 -55 -41 -82q41 -27 41 -82t-41 -82q41 -27 41 -82t-41 -82q41 -27 41 -82t-41 -82 q41 -27 41 -82t-41 -82q41 -27 41 -82q0 -47 -29.5 -72.5t-70.5 -25.5q-53 0 -80 41q-29 -41 -84 -41q-39 0 -67.5 25.5t-28.5 72.5q0 55 41 82q-41 27 -41 82t41 82q-41 27 -41 82t41 82q-16 10 -25 25q-29 -41 -82 -41q-55 0 -82 41q-29 -41 -82 -41q-55 0 -82 41 q-29 -41 -81 -41q-55 0 -82 41q-10 -14 -25 -25q41 -27 41 -82t-41 -82q41 -27 41 -82t-41 -82q41 -27 41 -82q0 -47 -29.5 -72.5t-70.5 -25.5q-53 0 -80 41q-29 -41 -84 -41q-39 0 -67.5 25.5t-28.5 72.5zM428 674q14 -10 25 -25q27 41 82 41q53 0 81 -41q27 41 82 41 q53 0 82 -41q27 41 82 41q53 0 82 -41q8 14 25 25q-41 27 -41 82t41 82q-41 27 -41 82t41 81q-41 27 -41 82t41 82q-16 10 -25 25q-29 -41 -82 -41q-55 0 -82 41q-29 -41 -82 -41q-55 0 -82 41q-29 -41 -81 -41q-55 0 -82 41q-10 -14 -25 -25q41 -27 41 -82t-41 -82 q41 -27 41 -81q0 -55 -41 -82q41 -27 41 -82t-41 -82z" />
<glyph unicode="B" horiz-adv-x="1376" d="M100 100q0 55 39 82q-39 27 -39 82t39 82q-39 27 -39 82t39 82q-39 27 -39 82t39 82q-39 27 -39 82t39 82q-39 27 -39 82q0 47 29 72.5t68 25.5q55 0 82 -41q29 41 83 41q39 0 68 -25.5t29 -72.5q0 -55 -41 -82q16 -10 24 -25q29 41 82 41q55 0 82 -41q29 41 82 41 q55 0 82 -41q29 41 82 41q55 0 82 -41q10 14 24 25q-38 26 -38 79q0 58 38 84q-38 26 -38 79q0 58 38 85q-14 10 -24 25q-27 -41 -82 -41q-53 0 -82 41q-27 -41 -82 -41q-53 0 -82 41q-27 -41 -82 -41q-53 0 -82 41q-27 -41 -82 -41q-53 0 -81 41q-27 -41 -82 -41 q-39 0 -68 25.5t-29 72.5t29 73t68 26q55 0 82 -41q29 41 81 41q55 0 82 -41q29 41 82 41q55 0 82 -41q29 41 82 41q55 0 82 -41q29 41 82 41q55 0 82 -41q29 41 84 41q39 0 67.5 -26t28.5 -73q0 -55 -41 -82q16 -10 25 -24q29 41 84 41q39 0 67.5 -26t28.5 -73 q0 -55 -41 -82q41 -27 41 -81q0 -47 -28.5 -73t-69.5 -26q-53 0 -82 41q-8 -14 -25 -24q41 -27 41 -82t-41 -82q16 -10 25 -25q29 41 84 41q39 0 67.5 -25.5t28.5 -72.5q0 -55 -41 -82q41 -27 41 -82t-41 -82q41 -27 41 -82q0 -47 -28.5 -72.5t-69.5 -25.5q-53 0 -82 41 q-8 -14 -25 -25q41 -27 41 -82q0 -47 -28.5 -72.5t-69.5 -25.5q-53 0 -82 41q-27 -41 -82 -41q-53 0 -82 41q-27 -41 -82 -41q-53 0 -82 41q-27 -41 -82 -41q-53 0 -82 41q-27 -41 -82 -41q-52 0 -81 41q-27 -41 -82 -41q-39 0 -68 25.5t-29 72.5zM418 182q16 -10 24 -24 q29 41 82 41q55 0 82 -41q29 41 82 41q55 0 82 -41q29 41 82 41q55 0 82 -41q10 14 24 24q-38 26 -38 79q0 58 38 85q-38 26 -38 79q0 58 38 85q-38 26 -38 79q0 58 38 85q-14 10 -24 24q-27 -41 -82 -41q-53 0 -82 41q-27 -41 -82 -41q-53 0 -82 41q-27 -41 -82 -41 q-53 0 -82 41q-8 -14 -24 -24q41 -27 41 -82t-41 -82q41 -27 41 -82t-41 -82q41 -27 41 -82t-41 -82z" />
<glyph unicode="C" horiz-adv-x="1380" d="M59 264q0 55 41 82q-41 27 -41 82t41 82q-41 27 -41 82t41 82q-41 27 -41 82t41 82q-41 27 -41 82t41 81q-41 27 -41 82q0 47 29 73t70 26q53 0 82 -41q10 14 24 24q-41 27 -41 82q0 47 29 73t70 26q53 0 81 -41q27 41 82 41q53 0 82 -41q27 41 82 41q53 0 82 -41 q27 41 82 41q53 0 82 -41q27 41 82 41q39 0 68.5 -26t29.5 -73q0 -55 -41 -82q14 -10 25 -24q27 41 82 41q39 0 68.5 -26t29.5 -73t-29.5 -72.5t-68.5 -25.5q-55 0 -82 41q-29 -41 -82 -41q-41 0 -69.5 25.5t-28.5 72.5q0 55 41 82q-14 10 -25 25q-29 -41 -82 -41 q-55 0 -82 41q-29 -41 -82 -41q-55 0 -82 41q-29 -41 -82 -41q-55 0 -82 41q-10 -14 -24 -25q41 -27 41 -82t-41 -82q41 -27 41 -81q0 -55 -41 -82q41 -27 41 -82t-41 -82q41 -27 41 -82t-41 -82q41 -27 41 -82t-41 -82q41 -27 41 -82t-41 -82q14 -10 24 -24q27 41 82 41 q53 0 82 -41q27 41 82 41q53 0 82 -41q27 41 82 41q53 0 82 -41q10 14 25 24q-41 27 -41 82q0 47 28.5 72.5t69.5 25.5q53 0 82 -40q26 40 79 40h3q39 0 68.5 -25.5t29.5 -72.5t-29.5 -72.5t-68.5 -25.5q-55 0 -82 41q-10 -14 -25 -25q41 -27 41 -82q0 -47 -29.5 -72.5 t-68.5 -25.5q-55 0 -82 41q-29 -41 -82 -41q-55 0 -82 41q-29 -41 -82 -41q-55 0 -82 41q-29 -41 -82 -41q-55 0 -82 41q-29 -41 -81 -41q-41 0 -70 25.5t-29 72.5q0 55 41 82q-14 10 -24 25q-29 -41 -82 -41q-41 0 -70 25.5t-29 72.5z" />
<glyph unicode="D" horiz-adv-x="1376" d="M100 100q0 55 41 82q-41 27 -41 82t41 82q-41 27 -41 82t41 82q-41 27 -41 82t41 82q-41 27 -41 82t41 82q-41 27 -41 82q0 47 30 72.5t69 25.5q55 0 82 -41q29 41 81 41q41 0 70 -25.5t29 -72.5q0 -55 -41 -82q41 -27 41 -82t-41 -82q41 -27 41 -82t-41 -82 q41 -27 41 -82t-41 -82q41 -27 41 -82t-41 -82q16 -10 24 -24q29 41 82 41q55 0 82 -41q29 41 82 41q55 0 82 -41q29 41 82 41q55 0 82 -41q10 14 25 24q-41 27 -41 82t41 82q-41 27 -41 82t41 82q-41 27 -41 82t41 82q-41 27 -41 82t41 82q-41 27 -41 82t41 81 q-41 27 -41 82t41 82q-14 10 -25 25q-27 -41 -82 -41q-53 0 -82 41q-27 -41 -82 -41q-53 0 -82 41q-27 -41 -82 -41q-53 0 -82 41q-27 -41 -82 -41q-53 0 -81 41q-26 -41 -77 -41h-5q-98 0 -99 98q0 47 30 73t69 26q55 0 82 -41q29 41 81 41q55 0 82 -41q29 41 82 41 q55 0 82 -41q29 41 82 41q55 0 82 -41q29 41 82 41q55 0 82 -41q29 41 82 41q41 0 69.5 -26t28.5 -73q0 -55 -41 -82q16 -10 25 -24q29 41 82 41q41 0 69.5 -26t28.5 -73q0 -55 -41 -82q41 -27 41 -81q0 -55 -41 -82q41 -27 41 -82t-41 -82q41 -27 41 -82t-41 -82 q41 -27 41 -82t-41 -82q41 -27 41 -82q0 -47 -28.5 -72.5t-69.5 -25.5q-53 0 -82 41q-8 -14 -25 -25q41 -27 41 -82q0 -47 -28.5 -72.5t-69.5 -25.5q-53 0 -82 41q-27 -41 -82 -41q-53 0 -82 41q-27 -41 -82 -41q-53 0 -82 41q-27 -41 -82 -41q-53 0 -82 41q-27 -41 -82 -41 q-52 0 -81 41q-27 -41 -82 -41q-39 0 -69 25.5t-30 72.5z" />
<glyph unicode="E" horiz-adv-x="1339" d="M57 100q0 55 41 82q-41 27 -41 82t41 82q-41 27 -41 82t41 82q-41 27 -41 82t41 82q-41 27 -41 82t41 82q-41 27 -41 82q0 47 29 72.5t70 25.5q53 0 82 -41q27 41 81 41q53 0 82 -41q27 41 82 41q53 0 82 -41q27 41 82 41q53 0 82 -41q27 41 82 41q39 0 68.5 -25.5 t29.5 -72.5t-29.5 -73t-68.5 -26q-55 0 -82 41q-29 -41 -82 -41q-55 0 -82 41q-29 -41 -82 -41q-55 0 -82 41q-10 -14 -24 -24q41 -27 41 -82t-41 -82q41 -27 41 -82t-41 -82q41 -27 41 -82t-41 -82q41 -27 41 -82t-41 -82q14 -10 24 -24q27 41 82 41q53 0 82 -41 q27 41 82 41q53 0 82 -41q27 41 82 41q53 0 82 -41q27 41 82 41q53 0 82 -41q27 41 82 41q39 0 68.5 -26t29.5 -73t-29.5 -72.5t-68.5 -25.5q-55 0 -82 41q-29 -41 -82 -41q-55 0 -82 41q-29 -41 -82 -41q-55 0 -82 41q-29 -41 -82 -41q-55 0 -82 41q-29 -41 -82 -41 q-55 0 -82 41q-29 -41 -82 -41q-54 0 -81 41q-29 -41 -82 -41q-41 0 -70 25.5t-29 72.5zM57 1247q0 47 29 73t70 26q53 0 82 -41q27 41 81 41q53 0 82 -41q27 41 82 41q53 0 82 -41q27 41 82 41q53 0 82 -41q27 41 82 41q53 0 82 -41q27 41 82 41q53 0 82 -41q27 41 82 41 q39 0 68.5 -26t29.5 -73t-29.5 -72.5t-68.5 -25.5q-55 0 -82 41q-29 -41 -82 -41q-55 0 -82 41q-29 -41 -82 -41q-55 0 -82 41q-29 -41 -82 -41q-55 0 -82 41q-29 -41 -82 -41q-55 0 -82 41q-29 -41 -82 -41q-54 0 -81 41q-29 -41 -84 -41q-39 0 -68 25.5t-29 72.5z" />
<glyph unicode="F" horiz-adv-x="1323" d="M41 100q0 55 41 82q-41 27 -41 82t41 82q-41 27 -41 82t41 82q-41 27 -41 82t41 82q-41 27 -41 82t41 82q-41 27 -41 82q0 47 28.5 72.5t69.5 25.5q53 0 82 -41q27 41 82 41q53 0 82 -41q27 41 82 41q53 0 82 -41q27 41 82 41q53 0 82 -41q27 41 82 41q39 0 67.5 -25.5 t28.5 -72.5t-28.5 -73t-69.5 -26q-53 0 -80 41q-29 -41 -82 -41q-55 0 -82 41q-29 -41 -82 -41q-55 0 -82 41q-10 -14 -25 -24q39 -27 39 -82t-39 -82q39 -27 39 -82t-39 -82q39 -27 39 -82t-39 -82q39 -27 39 -82t-39 -82q39 -27 39 -82q0 -47 -28.5 -72.5t-69.5 -25.5 q-53 0 -80 41q-29 -41 -82 -41q-41 0 -69.5 25.5t-28.5 72.5zM41 1247q0 47 28.5 73t69.5 26q53 0 82 -41q27 41 82 41q53 0 82 -41q27 41 82 41q53 0 82 -41q27 41 82 41q53 0 82 -41q27 41 82 41q53 0 82 -41q27 41 81 41q53 0 82 -41q27 41 82 41q39 0 68 -26t29 -73 t-29 -72.5t-70 -25.5q-53 0 -80 41q-29 -41 -82 -41q-55 0 -81 41q-29 -41 -82 -41q-55 0 -82 41q-29 -41 -82 -41q-55 0 -82 41q-29 -41 -82 -41q-55 0 -82 41q-29 -41 -82 -41q-55 0 -82 41q-29 -41 -84 -41q-39 0 -67.5 25.5t-28.5 72.5z" />
<glyph unicode="G" horiz-adv-x="1402" d="M82 264q0 55 41 82q-41 27 -41 82t41 82q-41 27 -41 82t41 82q-41 27 -41 82t41 82q-41 27 -41 82t41 81q-41 27 -41 82q0 47 28.5 73t69.5 26q53 0 82 -41q10 14 25 24q-41 27 -41 82q0 47 28.5 73t69.5 26q53 0 82 -41q27 41 82 41q53 0 82 -41q27 41 82 41 q53 0 82 -41q27 41 82 41q53 0 82 -41q27 41 81 41q39 0 69 -26t30 -73q0 -55 -41 -82q14 -10 24 -24q27 41 82 41q41 0 70 -26t29 -73t-30 -72.5t-69 -25.5q-55 0 -82 41q-29 -41 -82 -41q-41 0 -69.5 25.5t-28.5 72.5q0 55 41 82q-14 10 -24 25q-29 -41 -82 -41 q-55 0 -82 41q-29 -41 -82 -41q-55 0 -82 41q-29 -41 -82 -41q-55 0 -82 41q-10 -14 -25 -25q41 -27 41 -82t-41 -82q41 -27 41 -81q0 -55 -41 -82q41 -27 41 -82t-41 -82q41 -27 41 -82t-41 -82q41 -27 41 -82t-41 -82q41 -27 41 -82t-41 -82q14 -10 25 -24q27 41 82 41 q53 0 82 -41q27 41 82 41q53 0 82 -41q27 41 82 41q53 0 82 -41q10 14 24 24q-41 27 -41 82t41 82q-41 27 -41 82t41 82q-14 10 -24 25q-29 -41 -82 -41q-55 0 -82 41q-28 -41 -79 -41h-5q-96 0 -97 98q0 47 29 72.5t70 25.5q53 0 82 -41q27 41 82 41q53 0 82 -41 q27 41 81 41q53 0 82 -41q27 41 82 41q39 0 69 -25.5t30 -72.5q0 -55 -41 -82q41 -27 41 -82t-41 -82q41 -27 41 -82q0 -47 -30 -72.5t-69 -25.5q-55 0 -82 41q-10 -14 -24 -25q41 -27 41 -82q0 -47 -30 -72.5t-69 -25.5q-55 0 -81 41q-29 -41 -82 -41q-55 0 -82 41 q-29 -41 -82 -41q-55 0 -82 41q-29 -41 -82 -41q-55 0 -82 41q-29 -41 -82 -41q-41 0 -69.5 25.5t-28.5 72.5q0 55 41 82q-14 10 -25 25q-29 -41 -82 -41q-41 0 -69.5 25.5t-28.5 72.5z" />
<glyph unicode="H" horiz-adv-x="1388" d="M113 100q0 55 41 82q-41 27 -41 82t41 82q-41 27 -41 82t41 82q-41 27 -41 82t41 82q-41 27 -41 82t41 82q-41 27 -41 82t41 81q-41 27 -41 82t41 82q-41 27 -41 82q0 47 28.5 73t69.5 26q53 0 82 -41q27 41 82 41q39 0 68.5 -26t29.5 -73q0 -55 -41 -82q41 -27 41 -82 t-41 -82q41 -27 41 -81q0 -55 -41 -82q14 -10 25 -25q27 41 82 41q53 0 82 -41q27 41 81 41q53 0 82 -41q27 41 82 41q53 0 82 -41q10 14 25 25q-41 27 -41 82t41 81q-41 27 -41 82t41 82q-41 27 -41 82q0 47 28.5 73t69.5 26q53 0 82 -41q27 41 82 41q39 0 68.5 -26 t29.5 -73q0 -55 -41 -82q41 -27 41 -82t-41 -82q41 -27 41 -81q0 -55 -41 -82q41 -27 41 -82t-41 -82q41 -27 41 -82t-41 -82q41 -27 41 -82t-41 -82q41 -27 41 -82t-41 -82q41 -27 41 -82q0 -47 -29.5 -72.5t-68.5 -25.5q-55 0 -82 41q-29 -41 -82 -41q-41 0 -69.5 25.5 t-28.5 72.5q0 55 41 82q-41 27 -41 82t41 82q-41 27 -41 82t41 82q-41 27 -41 82t41 82q-14 10 -25 24q-29 -41 -82 -41q-55 0 -82 41q-29 -41 -82 -41q-55 0 -81 41q-29 -41 -82 -41q-55 0 -82 41q-10 -14 -25 -24q41 -27 41 -82t-41 -82q41 -27 41 -82t-41 -82 q41 -27 41 -82t-41 -82q41 -27 41 -82q0 -47 -29.5 -72.5t-68.5 -25.5q-55 0 -82 41q-29 -41 -82 -41q-41 0 -69.5 25.5t-28.5 72.5z" />
<glyph unicode="I" horiz-adv-x="569" d="M113 100q0 55 41 82q-41 27 -41 82t41 82q-41 27 -41 82t41 82q-41 27 -41 82t41 82q-41 27 -41 82t41 82q-41 27 -41 82t41 81q-41 27 -41 82t41 82q-41 27 -41 82q0 47 28.5 73t69.5 26q53 0 82 -41q27 41 82 41q39 0 68.5 -26t29.5 -73q0 -55 -41 -82q41 -27 41 -82 t-41 -82q41 -27 41 -81q0 -55 -41 -82q41 -27 41 -82t-41 -82q41 -27 41 -82t-41 -82q41 -27 41 -82t-41 -82q41 -27 41 -82t-41 -82q41 -27 41 -82q0 -47 -29.5 -72.5t-68.5 -25.5q-55 0 -82 41q-29 -41 -82 -41q-41 0 -69.5 25.5t-28.5 72.5z" />
<glyph unicode="J" horiz-adv-x="1314" d="M39 264q0 47 28.5 72.5t69.5 25.5q53 0 82 -40q26 40 79 40h3q39 0 68.5 -25.5t29.5 -72.5q0 -55 -41 -82q14 -10 25 -24q27 41 82 41q53 0 82 -41q27 41 82 41q53 0 82 -41q27 41 82 41q53 0 81 -41q10 14 25 24q-41 27 -41 82t41 82q-41 27 -41 82t41 82q-41 27 -41 82 t41 82q-41 27 -41 82t41 82q-41 27 -41 82t41 81q-41 27 -41 82t41 82q-14 10 -25 25q-29 -41 -81 -41q-41 0 -70 25.5t-29 72.5t29 73t70 26q53 0 81 -41q27 41 82 41q53 0 82 -41q27 41 82 41q39 0 69 -26t30 -73q0 -55 -41 -82q41 -27 41 -82t-41 -82q41 -27 41 -81 q0 -55 -41 -82q41 -27 41 -82t-41 -82q41 -27 41 -82t-41 -82q41 -27 41 -82t-41 -82q41 -27 41 -82q0 -47 -30 -72.5t-69 -25.5q-55 0 -82 41q-10 -14 -24 -25q41 -27 41 -82q0 -47 -30 -72.5t-69 -25.5q-55 0 -82 41q-29 -41 -81 -41q-55 0 -82 41q-29 -41 -82 -41 q-55 0 -82 41q-29 -41 -82 -41q-55 0 -82 41q-29 -41 -82 -41q-41 0 -69.5 25.5t-28.5 72.5q0 55 41 82q-14 10 -25 25q-29 -41 -82 -41q-41 0 -69.5 25.5t-28.5 72.5z" />
<glyph unicode="K" horiz-adv-x="1368" d="M86 100q0 55 41 82q-41 27 -41 82t41 82q-41 27 -41 82t41 82q-41 27 -41 82t41 82q-41 27 -41 82t41 82q-41 27 -41 82t41 81q-41 27 -41 82t41 82q-41 27 -41 82q0 47 29.5 73t68.5 26q53 0 82 -41q27 41 82 41q39 0 68.5 -26t29.5 -73q0 -55 -40 -82q40 -26 40 -79 q0 -58 -40 -85q41 -27 40 -81q0 -55 -40 -82q14 -10 24 -25q27 41 82 41q53 0 82 -41q10 14 24 25q-40 26 -40 79q0 50 29.5 75.5t68.5 25.5q53 0 82 -41q10 14 24 24q-41 27 -41 82q0 47 30 73t69 26q53 0 82 -41q10 14 24 24q-41 27 -41 82q0 47 30 73t69 26q53 0 81 -41 q29 41 82 41q41 0 70 -26t29 -73t-30 -72.5t-69 -25.5q-55 0 -82 41q-10 -14 -24 -25q41 -27 41 -82q0 -47 -30 -72.5t-68 -25.5q-55 0 -82 41q-10 -14 -25 -25q41 -27 41 -81q0 -47 -29.5 -73t-68.5 -26q-55 0 -82 41q-10 -14 -25 -24q41 -27 41 -82t-41 -82q41 -27 41 -82 t-41 -82q14 -10 25 -25q27 41 82 41q39 0 68.5 -25.5t29.5 -72.5q0 -55 -41 -82q14 -10 25 -24q26 40 79 40h3q39 0 68.5 -25.5t29.5 -72.5q0 -55 -41 -82q14 -10 24 -24q29 41 82 41q41 0 70 -26t29 -73t-30 -72.5t-69 -25.5q-55 0 -82 41q-29 -41 -81 -41q-41 0 -70 25.5 t-29 72.5q0 55 41 82q-14 10 -24 25q-29 -41 -82 -41q-41 0 -70 25.5t-29 72.5q0 55 41 82q-14 10 -24 25q-29 -41 -82 -41q-41 0 -69.5 25.5t-28.5 72.5q0 55 40 82q-14 10 -24 25q-29 -41 -82 -41q-55 0 -82 41q-10 -14 -24 -25q40 -26 40 -79q0 -58 -40 -85 q40 -26 40 -79q0 -58 -40 -85q40 -26 40 -79q0 -50 -29.5 -75.5t-68.5 -25.5q-55 0 -82 41q-29 -41 -82 -41q-41 0 -69.5 25.5t-28.5 72.5z" />
<glyph unicode="L" horiz-adv-x="1292" d="M27 100q0 55 41 82q-41 27 -41 82t41 82q-41 27 -41 82t41 82q-41 27 -41 82t41 82q-41 27 -41 82t41 82q-41 27 -41 82t41 81q-41 27 -41 82t41 82q-41 27 -41 82q0 47 28.5 73t69.5 26q53 0 80 -41q29 41 84 41q39 0 67.5 -26t28.5 -73q0 -55 -41 -82q41 -27 41 -82 t-41 -82q41 -27 41 -81q0 -55 -41 -82q41 -27 41 -82t-41 -82q41 -27 41 -82t-41 -82q41 -27 41 -82t-41 -82q41 -27 41 -82t-41 -82q16 -10 25 -24q29 41 82 41q55 0 81 -41q29 41 82 41q55 0 82 -41q29 41 82 41q55 0 82 -41q29 41 82 41q55 0 82 -41q29 41 82 41 q41 0 69.5 -26t28.5 -73t-28.5 -72.5t-69.5 -25.5q-53 0 -82 41q-27 -41 -82 -41q-53 0 -82 41q-27 -41 -82 -41q-53 0 -82 41q-27 -41 -82 -41q-53 0 -82 41q-27 -41 -81 -41q-53 0 -82 41q-27 -41 -82 -41q-53 0 -82 41q-27 -41 -82 -41q-39 0 -67.5 25.5t-28.5 72.5z" />
<glyph unicode="M" horiz-adv-x="1716" d="M113 100q0 55 41 82q-41 27 -41 82t41 82q-41 27 -41 82t41 82q-41 27 -41 82t41 82q-41 27 -41 82t41 82q-41 27 -41 82t41 81q-41 27 -41 82t41 82q-41 27 -41 82q0 47 28.5 73t69.5 26q53 0 82 -41q27 41 82 41q39 0 68.5 -26t29.5 -73q0 -55 -41 -82q14 -10 25 -24 q27 41 82 41q39 0 68.5 -26t29.5 -73q0 -55 -41 -82q14 -10 25 -24q27 41 81 41q39 0 69 -25.5t30 -72.5q0 -55 -41 -82q14 -10 24 -25q27 41 82 41q53 0 82 -41q10 14 25 25q-41 27 -41 82q0 47 28.5 72.5t69.5 25.5q53 0 82 -41q10 14 25 24q-41 27 -41 82q0 47 28.5 73 t69.5 26q53 0 82 -41q10 14 24 24q-40 26 -40 79q0 50 28.5 76t69.5 26q53 0 82 -41q27 41 82 41q39 0 68.5 -26t29.5 -73q0 -55 -41 -82q41 -27 41 -82t-41 -82q41 -27 41 -81q0 -55 -41 -82q41 -27 41 -82t-41 -82q41 -27 41 -82t-41 -82q41 -27 41 -82t-41 -82 q41 -27 41 -82t-41 -82q41 -27 41 -82q0 -47 -29.5 -72.5t-68.5 -25.5q-55 0 -82 41q-29 -41 -82 -41q-41 0 -69.5 25.5t-28.5 72.5q0 55 40 82q-40 26 -40 79q0 58 40 85q-40 26 -40 79q0 58 40 85q-40 26 -40 79q0 58 40 85q-40 26 -40 79q0 58 40 85q-14 10 -24 24 q-29 -41 -82 -41q-55 0 -82 41q-10 -14 -25 -24q41 -27 41 -82q0 -47 -29.5 -73t-68.5 -26q-55 0 -82 41q-10 -14 -24 -24q41 -27 41 -82q0 -47 -30 -72.5t-69 -25.5q-41 0 -69.5 25.5t-28.5 72.5q0 55 41 82q-14 10 -25 24q-29 -41 -82 -41q-41 0 -69.5 26t-28.5 73 q0 55 41 82q-14 10 -24 24q-29 -41 -82 -41q-55 0 -82 41q-10 -14 -25 -24q41 -27 41 -82t-41 -82q41 -27 41 -82t-41 -82q41 -27 41 -82t-41 -82q41 -27 41 -82t-41 -82q41 -27 41 -82q0 -47 -29.5 -72.5t-68.5 -25.5q-55 0 -82 41q-29 -41 -82 -41q-41 0 -69.5 25.5 t-28.5 72.5z" />
<glyph unicode="N" horiz-adv-x="1388" d="M113 100q0 55 41 82q-41 27 -41 82t41 82q-41 27 -41 82t41 82q-41 27 -41 82t41 82q-41 27 -41 82t41 82q-41 27 -41 82t41 81q-41 27 -41 82t41 82q-41 27 -41 82q0 47 28.5 73t69.5 26q53 0 82 -41q27 41 82 41q39 0 68.5 -26t29.5 -73q0 -55 -41 -82q14 -10 25 -24 q27 41 82 41q39 0 68.5 -26t29.5 -73q0 -55 -41 -82q41 -27 41 -81q0 -55 -41 -82q14 -10 25 -25q27 41 81 41q39 0 69 -25.5t30 -72.5q0 -55 -41 -82q14 -10 24 -25q27 41 82 41q53 0 82 -41q10 14 25 25q-41 27 -41 82t41 82q-41 27 -41 82t41 81q-41 27 -41 82t41 82 q-41 27 -41 82q0 47 28.5 73t69.5 26q53 0 82 -41q27 41 82 41q39 0 68.5 -26t29.5 -73q0 -55 -41 -82q41 -27 41 -82t-41 -82q41 -27 41 -81q0 -55 -41 -82q41 -27 41 -82t-41 -82q41 -27 41 -82t-41 -82q41 -27 41 -82t-41 -82q41 -27 41 -82t-41 -82q41 -27 41 -82 q0 -47 -29.5 -72.5t-68.5 -25.5q-55 0 -82 41q-29 -41 -82 -41q-41 0 -69.5 25.5t-28.5 72.5q0 55 41 82q-14 10 -25 25q-29 -41 -82 -41q-41 0 -69.5 25.5t-28.5 72.5q0 55 41 82q-41 27 -41 82t41 82q-14 10 -25 25q-29 -41 -82 -41q-41 0 -69.5 25.5t-28.5 72.5 q0 55 41 82q-14 10 -24 24q-29 -41 -82 -41q-55 0 -82 41q-10 -14 -25 -24q41 -27 41 -82t-41 -82q41 -27 41 -82t-41 -82q41 -27 41 -82t-41 -82q41 -27 41 -82q0 -47 -29.5 -72.5t-68.5 -25.5q-55 0 -82 41q-29 -41 -82 -41q-41 0 -69.5 25.5t-28.5 72.5z" />
<glyph unicode="O" horiz-adv-x="1378" d="M102 264q0 55 41 82q-41 27 -41 82t41 82q-41 27 -41 82t41 82q-41 27 -41 82t41 82q-41 27 -41 82t41 81q-41 27 -41 82q0 47 30 73t71 26q53 0 80 -41q10 14 24 24q-41 27 -41 82q0 47 30 73t71 26q53 0 79 -41q29 41 82 41q55 0 82 -41q29 41 82 41q55 0 82 -41 q29 41 82 41q55 0 82 -41q29 41 82 41q41 0 69.5 -26t28.5 -73q0 -55 -41 -82q16 -10 25 -24q29 41 82 41q41 0 69.5 -26t28.5 -73q0 -55 -41 -82q41 -27 41 -81q0 -55 -41 -82q41 -27 41 -82t-41 -82q41 -27 41 -82t-41 -82q41 -27 41 -82t-41 -82q41 -27 41 -82 q0 -47 -28.5 -72.5t-69.5 -25.5q-53 0 -82 41q-8 -14 -25 -25q41 -27 41 -82q0 -47 -28.5 -72.5t-69.5 -25.5q-53 0 -82 41q-27 -41 -82 -41q-53 0 -82 41q-27 -41 -82 -41q-53 0 -82 41q-27 -41 -82 -41q-53 0 -82 41q-27 -41 -81 -41q-39 0 -69 25.5t-30 72.5q0 55 41 82 q-14 10 -24 25q-27 -41 -82 -41q-39 0 -69 25.5t-30 72.5zM422 182q16 -10 24 -24q29 41 82 41q55 0 82 -41q29 41 82 41q55 0 82 -41q29 41 82 41q55 0 82 -41q10 14 25 24q-41 27 -41 82t41 82q-41 27 -41 82t41 82q-41 27 -41 82t41 82q-41 27 -41 82t41 82 q-41 27 -41 82t41 81q-41 27 -41 82t41 82q-14 10 -25 25q-27 -41 -82 -41q-53 0 -82 41q-27 -41 -82 -41q-53 0 -82 41q-27 -41 -82 -41q-53 0 -82 41q-8 -14 -24 -25q41 -27 41 -82t-41 -82q41 -27 41 -81q0 -55 -41 -82q41 -27 41 -82t-41 -82q41 -27 41 -82t-41 -82 q41 -27 41 -82t-41 -82q41 -27 41 -82t-41 -82z" />
<glyph unicode="P" horiz-adv-x="1331" d="M55 100q0 55 39 82q-39 27 -39 82t39 82q-39 27 -39 82t39 82q-39 27 -39 82t39 82q-39 27 -39 82t39 82q-39 27 -39 82q0 47 29 72.5t70 25.5q53 0 79 -41q29 41 82 41q41 0 70 -25.5t29 -72.5q0 -55 -41 -82q16 -10 24 -25q29 41 82 41q55 0 82 -41q29 41 82 41 q55 0 82 -41q29 41 82 41q55 0 82 -41q10 14 24 25q-39 27 -39 82t39 81q-39 27 -39 82t39 82q-14 10 -24 25q-27 -41 -82 -41q-53 0 -82 41q-27 -41 -82 -41q-53 0 -82 41q-27 -41 -82 -41q-53 0 -82 41q-27 -41 -82 -41q-53 0 -82 41q-26 -41 -76 -41h-5q-96 0 -97 98 q0 47 29 73t68 26q55 0 81 -41q29 41 82 41q55 0 82 -41q29 41 82 41q55 0 82 -41q29 41 82 41q55 0 82 -41q29 41 82 41q55 0 82 -41q29 41 84 41q39 0 67.5 -26t28.5 -73q0 -55 -41 -82q16 -10 25 -24q29 41 84 41q39 0 67.5 -26t28.5 -73q0 -55 -41 -82q41 -27 41 -81 q0 -47 -28.5 -73t-69.5 -26q-53 0 -82 41q-8 -14 -25 -24q41 -27 41 -82q0 -47 -28.5 -73t-69.5 -26q-53 0 -82 41q-27 -41 -82 -41q-53 0 -82 41q-27 -41 -82 -41q-53 0 -82 41q-27 -41 -82 -41q-53 0 -82 41q-8 -14 -24 -24q41 -27 41 -82t-41 -82q41 -27 41 -82t-41 -82 q41 -27 41 -82t-41 -82q41 -27 41 -82q0 -47 -29 -72.5t-70 -25.5q-53 0 -82 41q-27 -41 -81 -41q-39 0 -68 25.5t-29 72.5z" />
<glyph unicode="Q" horiz-adv-x="1511" d="M82 264q0 55 41 82q-41 27 -41 82t41 82q-41 27 -41 82t41 82q-41 27 -41 82t41 82q-41 27 -41 82t41 81q-41 27 -41 82q0 47 28.5 73t69.5 26q53 0 82 -41q10 14 25 24q-41 27 -41 82q0 47 28.5 73t69.5 26q53 0 82 -41q27 41 82 41q53 0 82 -41q27 41 82 41 q53 0 82 -41q27 41 82 41q53 0 82 -41q27 41 81 41q39 0 69 -26t30 -73q0 -55 -41 -82q14 -10 24 -24q27 41 82 41q39 0 69 -26t30 -73q0 -55 -41 -82q41 -27 41 -81q0 -55 -41 -82q41 -27 41 -82t-41 -82q41 -27 41 -82t-41 -82q41 -27 41 -82q0 -47 -30 -72.5t-69 -25.5 q-55 0 -82 41q-29 -41 -82 -41q-41 0 -69.5 25.5t-28.5 72.5q0 55 41 82q-41 27 -41 82t41 82q-41 27 -41 82t41 82q-41 27 -41 82t41 81q-41 27 -41 82t41 82q-14 10 -24 25q-29 -41 -82 -41q-55 0 -82 41q-29 -41 -82 -41q-55 0 -82 41q-29 -41 -82 -41q-55 0 -82 41 q-10 -14 -25 -25q41 -27 41 -82t-41 -82q41 -27 41 -81q0 -55 -41 -82q41 -27 41 -82t-41 -82q41 -27 41 -82t-41 -82q41 -27 41 -82t-41 -82q41 -27 41 -82t-41 -82q14 -10 25 -24q27 41 82 41q53 0 82 -41q27 41 82 41q53 0 82 -41q27 41 82 41q53 0 82 -41q27 41 81 41 q53 0 82 -41q27 41 82 41q53 0 82 -41q27 41 82 41q39 0 68.5 -26t29.5 -73t-29.5 -72.5t-68.5 -25.5q-55 0 -82 41q-29 -41 -82 -41q-55 0 -82 41q-29 -41 -82 -41q-55 0 -81 41q-29 -41 -82 -41q-55 0 -82 41q-29 -41 -82 -41q-55 0 -82 41q-29 -41 -82 -41q-55 0 -82 41 q-29 -41 -84 -41q-39 0 -67.5 25.5t-28.5 72.5q0 55 41 82q-14 10 -25 25q-29 -41 -82 -41q-41 0 -69.5 25.5t-28.5 72.5z" />
<glyph unicode="R" horiz-adv-x="1366" d="M90 100q0 55 39 82q-39 27 -39 82t39 82q-39 27 -39 82t39 82q-39 27 -39 82t39 82q-39 27 -39 82t39 82q-39 27 -39 82q0 47 28.5 72.5t67.5 25.5q55 0 82 -41q29 41 84 41q39 0 68 -25.5t29 -72.5q0 -55 -41 -82q16 -10 24 -25q29 41 82 41q55 0 82 -41q29 41 82 41 q55 0 82 -41q29 41 82 41q55 0 82 -41q10 14 24 25q-41 27 -41 82t41 81q-41 27 -41 82t41 82q-14 10 -24 25q-27 -41 -82 -41q-53 0 -82 41q-27 -41 -82 -41q-53 0 -82 41q-27 -41 -82 -41q-53 0 -82 41q-27 -41 -82 -41q-53 0 -82 41q-27 -41 -82 -41q-39 0 -67.5 25.5 t-28.5 72.5t28.5 73t67.5 26q55 0 82 -41q29 41 82 41q55 0 82 -41q29 41 82 41q55 0 82 -41q29 41 82 41q55 0 82 -41q29 41 82 41q55 0 82 -41q29 41 84 41q39 0 67.5 -26t28.5 -73q0 -55 -41 -82q16 -10 24 -24q29 41 84 41q39 0 68 -26t29 -73q0 -55 -41 -82 q41 -27 41 -81q0 -47 -29 -73t-70 -26q-53 0 -82 41q-8 -14 -24 -24q41 -27 41 -82q0 -47 -28.5 -73t-69.5 -26q-53 0 -82 41q-27 -41 -82 -41q-53 0 -82 41q-8 -14 -25 -24q41 -27 41 -82t-41 -82q16 -10 25 -25q29 41 84 41q39 0 67.5 -25.5t28.5 -72.5q0 -55 -41 -82 q16 -10 25 -24q28 40 81 40h3q39 0 67.5 -25.5t28.5 -72.5q0 -55 -41 -82q16 -10 24 -24q29 41 82 41q41 0 70 -26t29 -73t-29 -72.5t-70 -25.5q-53 0 -82 41q-27 -41 -81 -41q-39 0 -69 25.5t-30 72.5q0 55 41 82q-14 10 -24 25q-27 -41 -82 -41q-39 0 -69 25.5t-30 72.5 q0 55 41 82q-14 10 -24 25q-27 -41 -82 -41q-39 0 -68.5 25.5t-29.5 72.5q0 55 41 82q-14 10 -25 25q-27 -41 -82 -41q-53 0 -82 41q-8 -14 -24 -25q41 -27 41 -82t-41 -82q41 -27 41 -82t-41 -82q41 -27 41 -82q0 -47 -29 -72.5t-70 -25.5q-53 0 -82 41q-27 -41 -82 -41 q-39 0 -67.5 25.5t-28.5 72.5z" />
<glyph unicode="S" horiz-adv-x="1394" d="M74 264q0 47 28.5 72.5t67.5 25.5q55 0 82 -40q28 40 79 40h3q41 0 69.5 -25.5t28.5 -72.5q0 -55 -41 -82q16 -10 25 -24q29 41 82 41q55 0 82 -41q29 41 82 41q55 0 81 -41q29 41 82 41q55 0 82 -41q10 14 25 24q-39 27 -39 82t39 82q-39 27 -39 82t39 82q-39 27 -39 82 t39 82q-14 10 -25 24q-27 -41 -82 -41q-53 0 -82 41q-27 -41 -81 -41q-53 0 -82 41q-27 -41 -82 -41q-53 0 -82 41q-27 -41 -82 -41q-39 0 -67.5 26t-28.5 73q0 55 41 82q-16 10 -27 24q-27 -41 -82 -41q-39 0 -67.5 25.5t-28.5 73.5q0 55 41 81q-41 27 -41 82q0 47 28.5 73 t69.5 26q53 0 80 -41q10 14 27 24q-41 27 -41 82q0 47 28.5 73t69.5 26q53 0 80 -41q29 41 82 41q55 0 82 -41q29 41 82 41q55 0 81 -41q29 41 82 41q55 0 82 -41q29 41 82 41q41 0 69.5 -26t28.5 -73q0 -55 -40 -82q16 -10 24 -24q29 41 84 41q39 0 67.5 -26t28.5 -73 t-28.5 -72.5t-69.5 -25.5q-53 0 -82 41q-27 -41 -82 -41q-39 0 -67.5 25.5t-28.5 72.5q0 55 39 82q-14 10 -25 25q-27 -41 -82 -41q-53 0 -82 41q-27 -41 -81 -41q-53 0 -82 41q-27 -41 -82 -41q-53 0 -82 41q-8 -14 -25 -25q41 -27 41 -82t-41 -82q41 -27 41 -81 q0 -55 -41 -82q16 -10 25 -25q29 41 82 41q55 0 82 -41q29 41 82 41q55 0 81 -41q29 41 82 41q55 0 82 -41q29 41 82 41q41 0 69.5 -25.5t28.5 -72.5q0 -55 -40 -82q16 -10 24 -25q29 41 84 41q39 0 67.5 -25.5t28.5 -72.5q0 -55 -41 -82q41 -27 41 -82t-41 -82 q41 -27 41 -82q0 -47 -28.5 -72.5t-69.5 -25.5q-53 0 -82 41q-8 -14 -24 -25q40 -26 40 -79q0 -50 -28.5 -75.5t-69.5 -25.5q-53 0 -82 41q-27 -41 -82 -41q-53 0 -82 41q-27 -41 -81 -41q-53 0 -82 41q-27 -41 -82 -41q-53 0 -82 41q-27 -41 -82 -41q-39 0 -67.5 25.5 t-28.5 72.5q0 55 41 82q-16 10 -27 25q-26 -41 -77 -41h-5q-96 0 -96 98z" />
<glyph unicode="T" horiz-adv-x="1163" d="M45 1247q0 47 29.5 73t68.5 26q53 0 82 -41q27 41 82 41q53 0 82 -41q27 41 82 41q53 0 82 -41q27 41 82 41q53 0 82 -41q27 41 82 41q53 0 82 -41q29 41 82 41q39 0 68.5 -26t29.5 -73t-30 -72.5t-68 -25.5q-55 0 -82 41q-29 -41 -82 -41q-55 0 -82 41q-29 -41 -82 -41 t-82 41q-29 -41 -82 -41t-82 41q-29 -41 -82 -41t-82 41q-29 -41 -82 -41q-41 0 -69.5 25.5t-28.5 72.5zM373 100q0 55 41 82q-41 27 -41 82t41 82q-41 27 -41 82t41 82q-41 27 -41 82t41 82q-41 27 -41 82t41 82q-41 27 -41 82q0 47 29.5 72.5t68.5 25.5q53 0 82 -41 q29 41 82 41q39 0 68.5 -25.5t29.5 -72.5q0 -55 -41 -82q41 -27 41 -82t-41 -82q41 -27 41 -82t-41 -82q41 -27 41 -82t-41 -82q41 -27 41 -82t-41 -82q41 -27 41 -82q0 -47 -29.5 -72.5t-68.5 -25.5q-55 0 -82 41q-29 -41 -82 -41q-39 0 -68.5 25.5t-29.5 72.5z" />
<glyph unicode="U" horiz-adv-x="1386" d="M111 264q0 55 41 82q-41 27 -41 82t41 82q-41 27 -41 82t41 82q-41 27 -41 82t41 82q-41 27 -41 82t41 81q-41 27 -41 82t41 82q-41 27 -41 82q0 47 28.5 73t69.5 26q53 0 82 -41q27 41 82 41q39 0 68.5 -26t29.5 -73q0 -55 -41 -82q41 -27 41 -82t-41 -82q41 -27 41 -81 q0 -55 -41 -82q41 -27 41 -82t-41 -82q41 -27 41 -82t-41 -82q41 -27 41 -82t-41 -82q41 -27 41 -82t-41 -82q14 -10 25 -24q27 41 82 41q53 0 81 -41q27 41 82 41q53 0 82 -41q27 41 82 41q53 0 82 -41q10 14 25 24q-41 27 -41 82t41 82q-41 27 -41 82t41 82q-41 27 -41 82 t41 82q-41 27 -41 82t41 82q-41 27 -41 82t41 81q-41 27 -41 82t41 82q-41 27 -41 82q0 47 28.5 73t69.5 26q53 0 82 -41q27 41 82 41q39 0 68.5 -26t29.5 -73q0 -55 -41 -82q41 -27 41 -82t-41 -82q41 -27 41 -81q0 -55 -41 -82q41 -27 41 -82t-41 -82q41 -27 41 -82 t-41 -82q41 -27 41 -82t-41 -82q41 -27 41 -82t-41 -82q41 -27 41 -82q0 -47 -29.5 -72.5t-68.5 -25.5q-55 0 -82 41q-29 -41 -82 -41q-55 0 -82 41q-29 -41 -82 -41q-55 0 -82 41q-29 -41 -82 -41q-55 0 -82 41q-29 -41 -81 -41q-55 0 -82 41q-29 -41 -82 -41 q-41 0 -70 25.5t-29 72.5q0 55 41 82q-14 10 -24 25q-29 -41 -82 -41q-41 0 -69.5 25.5t-28.5 72.5z" />
<glyph unicode="V" horiz-adv-x="1353" d="M84 592q0 55 41 82q-41 27 -41 82t41 82q-41 27 -41 82t41 81q-41 27 -41 82t41 82q-41 27 -41 82q0 47 29.5 73t68.5 26q55 0 82 -41q29 41 82 41q41 0 69.5 -26t28.5 -73q0 -55 -41 -82q41 -27 41 -82t-41 -82q41 -27 41 -81q0 -55 -41 -82q41 -27 41 -82t-41 -82 q41 -27 41 -82t-41 -82q14 -10 25 -25q29 41 82 41q41 0 69.5 -25.5t28.5 -72.5q0 -55 -41 -82q14 -10 25 -24q28 40 79 40h3q55 0 82 -40q10 14 24 24q-41 27 -41 82q0 47 30 72.5t69 25.5q55 0 82 -41q10 14 24 25q-41 27 -41 82t41 82q-41 27 -41 82t41 82q-41 27 -41 82 t41 81q-41 27 -41 82t41 82q-41 27 -41 82q0 47 30 73t68 26q55 0 82 -41q29 41 82 41q41 0 70 -26t29 -73q0 -55 -41 -82q41 -27 41 -82t-41 -82q41 -27 41 -81q0 -55 -41 -82q41 -27 41 -82t-41 -82q41 -27 41 -82q0 -47 -29 -72.5t-70 -25.5q-53 0 -82 41 q-10 -14 -24 -25q41 -27 41 -82q0 -47 -29 -72.5t-70 -25.5q-53 0 -81 41q-10 -14 -25 -25q41 -27 41 -82q0 -47 -28.5 -72.5t-69.5 -25.5q-53 0 -82 41q-10 -14 -25 -25q41 -27 41 -82q0 -47 -28.5 -72.5t-69.5 -25.5q-39 0 -69 25.5t-30 72.5q0 55 41 82q-14 10 -24 25 q-27 -41 -82 -41q-39 0 -68.5 25.5t-29.5 72.5q0 55 41 82q-14 10 -25 25q-27 -41 -82 -41q-39 0 -68.5 25.5t-29.5 72.5q0 55 41 82q-14 10 -25 25q-27 -41 -82 -41q-39 0 -68.5 25.5t-29.5 72.5z" />
<glyph unicode="W" horiz-adv-x="1550" d="M111 264q0 55 41 82q-41 27 -41 82t41 82q-41 27 -41 82t41 82q-41 27 -41 82t41 82q-41 27 -41 82t41 81q-41 27 -41 82t41 82q-41 27 -41 82q0 47 28.5 73t69.5 26q53 0 82 -41q27 41 82 41q39 0 68.5 -26t29.5 -73q0 -55 -41 -82q41 -27 41 -82t-41 -82q41 -27 41 -81 q0 -55 -41 -82q41 -27 41 -82t-41 -82q41 -27 41 -82t-41 -82q41 -27 41 -82t-41 -82q41 -27 41 -82t-41 -82q14 -10 25 -24q27 41 82 41q53 0 81 -41q10 14 25 24q-41 27 -41 82t41 82q-41 27 -41 82t41 82q-41 27 -41 82t41 82q-41 27 -41 82q0 47 28.5 72.5t69.5 25.5 q53 0 82 -41q27 41 82 41q39 0 69 -25.5t30 -72.5q0 -55 -41 -82q41 -27 41 -82t-41 -82q41 -27 41 -82t-41 -82q41 -27 41 -82t-41 -82q14 -10 24 -24q27 41 82 41q53 0 82 -41q10 14 25 24q-41 27 -41 82t41 82q-41 27 -41 82t41 82q-41 27 -41 82t41 82q-41 27 -41 82 t41 82q-41 27 -41 82t41 81q-41 27 -41 82t41 82q-41 27 -41 82q0 47 28.5 73t69.5 26q53 0 82 -41q27 41 82 41q39 0 68.5 -26t29.5 -73q0 -55 -41 -82q41 -27 41 -82t-41 -82q41 -27 41 -81q0 -55 -41 -82q41 -27 41 -82t-41 -82q41 -27 41 -82t-41 -82q41 -27 41 -82 t-41 -82q41 -27 41 -82t-41 -82q41 -27 41 -82q0 -47 -29.5 -72.5t-68.5 -25.5q-55 0 -82 41q-29 -41 -82 -41q-55 0 -82 41q-29 -41 -82 -41q-55 0 -82 41q-29 -41 -82 -41q-55 0 -82 41q-29 -41 -82 -41q-55 0 -82 41q-29 -41 -81 -41q-55 0 -82 41q-29 -41 -84 -41 q-39 0 -68 25.5t-29 72.5q0 55 41 82q-14 10 -24 25q-29 -41 -84 -41q-39 0 -67.5 25.5t-28.5 72.5z" />
<glyph unicode="X" horiz-adv-x="1425" d="M96 100q0 55 41 82q-41 27 -41 82t41 82q-41 27 -41 82q0 47 29 72.5t70 25.5q53 0 79 -41q10 14 27 25q-41 27 -41 82q0 47 28.5 72.5t69.5 25.5q53 0 80 -41q10 14 27 25q-41 27 -41 82t41 82q-16 10 -27 24q-27 -41 -82 -41q-39 0 -67.5 25.5t-28.5 73.5q0 55 41 81 q-16 10 -27 25q-27 -41 -81 -41q-39 0 -68 25.5t-29 72.5q0 55 41 82q-41 27 -41 82q0 47 29 73t70 26q53 0 79 -41q29 41 84 41q39 0 68 -26t29 -73q0 -55 -41 -82q41 -27 41 -82t-41 -82q16 -10 24 -24q29 41 84 41q39 0 67.5 -25.5t28.5 -72.5q0 -55 -40 -82 q16 -10 24 -25q29 41 82 41q55 0 82 -41q10 14 27 25q-41 27 -41 82q0 47 28.5 72.5t69.5 25.5q53 0 80 -41q10 14 26 24q-41 27 -41 82t41 82q-41 27 -41 82q0 47 29 73t70 26q53 0 80 -41q29 41 84 41q39 0 67.5 -26t28.5 -73q0 -55 -41 -82q41 -27 41 -82 q0 -47 -28.5 -72.5t-69.5 -25.5q-53 0 -82 41q-8 -14 -25 -25q41 -27 41 -81q0 -47 -28.5 -73t-69.5 -26q-53 0 -82 41q-8 -14 -25 -24q41 -27 41 -82t-41 -82q16 -10 25 -25q29 41 84 41q39 0 67.5 -25.5t28.5 -72.5q0 -55 -41 -82q16 -10 25 -25q29 41 84 41 q39 0 67.5 -25.5t28.5 -72.5q0 -55 -41 -82q41 -27 41 -82t-41 -82q41 -27 41 -82q0 -47 -28.5 -72.5t-69.5 -25.5q-53 0 -82 41q-27 -41 -82 -41q-39 0 -68 25.5t-29 72.5q0 55 41 82q-41 27 -41 82t41 82q-41 27 -41 82t41 82q-16 10 -26 25q-27 -41 -82 -41 q-39 0 -67.5 25.5t-28.5 72.5q0 55 41 82q-16 10 -27 24q-27 -41 -82 -41q-53 0 -82 41q-8 -14 -24 -24q40 -26 40 -79q0 -50 -28.5 -75.5t-69.5 -25.5q-53 0 -82 41q-8 -14 -24 -25q41 -27 41 -82t-41 -82q41 -27 41 -82t-41 -82q41 -27 41 -82q0 -47 -29 -72.5t-70 -25.5 q-53 0 -82 41q-27 -41 -81 -41q-39 0 -68 25.5t-29 72.5z" />
<glyph unicode="Y" horiz-adv-x="1351" d="M76 100q0 47 29.5 73t68.5 26q55 0 82 -41q29 41 82 41q55 0 82 -41q29 41 82 41q55 0 82 -41q29 41 82 41q55 0 82 -41q29 41 81 41q55 0 82 -41q10 14 25 24q-41 27 -41 82t41 82q-41 27 -41 82t41 82q-41 27 -41 82t41 82q-14 10 -25 24q-27 -41 -82 -41q-53 0 -81 41 q-27 -41 -82 -41q-53 0 -82 41q-27 -41 -82 -41q-53 0 -82 41q-27 -41 -82 -41q-39 0 -68.5 26t-29.5 73q0 55 41 82q-14 10 -25 24q-27 -41 -82 -41q-39 0 -68.5 25.5t-29.5 73.5q0 55 41 81q-41 27 -41 82t41 82q-41 27 -41 82q0 47 29.5 73t68.5 26q55 0 82 -41 q29 41 82 41q41 0 69.5 -26t28.5 -73q0 -55 -41 -82q41 -27 41 -82t-41 -82q41 -27 41 -81q0 -55 -41 -82q14 -10 25 -25q29 41 82 41q55 0 82 -41q29 41 82 41q55 0 82 -41q29 41 81 41q55 0 82 -41q10 14 25 25q-41 27 -41 82t41 81q-41 27 -41 82t41 82q-41 27 -41 82 q0 47 29.5 73t68.5 26q55 0 82 -41q29 41 82 41q41 0 69.5 -26t28.5 -73q0 -55 -41 -82q41 -27 41 -82t-41 -82q41 -27 41 -81q0 -55 -41 -82q41 -27 41 -82t-41 -82q41 -27 41 -82t-41 -82q41 -27 41 -82t-41 -82q41 -27 41 -82q0 -47 -28.5 -72.5t-69.5 -25.5 q-53 0 -82 41q-10 -14 -24 -25q41 -27 41 -82q0 -47 -29 -72.5t-70 -25.5q-53 0 -82 41q-27 -41 -82 -41q-53 0 -81 41q-27 -41 -82 -41q-53 0 -82 41q-27 -41 -82 -41q-53 0 -82 41q-27 -41 -82 -41q-53 0 -82 41q-28 -41 -77 -41h-5q-98 0 -98 98z" />
<glyph unicode="Z" horiz-adv-x="1361" d="M49 100q0 55 41 82q-41 27 -41 82q0 47 28.5 72.5t69.5 25.5q53 0 82 -40q8 14 25 24q-41 27 -41 82q0 47 28.5 72.5t69.5 25.5q53 0 82 -41q8 14 25 25q-41 27 -41 82q0 47 28.5 72.5t69.5 25.5q53 0 82 -41q8 14 25 25q-41 27 -41 82q0 47 28.5 72.5t69.5 25.5 q53 0 82 -41q8 14 24 25q-40 26 -40 79q0 50 28.5 75.5t69.5 25.5q53 0 82 -41q8 14 24 24q-41 27 -41 82t41 82q-16 10 -24 25q-29 -41 -82 -41q-55 0 -82 41q-29 -41 -82 -41q-55 0 -82 41q-29 -41 -82 -41q-55 0 -82 41q-29 -41 -82 -41q-55 0 -82 41q-28 -41 -79 -41h-5 q-96 0 -96 98q0 47 28.5 73t69.5 26q53 0 82 -41q27 41 82 41q53 0 82 -41q27 41 82 41q53 0 82 -41q27 41 82 41q53 0 82 -41q27 41 82 41q53 0 82 -41q27 41 82 41q53 0 82 -41q27 41 81 41q39 0 69 -26t30 -73q0 -55 -41 -82q41 -27 41 -82q0 -47 -30 -72.5t-69 -25.5 q-55 0 -81 41q-10 -14 -25 -25q41 -27 41 -81q0 -47 -29.5 -73t-68.5 -26q-55 0 -82 41q-10 -14 -25 -24q41 -27 41 -82q0 -47 -29.5 -73t-68.5 -26q-55 0 -82 41q-10 -14 -25 -24q41 -27 41 -82q0 -47 -29.5 -72.5t-68.5 -25.5q-55 0 -82 41q-10 -14 -25 -25q41 -27 41 -82 q0 -47 -29.5 -72.5t-68.5 -25.5q-55 0 -82 41q-10 -14 -24 -25q41 -27 41 -82t-41 -82q14 -10 24 -24q27 41 82 41q53 0 82 -41q27 41 82 41q53 0 82 -41q27 41 82 41q53 0 82 -41q27 41 82 41q53 0 82 -41q27 41 81 41q39 0 69 -26t30 -73t-30 -72.5t-69 -25.5 q-55 0 -81 41q-29 -41 -82 -41q-55 0 -82 41q-29 -41 -82 -41q-55 0 -82 41q-29 -41 -82 -41q-55 0 -82 41q-29 -41 -82 -41q-55 0 -82 41q-29 -41 -82 -41q-55 0 -82 41q-29 -41 -84 -41q-39 0 -67.5 25.5t-28.5 72.5z" />
<glyph unicode="[" horiz-adv-x="718" d="M98 100q0 55 41 82q-41 27 -41 82t41 82q-41 27 -41 82t41 82q-41 27 -41 82t41 82q-41 27 -41 82t41 82q-41 27 -41 82t41 81q-41 27 -41 82t41 82q-41 27 -41 82q0 47 30 73t69 26q55 0 82 -41q29 41 81 41q55 0 82 -41q29 41 82 41q41 0 70 -26t29 -73t-29 -72.5 t-70 -25.5q-53 0 -82 41q-10 -14 -24 -25q41 -27 41 -82t-41 -82q41 -27 41 -81q0 -55 -41 -82q41 -27 41 -82t-41 -82q41 -27 41 -82t-41 -82q41 -27 41 -82t-41 -82q41 -27 41 -82t-41 -82q14 -10 24 -24q29 41 82 41q41 0 70 -26t29 -73t-29 -72.5t-70 -25.5 q-53 0 -82 41q-27 -41 -82 -41q-52 0 -81 41q-27 -41 -82 -41q-39 0 -69 25.5t-30 72.5z" />
<glyph unicode="\" horiz-adv-x="1249" d="M10 1083q0 55 41 82q-41 27 -41 82q0 47 29 73t70 26q39 0 68.5 -26t29.5 -73q0 -55 -41 -82q14 -10 24 -24q27 41 82 41q41 0 70 -26t29 -73q0 -55 -41 -82q14 -10 24 -24q27 41 82 41q41 0 70 -25.5t29 -72.5q0 -55 -41 -82q14 -10 24 -25q27 41 82 41q41 0 69.5 -25.5 t28.5 -72.5q0 -55 -41 -82q14 -10 25 -25q27 41 82 41q41 0 69.5 -25.5t28.5 -72.5q0 -55 -41 -82q14 -10 25 -25q27 41 82 41q41 0 69.5 -25.5t28.5 -72.5q0 -55 -41 -82q14 -10 25 -24q27 41 82 40q41 0 69.5 -25.5t28.5 -72.5q0 -55 -41 -82q41 -27 41 -82 q0 -47 -30 -72.5t-68 -25.5q-41 0 -70 25.5t-29 72.5q0 55 41 82q-14 10 -24 25q-29 -41 -82 -41q-41 0 -70 25.5t-29 72.5q0 55 41 82q-14 10 -24 25q-29 -41 -82 -41q-41 0 -69.5 25.5t-28.5 72.5q0 55 41 82q-14 10 -25 25q-29 -41 -82 -41q-41 0 -69.5 25.5t-28.5 72.5 q0 55 41 82q-14 10 -25 24q-29 -41 -82 -41q-41 0 -69.5 26t-28.5 73q0 55 41 82q-14 10 -25 24q-29 -41 -82 -41q-41 0 -69.5 25.5t-28.5 73.5q0 55 41 81q-14 10 -25 25q-29 -41 -81 -41q-41 0 -70 25.5t-29 72.5z" />
<glyph unicode="]" horiz-adv-x="718" d="M98 100q0 47 30 73t69 26q55 0 82 -41q10 14 24 24q-41 27 -41 82t41 82q-41 27 -41 82t41 82q-41 27 -41 82t41 82q-41 27 -41 82t41 82q-41 27 -41 82t41 81q-41 27 -41 82t41 82q-14 10 -24 25q-27 -41 -82 -41q-39 0 -69 25.5t-30 72.5t30 73t69 26q55 0 82 -41 q29 41 81 41q55 0 82 -41q29 41 82 41q41 0 70 -26t29 -73q0 -55 -41 -82q41 -27 41 -82t-41 -82q41 -27 41 -81q0 -55 -41 -82q41 -27 41 -82t-41 -82q41 -27 41 -82t-41 -82q41 -27 41 -82t-41 -82q41 -27 41 -82t-41 -82q41 -27 41 -82q0 -47 -29 -72.5t-70 -25.5 q-53 0 -82 41q-27 -41 -82 -41q-52 0 -81 41q-27 -41 -82 -41q-39 0 -69 25.5t-30 72.5z" />
<glyph unicode="^" horiz-adv-x="1011" d="M76 920q0 47 29.5 72.5t68.5 25.5q55 0 82 -41q10 14 25 24q-41 27 -41 82q0 47 29.5 73t68.5 26q55 0 82 -41q10 14 24 24q-41 27 -41 82q0 47 30 73t69 26q41 0 69.5 -26t28.5 -73q0 -55 -41 -82q14 -10 25 -24q29 41 82 41q41 0 69.5 -26t28.5 -73q0 -55 -41 -82 q14 -10 25 -24q29 41 83 41q39 0 68 -25.5t29 -72.5t-29 -73t-70 -26q-53 0 -81 41q-27 -41 -82 -41q-39 0 -69 25.5t-30 73.5q0 55 41 81q-14 10 -24 25q-27 -41 -82 -41q-53 0 -82 41q-10 -14 -25 -25q41 -27 41 -81q0 -47 -28.5 -73t-69.5 -26q-53 0 -82 41 q-27 -43 -82 -41q-98 0 -98 99z" />
<glyph unicode="_" horiz-adv-x="1273" d="M49 -227q0 47 30 72.5t68 25.5q55 0 82 -41q29 41 82 41q55 0 82 -41q29 41 82 41q55 0 82 -41q29 41 82 41q55 0 82 -41q29 41 82 41q55 0 82 -41q29 41 82 41q55 0 82 -41q29 41 84 41q39 0 67.5 -25.5t28.5 -72.5t-29 -73t-70 -26q-53 0 -81 41q-27 -41 -82 -41 q-53 0 -82 41q-27 -41 -82 -41q-53 0 -82 41q-27 -41 -82 -41q-53 0 -82 41q-27 -41 -82 -41q-53 0 -82 41q-27 -41 -82 -41q-53 0 -82 41q-27 -43 -82 -41q-98 0 -98 99z" />
<glyph unicode="`" horiz-adv-x="659" d="M96 1247q0 47 29 73t70 26q53 0 81 -41q27 41 82 41q39 0 68 -26t29 -73q0 -55 -41 -82q16 -10 26 -24q27 41 82 41q39 0 67.5 -26t28.5 -73t-28.5 -72.5t-69.5 -25.5q-53 0 -80 41q-29 -41 -84 -41q-39 0 -67.5 25.5t-28.5 72.5q0 55 41 82q-16 10 -25 25 q-29 -43 -83 -41q-96 0 -97 98z" />
<glyph unicode="a" horiz-adv-x="1335" d="M90 264q0 55 41 82q-41 27 -41 82q0 47 30 72.5t68 25.5q55 0 82 -41q10 14 25 25q-41 27 -41 82q0 47 29.5 72.5t68.5 25.5q55 0 82 -41q29 41 82 41q55 0 82 -41q29 41 82 41q55 0 82 -41q29 41 82 41q55 0 82 -41q10 14 24 25q-41 27 -41 82t41 82q-14 10 -24 24 q-27 -41 -82 -41q-53 0 -82 41q-27 -41 -82 -41q-53 0 -82 41q-27 -41 -82 -41q-53 0 -82 41q-27 -41 -82 -41q-53 0 -82 41q-28 -41 -79 -41h-5q-96 0 -96 99q0 47 30 72.5t68 25.5q55 0 82 -41q29 41 82 41q55 0 82 -41q29 41 82 41q55 0 82 -41q29 41 82 41q55 0 82 -41 q29 41 82 41q55 0 82 -41q29 41 82 41q41 0 69.5 -25.5t28.5 -72.5q0 -55 -41 -82q14 -10 25 -25q29 41 81 41q41 0 70 -25.5t29 -72.5q0 -55 -41 -82q41 -27 41 -82t-41 -82q41 -27 41 -82t-41 -82q41 -27 41 -82t-41 -82q41 -27 41 -82q0 -47 -30 -72.5t-69 -25.5 q-53 0 -81 41q-27 -41 -82 -41q-53 0 -82 41q-27 -41 -82 -41q-53 0 -82 41q-27 -41 -82 -41q-53 0 -82 41q-27 -41 -82 -41q-53 0 -82 41q-27 -41 -82 -41q-39 0 -68.5 25.5t-29.5 72.5q0 55 41 82q-14 10 -25 25q-27 -41 -82 -41q-39 0 -68.5 25.5t-29.5 72.5zM410 182 q14 -10 24 -24q29 41 82 41q55 0 82 -41q29 41 82 41q55 0 82 -41q29 41 82 41q55 0 82 -41q10 14 24 24q-41 27 -41 82t41 82q-41 27 -41 82t41 82q-14 10 -24 25q-27 -41 -82 -41q-53 0 -82 41q-27 -41 -82 -41q-53 0 -82 41q-27 -41 -82 -41q-53 0 -82 41 q-10 -14 -24 -25q41 -27 41 -82t-41 -82q41 -27 41 -82t-41 -82z" />
<glyph unicode="b" horiz-adv-x="1316" d="M74 100q0 55 41 82q-41 27 -41 82t41 82q-41 27 -41 82t41 82q-41 27 -41 82q0 47 28.5 72.5t69.5 25.5q53 0 82 -41q27 41 82 41q39 0 67.5 -25.5t28.5 -72.5q0 -55 -39 -82q39 -27 39 -82t-39 -82q39 -27 39 -82t-39 -82q14 -10 25 -24q27 41 82 41q53 0 82 -41 q27 41 82 41q53 0 81 -41q27 41 82 41q53 0 82 -41q8 14 25 24q-41 27 -41 82t41 82q-41 27 -41 82t41 82q-41 27 -41 82t41 82q-41 27 -41 82t41 82q-16 10 -25 24q-29 -41 -82 -41q-55 0 -82 41q-29 -41 -81 -41q-55 0 -82 41q-29 -41 -82 -41q-55 0 -82 41 q-29 -41 -82 -41q-55 0 -82 41q-29 -41 -84 -41q-39 0 -67.5 25.5t-28.5 73.5q0 55 41 81q-41 27 -41 82t41 82q-41 27 -41 82q0 47 28.5 73t69.5 26q53 0 82 -41q27 41 82 41q39 0 67.5 -26t28.5 -73q0 -55 -39 -82q39 -27 39 -82t-39 -82q14 -10 25 -24q27 41 82 41 q53 0 82 -41q27 41 82 41q53 0 81 -41q27 41 82 41q53 0 82 -41q27 41 82 41q39 0 67.5 -25.5t28.5 -72.5q0 -55 -38 -82q14 -10 24 -25q27 41 82 41q39 0 67.5 -25.5t28.5 -72.5q0 -55 -39 -82q39 -27 39 -82t-39 -82q39 -27 39 -82t-39 -82q39 -27 39 -82 q0 -47 -28.5 -72.5t-69.5 -25.5q-53 0 -80 41q-10 -14 -24 -25q38 -26 38 -79q0 -50 -28.5 -75.5t-67.5 -25.5q-55 0 -82 41q-29 -41 -82 -41q-55 0 -82 41q-29 -41 -81 -41q-55 0 -82 41q-29 -41 -82 -41q-55 0 -82 41q-29 -41 -82 -41q-55 0 -82 41q-29 -41 -84 -41 q-39 0 -67.5 25.5t-28.5 72.5z" />
<glyph unicode="c" horiz-adv-x="1312" d="M49 264q0 55 41 82q-41 27 -41 82t41 82q-41 27 -41 82t41 82q-41 27 -41 82q0 47 28.5 72.5t69.5 25.5q53 0 82 -41q8 14 25 25q-41 27 -41 82q0 47 28.5 72.5t69.5 25.5q53 0 82 -41q27 41 82 41q53 0 82 -41q27 41 82 41q53 0 82 -41q27 41 82 41q53 0 82 -41 q27 41 82 41q53 0 82 -41q27 41 81 41q39 0 69 -25.5t30 -72.5t-30 -73t-69 -26q-55 0 -81 41q-29 -41 -82 -41q-55 0 -82 41q-29 -41 -82 -41q-55 0 -82 41q-29 -41 -82 -41q-55 0 -82 41q-29 -41 -82 -41q-55 0 -82 41q-10 -14 -24 -24q41 -27 41 -82t-41 -82 q41 -27 41 -82t-41 -82q41 -27 41 -82t-41 -82q41 -27 41 -82t-41 -82q14 -10 24 -24q27 41 82 41q53 0 82 -41q27 41 82 41q53 0 82 -41q27 41 82 41q53 0 82 -41q27 41 82 41q53 0 82 -41q27 41 81 41q39 0 69 -26t30 -73t-30 -72.5t-71 -25.5q-53 0 -79 41 q-29 -41 -82 -41q-55 0 -82 41q-29 -41 -82 -41q-55 0 -82 41q-29 -41 -82 -41q-55 0 -82 41q-29 -41 -82 -41q-55 0 -82 41q-29 -41 -84 -41q-39 0 -67.5 25.5t-28.5 72.5q0 55 41 82q-16 10 -25 25q-29 -41 -82 -41q-41 0 -69.5 25.5t-28.5 72.5z" />
<glyph unicode="d" horiz-adv-x="1345" d="M74 264q0 55 41 82q-41 27 -41 82t41 82q-41 27 -41 82t41 82q-41 27 -41 82q0 47 28.5 72.5t69.5 25.5q53 0 82 -41q8 14 25 25q-41 27 -41 82q0 47 28.5 72.5t69.5 25.5q53 0 82 -41q27 41 82 41q53 0 82 -41q27 41 82 41q53 0 81 -41q27 41 82 41q53 0 82 -41 q8 14 25 24q-41 27 -41 82t41 82q-41 27 -41 82q0 47 28.5 73t69.5 26q53 0 82 -41q27 41 82 41q39 0 67.5 -26t28.5 -73q0 -55 -39 -82q39 -27 39 -82t-39 -82q39 -27 39 -81q0 -47 -28.5 -73t-69.5 -26q-53 0 -80 41q-29 -41 -82 -41q-55 0 -82 41q-29 -41 -82 -41 q-55 0 -82 41q-29 -41 -81 -41q-55 0 -82 41q-29 -41 -82 -41q-55 0 -82 41q-10 -14 -25 -24q39 -27 39 -82t-39 -82q39 -27 39 -82t-39 -82q39 -27 39 -82t-39 -82q39 -27 39 -82t-39 -82q14 -10 25 -24q27 41 82 41q53 0 82 -41q27 41 82 41q53 0 81 -41q27 41 82 41 q53 0 82 -41q8 14 25 24q-41 27 -41 82t41 82q-41 27 -41 82t41 82q-41 27 -41 82q0 47 28.5 72.5t69.5 25.5q53 0 82 -41q27 41 82 41q39 0 67.5 -25.5t28.5 -72.5q0 -55 -39 -82q39 -27 39 -82t-39 -82q39 -27 39 -82t-39 -82q39 -27 39 -82q0 -47 -28.5 -72.5 t-67.5 -25.5q-55 0 -82 41q-29 -41 -82 -41q-55 0 -82 41q-29 -41 -82 -41q-55 0 -82 41q-29 -41 -81 -41q-55 0 -82 41q-29 -41 -82 -41q-55 0 -82 41q-29 -41 -84 -41q-39 0 -67.5 25.5t-28.5 72.5q0 55 41 82q-16 10 -25 25q-29 -41 -82 -41q-41 0 -69.5 25.5t-28.5 72.5 z" />
<glyph unicode="e" horiz-adv-x="1318" d="M76 264q0 55 41 82q-41 27 -41 82t41 82q-41 27 -41 82t41 82q-41 27 -41 82q0 47 28.5 72.5t69.5 25.5q53 0 82 -41q8 14 25 25q-41 27 -41 82q0 47 28.5 72.5t69.5 25.5q53 0 82 -41q27 41 82 41q53 0 82 -41q27 41 82 41q53 0 82 -41q27 41 81 41q53 0 82 -41 q27 41 82 41q39 0 69 -25.5t30 -72.5q0 -55 -41 -82q14 -10 24 -25q27 41 82 41q39 0 68.5 -25.5t29.5 -72.5q0 -55 -41 -82q41 -27 41 -82q0 -47 -29.5 -72.5t-70.5 -25.5q-53 0 -80 41q-29 -41 -82 -41q-55 0 -82 41q-29 -41 -82 -41q-55 0 -81 41q-29 -41 -82 -41 q-55 0 -82 41q-29 -41 -82 -41q-55 0 -82 41q-10 -14 -25 -25q41 -27 41 -82t-41 -82q41 -27 41 -82t-41 -82q14 -10 25 -24q27 41 82 41q53 0 82 -41q27 41 82 41q53 0 82 -41q27 41 81 41q53 0 82 -41q27 41 82 41q53 0 82 -41q27 41 82 41q39 0 68.5 -26t29.5 -73 t-29.5 -72.5t-68.5 -25.5q-55 0 -82 41q-29 -41 -82 -41q-55 0 -82 41q-29 -41 -82 -41q-55 0 -81 41q-29 -41 -82 -41q-55 0 -82 41q-29 -41 -82 -41q-55 0 -82 41q-29 -41 -84 -41q-39 0 -67.5 25.5t-28.5 72.5q0 55 41 82q-16 10 -25 25q-29 -41 -82 -41 q-41 0 -69.5 25.5t-28.5 72.5zM395 674q14 -10 25 -25q27 41 82 41q53 0 82 -41q27 41 82 41q53 0 82 -41q27 41 81 41q53 0 82 -41q8 14 25 25q-41 27 -41 82t41 82q-16 10 -25 24q-29 -41 -82 -41q-55 0 -81 41q-29 -41 -82 -41q-55 0 -82 41q-29 -41 -82 -41 q-55 0 -82 41q-10 -14 -25 -24q41 -27 41 -82t-41 -82z" />
<glyph unicode="f" horiz-adv-x="1216" d="M37 100q0 55 41 82q-41 27 -41 82t41 82q-41 27 -41 82t41 82q-41 27 -41 82t41 82q-41 27 -41 82t41 82q-41 27 -41 82t41 81q-41 27 -41 82q0 47 29.5 73t68.5 26q55 0 82 -41q10 14 25 24q-41 27 -41 82q0 47 29.5 73t68.5 26q55 0 82 -41q29 41 82 41q55 0 82 -41 q29 41 82 41q55 0 82 -41q29 41 82 41q55 0 81 -41q29 41 82 41q55 0 82 -41q29 41 82 41q41 0 70 -26t29 -73t-29 -72.5t-70 -25.5q-53 0 -82 41q-27 -41 -82 -41q-53 0 -82 41q-27 -41 -81 -41q-53 0 -82 41q-27 -41 -82 -41q-53 0 -82 41q-27 -41 -82 -41q-53 0 -82 41 q-10 -14 -25 -25q41 -27 41 -82t-41 -82q14 -10 25 -24q29 41 82 41q55 0 82 -41q29 41 82 41q55 0 82 -41q29 41 82 41q41 0 69.5 -25.5t28.5 -72.5t-29 -73t-69 -26q-53 0 -82 41q-27 -41 -82 -41q-53 0 -82 41q-27 -41 -82 -41q-53 0 -82 41q-10 -14 -25 -24 q41 -27 41 -82t-41 -82q41 -27 41 -82t-41 -82q41 -27 41 -82t-41 -82q41 -27 41 -82t-41 -82q41 -27 41 -82q0 -47 -28.5 -72.5t-69.5 -25.5q-53 0 -82 41q-27 -41 -82 -41q-39 0 -68.5 25.5t-29.5 72.5z" />
<glyph unicode="g" horiz-adv-x="1353" d="M90 -227q0 47 28.5 72.5t69.5 25.5q53 0 82 -41q27 41 82 41q53 0 82 -41q27 41 82 41q53 0 82 -41q27 41 82 41q53 0 82 -41q27 41 82 41q53 0 82 -41q8 14 24 25q-41 27 -41 82t41 81q-16 10 -24 25q-29 -41 -82 -41q-55 0 -82 41q-29 -41 -82 -41q-55 0 -82 41 q-29 -41 -82 -41q-55 0 -82 41q-29 -41 -82 -41q-41 0 -69.5 25.5t-28.5 72.5q0 55 41 82q-16 10 -25 25q-29 -41 -82 -41q-41 0 -69.5 25.5t-28.5 72.5q0 55 41 82q-41 27 -41 82t41 82q-41 27 -41 82t41 82q-41 27 -41 82q0 47 28.5 72.5t69.5 25.5q53 0 82 -41 q8 14 25 25q-41 27 -41 82q0 47 28.5 72.5t69.5 25.5q53 0 82 -41q27 41 82 41q53 0 82 -41q27 41 82 41q53 0 82 -41q27 41 82 41q53 0 82 -41q27 41 82 41q53 0 82 -41q27 41 81 41q39 0 68 -25.5t29 -72.5q0 -55 -41 -82q41 -27 41 -82t-41 -82q41 -27 41 -82t-41 -82 q41 -27 41 -82q0 -47 -29 -72.5t-68 -25.5q-55 0 -81 41q-29 -41 -82 -41q-41 0 -70 25.5t-29 72.5q0 55 41 82q-41 27 -41 82t41 82q-41 27 -41 82t41 82q-16 10 -24 24q-29 -41 -82 -41q-55 0 -82 41q-29 -41 -82 -41q-55 0 -82 41q-29 -41 -82 -41q-55 0 -82 41 q-10 -14 -26 -24q41 -27 41 -82t-41 -82q41 -27 41 -82t-41 -82q41 -27 41 -82t-41 -82q41 -27 41 -82t-41 -82q16 -10 26 -24q27 41 82 41q53 0 82 -41q27 41 82 41q53 0 82 -41q27 41 82 41q53 0 82 -41q27 41 82 41q53 0 82 -41q27 41 81 41q39 0 68 -26t29 -73 q0 -55 -41 -82q41 -27 41 -81q0 -47 -29 -73t-68 -26q-55 0 -81 41q-10 -14 -27 -24q41 -27 41 -82q0 -47 -28.5 -73t-67.5 -26q-55 0 -82 41q-29 -41 -82 -41q-55 0 -82 41q-29 -41 -82 -41q-55 0 -82 41q-29 -41 -82 -41q-55 0 -82 41q-29 -41 -82 -41q-55 0 -82 41 q-29 -41 -84 -41q-39 0 -67.5 26t-28.5 73z" />
<glyph unicode="h" horiz-adv-x="1329" d="M86 100q0 55 41 82q-41 27 -41 82t41 82q-41 27 -41 82t41 82q-41 27 -41 82t41 82q-41 27 -41 82t41 82q-41 27 -41 82t41 81q-41 27 -41 82t41 82q-41 27 -41 82q0 47 28.5 73t69.5 26q53 0 82 -41q27 41 82 41q39 0 67.5 -26t28.5 -73q0 -55 -41 -82q41 -27 41 -82 t-41 -82q16 -10 27 -24q27 41 82 41q53 0 82 -41q27 41 82 41q53 0 82 -41q27 41 82 41q53 0 82 -41q27 41 82 41q39 0 67.5 -25.5t28.5 -72.5q0 -55 -41 -82q16 -10 26 -25q27 41 82 41q39 0 68 -25.5t29 -72.5q0 -55 -41 -82q41 -27 41 -82t-41 -82q41 -27 41 -82t-41 -82 q41 -27 41 -82t-41 -82q41 -27 41 -82q0 -47 -29 -72.5t-70 -25.5q-53 0 -80 41q-29 -41 -84 -41q-39 0 -67.5 25.5t-28.5 72.5q0 55 41 82q-41 27 -41 82t41 82q-41 27 -41 82t41 82q-41 27 -41 82t41 82q-41 27 -41 82t41 82q-16 10 -24 24q-29 -41 -82 -41q-55 0 -82 41 q-29 -41 -82 -41q-55 0 -82 41q-29 -41 -82 -41q-55 0 -82 41q-10 -14 -27 -24q41 -27 41 -82t-41 -82q41 -27 41 -82t-41 -82q41 -27 41 -82t-41 -82q41 -27 41 -82t-41 -82q41 -27 41 -82q0 -47 -28.5 -72.5t-69.5 -25.5q-53 0 -80 41q-29 -41 -84 -41q-39 0 -67.5 25.5 t-28.5 72.5z" />
<glyph unicode="i" horiz-adv-x="681" d="M35 920q0 47 29.5 72.5t68.5 25.5q55 0 82 -41q29 41 82 41q55 0 82 -41q29 41 82 41q41 0 69.5 -25.5t28.5 -72.5q0 -55 -41 -82q41 -27 41 -82t-41 -82q41 -27 41 -82t-41 -82q41 -27 41 -82t-41 -82q41 -27 41 -82t-41 -82q41 -27 41 -82q0 -47 -28.5 -72.5 t-69.5 -25.5q-53 0 -82 41q-27 -41 -82 -41q-39 0 -68.5 25.5t-29.5 72.5q0 55 41 82q-41 27 -41 82t41 82q-41 27 -41 82t41 82q-41 27 -41 82t41 82q-41 27 -41 82t41 82q-14 10 -25 24q-27 -41 -82 -41q-39 0 -68.5 25.5t-29.5 73.5zM199 1247q0 47 29.5 73t68.5 26 q55 0 82 -41q29 41 82 41q41 0 69.5 -26t28.5 -73t-28.5 -72.5t-69.5 -25.5q-53 0 -82 41q-27 -41 -82 -41q-39 0 -68.5 25.5t-29.5 72.5z" />
<glyph unicode="j" horiz-adv-x="759" d="M-23 -227q0 47 30 72.5t69 25.5q55 0 82 -41q10 14 24 25q-41 27 -41 82q0 47 30 72.5t69 25.5q55 0 82 -41q10 14 24 24q-41 27 -41 82t41 82q-41 27 -41 82t41 82q-41 27 -41 82t41 82q-41 27 -41 82t41 82q-41 27 -41 82t41 82q-14 10 -24 24q-27 -41 -82 -41 q-39 0 -69 25.5t-30 73.5q0 47 30 72.5t69 25.5q55 0 82 -41q29 41 81 41q55 0 82 -41q29 41 82 41q41 0 70 -25.5t29 -72.5q0 -55 -41 -82q41 -27 41 -82t-41 -82q41 -27 41 -82t-41 -82q41 -27 41 -82t-41 -82q41 -27 41 -82t-41 -82q41 -27 41 -82q0 -47 -29 -72.5 t-70 -25.5q-53 0 -82 41q-10 -14 -24 -25q41 -27 41 -81q0 -47 -30 -73t-69 -26q-53 0 -81 41q-10 -14 -25 -24q41 -27 41 -82q0 -47 -28.5 -73t-69.5 -26q-53 0 -82 41q-27 -41 -82 -41q-39 0 -69 26t-30 73zM305 1247q0 47 30 73t68 26q55 0 82 -41q29 41 82 41 q41 0 70 -26t29 -73t-29 -72.5t-70 -25.5q-53 0 -82 41q-27 -41 -82 -41q-39 0 -68.5 25.5t-29.5 72.5z" />
<glyph unicode="k" horiz-adv-x="1310" d="M68 100q0 55 41 82q-41 27 -41 82t41 82q-41 27 -41 82t41 82q-41 27 -41 82t41 82q-41 27 -41 82t41 82q-41 27 -41 82t41 81q-41 27 -41 82t41 82q-41 27 -41 82q0 47 28.5 73t69.5 26q53 0 82 -41q27 41 82 41q39 0 68.5 -26t29.5 -73q0 -55 -41 -82q41 -27 41 -82 t-41 -82q41 -27 41 -81q0 -55 -41 -82q41 -27 41 -82t-41 -82q14 -10 25 -25q27 41 82 41q53 0 81 -41q8 14 25 25q-41 27 -41 82q0 47 28.5 72.5t69.5 25.5q53 0 82 -41q8 14 25 25q-41 27 -41 82q0 47 28.5 72.5t69.5 25.5q53 0 82 -41q27 41 82 41q39 0 68.5 -25.5 t29.5 -72.5t-29.5 -73t-70.5 -26q-53 0 -80 41q-10 -14 -24 -24q41 -27 41 -82q0 -47 -30 -73t-69 -26q-55 0 -82 41q-10 -14 -24 -24q41 -27 41 -82t-41 -82q14 -10 24 -25q27 41 82 41q39 0 69 -25.5t30 -72.5q0 -55 -41 -82q14 -10 24 -24q26 40 79 40h3q39 0 68.5 -25.5 t29.5 -72.5q0 -55 -41 -82q14 -10 25 -24q27 41 82 41q39 0 68.5 -26t29.5 -73t-29.5 -72.5t-68.5 -25.5q-55 0 -82 41q-29 -41 -84 -41q-39 0 -67.5 25.5t-28.5 72.5q0 55 41 82q-16 10 -25 25q-29 -41 -82 -41q-41 0 -69.5 25.5t-28.5 72.5q0 55 41 82q-16 10 -25 25 q-29 -41 -82 -41q-41 0 -69.5 25.5t-28.5 72.5q0 55 41 82q-16 10 -25 25q-29 -41 -81 -41q-55 0 -82 41q-10 -14 -25 -25q41 -27 41 -82t-41 -82q41 -27 41 -82t-41 -82q41 -27 41 -82q0 -47 -29.5 -72.5t-68.5 -25.5q-55 0 -82 41q-29 -41 -84 -41q-39 0 -67.5 25.5 t-28.5 72.5z" />
<glyph unicode="l" horiz-adv-x="714" d="M96 1247q0 47 29 73t70 26q53 0 81 -41q27 41 82 41q53 0 82 -41q27 41 82 41q39 0 69 -26t30 -73q0 -55 -41 -82q41 -27 41 -82t-41 -82q41 -27 41 -81q0 -55 -41 -82q41 -27 41 -82t-41 -82q41 -27 41 -82t-41 -82q41 -27 41 -82t-41 -82q41 -27 41 -82t-41 -82 q41 -27 41 -82q0 -47 -30 -72.5t-69 -25.5q-55 0 -82 41q-29 -41 -82 -41q-41 0 -69.5 25.5t-28.5 72.5q0 55 41 82q-41 27 -41 82t41 82q-41 27 -41 82t41 82q-41 27 -41 82t41 82q-41 27 -41 82t41 82q-41 27 -41 82t41 81q-41 27 -41 82t41 82q-16 10 -25 25 q-29 -41 -81 -41q-41 0 -70 25.5t-29 72.5z" />
<glyph unicode="m" horiz-adv-x="1517" d="M111 100q0 55 41 82q-41 27 -41 82t41 82q-41 27 -41 82t41 82q-41 27 -41 82t41 82q-41 27 -41 82t41 82q-41 27 -41 82q0 47 28.5 72.5t69.5 25.5q53 0 80 -41q29 41 82 41q55 0 82 -41q29 41 82 41q55 0 81 -41q29 41 82 41q55 0 82 -41q29 41 82 41q55 0 82 -41 q29 41 82 41q55 0 82 -41q29 41 84 41q39 0 67.5 -25.5t28.5 -72.5q0 -55 -41 -82q16 -10 25 -25q29 41 84 41q39 0 67.5 -25.5t28.5 -72.5q0 -55 -41 -82q41 -27 41 -82t-41 -82q41 -27 41 -82t-41 -82q41 -27 41 -82t-41 -82q41 -27 41 -82q0 -47 -28.5 -72.5t-69.5 -25.5 q-53 0 -82 41q-27 -41 -82 -41q-39 0 -67.5 25.5t-28.5 72.5q0 55 41 82q-41 27 -41 82t41 82q-41 27 -41 82t41 82q-41 27 -41 82t41 82q-41 27 -41 82t41 82q-16 10 -27 24q-27 -41 -82 -41q-53 0 -82 41q-8 -14 -24 -24q41 -27 41 -82t-41 -82q41 -27 41 -82t-41 -82 q41 -27 41 -82t-41 -82q41 -27 41 -82t-41 -82q41 -27 41 -82q0 -47 -29 -72.5t-70 -25.5q-53 0 -82 41q-27 -41 -82 -41q-39 0 -67.5 25.5t-28.5 72.5q0 55 41 82q-41 27 -41 82t41 82q-41 27 -41 82t41 82q-41 27 -41 82t41 82q-41 27 -41 82t41 82q-16 10 -27 24 q-27 -41 -81 -41q-53 0 -82 41q-8 -14 -25 -24q41 -27 41 -82t-41 -82q41 -27 41 -82t-41 -82q41 -27 41 -82t-41 -82q41 -27 41 -82t-41 -82q41 -27 41 -82q0 -47 -28.5 -72.5t-69.5 -25.5q-53 0 -82 41q-27 -41 -82 -41q-39 0 -67.5 25.5t-28.5 72.5z" />
<glyph unicode="n" horiz-adv-x="1353" d="M111 100q0 55 41 82q-41 27 -41 82t41 82q-41 27 -41 82t41 82q-41 27 -41 82t41 82q-41 27 -41 82t41 82q-41 27 -41 82q0 47 28.5 72.5t69.5 25.5q53 0 80 -41q29 41 82 41q55 0 82 -41q29 41 82 41q55 0 81 -41q29 41 82 41q55 0 82 -41q29 41 82 41q55 0 82 -41 q29 41 84 41q39 0 67.5 -25.5t28.5 -72.5q0 -55 -41 -82q16 -10 25 -25q29 41 84 41q39 0 67.5 -25.5t28.5 -72.5q0 -55 -41 -82q41 -27 41 -82t-41 -82q41 -27 41 -82t-41 -82q41 -27 41 -82t-41 -82q41 -27 41 -82q0 -47 -28.5 -72.5t-69.5 -25.5q-53 0 -82 41 q-27 -41 -82 -41q-39 0 -67.5 25.5t-28.5 72.5q0 55 41 82q-41 27 -41 82t41 82q-41 27 -41 82t41 82q-41 27 -41 82t41 82q-41 27 -41 82t41 82q-16 10 -27 24q-27 -41 -82 -41q-53 0 -82 41q-27 -41 -82 -41q-53 0 -82 41q-27 -41 -81 -41q-53 0 -82 41q-8 -14 -25 -24 q41 -27 41 -82t-41 -82q41 -27 41 -82t-41 -82q41 -27 41 -82t-41 -82q41 -27 41 -82t-41 -82q41 -27 41 -82q0 -47 -28.5 -72.5t-69.5 -25.5q-53 0 -82 41q-27 -41 -82 -41q-39 0 -67.5 25.5t-28.5 72.5z" />
<glyph unicode="o" horiz-adv-x="1343" d="M100 264q0 55 41 82q-41 27 -41 82t41 82q-41 27 -41 82t41 82q-41 27 -41 82q0 47 29 72.5t70 25.5q53 0 82 -41q10 14 24 25q-41 27 -41 82q0 47 29 72.5t69 25.5q53 0 82 -41q27 41 82 41q53 0 82 -41q27 41 82 41q53 0 82 -41q27 41 82 41q53 0 82 -41q27 41 82 41 q39 0 68.5 -25.5t29.5 -72.5q0 -55 -41 -82q14 -10 25 -25q27 41 82 41q39 0 68.5 -25.5t29.5 -72.5q0 -55 -41 -82q41 -27 41 -82t-41 -82q41 -27 41 -82t-41 -82q41 -27 41 -82q0 -47 -29.5 -72.5t-68.5 -25.5q-55 0 -82 41q-10 -14 -25 -25q41 -27 41 -82 q0 -47 -29.5 -72.5t-68.5 -25.5q-55 0 -82 41q-29 -41 -82 -41q-55 0 -82 41q-29 -41 -82 -41q-55 0 -82 41q-29 -41 -82 -41q-55 0 -82 41q-29 -41 -82 -41q-41 0 -69.5 25.5t-28.5 72.5q0 55 41 82q-14 10 -24 25q-29 -41 -82 -41q-41 0 -70 25.5t-29 72.5zM420 182 q14 -10 24 -24q27 41 82 41q53 0 82 -41q27 41 82 41q53 0 82 -41q27 41 82 41q53 0 82 -41q10 14 25 24q-41 27 -41 82t41 82q-41 27 -41 82t41 82q-41 27 -41 82t41 82q-41 27 -41 82t41 82q-14 10 -25 24q-29 -41 -82 -41q-55 0 -82 41q-29 -41 -82 -41q-55 0 -82 41 q-29 -41 -82 -41q-55 0 -82 41q-10 -14 -24 -24q41 -27 41 -82t-41 -82q41 -27 41 -82t-41 -82q41 -27 41 -82t-41 -82q41 -27 41 -82t-41 -82z" />
<glyph unicode="p" horiz-adv-x="1335" d="M92 -63q0 55 41 81q-41 27 -41 82q0 47 29 73t69 26q53 0 82 -41q27 41 82 41q53 0 82 -41q27 41 82 41q53 0 82 -41q27 41 82 41q53 0 82 -41q27 41 82 41q53 0 82 -41q10 14 24 24q-41 27 -41 82t41 82q-41 27 -41 82t41 82q-41 27 -41 82t41 82q-41 27 -41 82t41 82 q-14 10 -24 24q-29 -41 -82 -41q-55 0 -82 41q-29 -41 -82 -41q-55 0 -82 41q-29 -41 -82 -41q-55 0 -82 41q-10 -14 -24 -24q41 -27 41 -82t-41 -82q41 -27 41 -82t-41 -82q41 -27 41 -82q0 -47 -30 -72.5t-69 -25.5q-55 0 -82 41q-29 -41 -82 -41q-41 0 -69.5 25.5 t-28.5 72.5q0 55 41 82q-41 27 -41 82t41 82q-41 27 -41 82t41 82q-41 27 -41 82q0 47 29 72.5t69 25.5q53 0 82 -41q27 41 82 41q53 0 82 -41q27 41 82 41q53 0 82 -41q27 41 82 41q53 0 82 -41q27 41 82 41q53 0 82 -41q27 41 82 41q39 0 68.5 -25.5t29.5 -72.5 q0 -55 -41 -82q14 -10 25 -25q27 41 82 41q39 0 68.5 -25.5t29.5 -72.5q0 -55 -41 -82q41 -27 41 -82t-41 -82q41 -27 41 -82t-41 -82q41 -27 41 -82q0 -47 -30 -72.5t-68 -25.5q-55 0 -82 41q-10 -14 -25 -25q41 -27 41 -82q0 -47 -29.5 -72.5t-68.5 -25.5q-55 0 -82 41 q-29 -41 -82 -41q-55 0 -82 41q-29 -41 -82 -41q-55 0 -82 41q-29 -41 -82 -41q-55 0 -82 41q-10 -14 -24 -25q41 -27 41 -81q0 -55 -41 -82q41 -27 41 -82q0 -47 -30 -73t-69 -26q-55 0 -82 41q-29 -41 -82 -41q-41 0 -69.5 26t-28.5 73q0 55 41 82q-41 27 -41 82z" />
<glyph unicode="q" horiz-adv-x="1341" d="M78 264q0 55 41 82q-41 27 -41 82t41 82q-41 27 -41 82t41 82q-41 27 -41 82q0 47 29.5 72.5t68.5 25.5q55 0 82 -41q10 14 25 25q-41 27 -41 82q0 47 29.5 72.5t68.5 25.5q55 0 82 -41q29 41 82 41q55 0 82 -41q29 41 82 41q55 0 82 -41q29 41 81 41q55 0 82 -41 q29 41 82 41q55 0 82 -41q29 41 82 41q41 0 69.5 -25.5t28.5 -72.5q0 -55 -40 -82q40 -26 40 -79q0 -58 -40 -85q40 -26 40 -79q0 -58 -40 -85q40 -26 40 -79q0 -50 -29.5 -75.5t-68.5 -25.5q-53 0 -82 41q-27 -41 -82 -41q-39 0 -68.5 25.5t-29.5 72.5q0 55 41 82 q-41 27 -41 82t41 82q-41 27 -41 82t41 82q-14 10 -25 24q-27 -41 -82 -41q-53 0 -81 41q-27 -41 -82 -41q-53 0 -82 41q-27 -41 -82 -41q-53 0 -82 41q-10 -14 -25 -24q41 -27 41 -82t-41 -82q41 -27 41 -82t-41 -82q41 -27 41 -82t-41 -82q41 -27 41 -82t-41 -82 q14 -10 25 -24q29 41 82 41q55 0 82 -41q29 41 82 41q55 0 82 -41q29 41 81 41q55 0 82 -41q29 41 82 41q55 0 82 -41q29 41 82 41q41 0 69.5 -26t28.5 -73q0 -55 -40 -82q41 -27 40 -81q0 -55 -40 -82q40 -26 40 -79q0 -50 -29.5 -76t-68.5 -26q-53 0 -82 41 q-27 -41 -82 -41q-39 0 -68.5 26t-29.5 73q0 55 41 82q-41 27 -41 82t41 81q-14 10 -25 25q-27 -41 -82 -41q-53 0 -81 41q-27 -41 -82 -41q-53 0 -82 41q-27 -41 -82 -41q-53 0 -82 41q-27 -41 -82 -41q-39 0 -68.5 25.5t-29.5 72.5q0 55 41 82q-14 10 -25 25 q-27 -41 -82 -41q-39 0 -68.5 25.5t-29.5 72.5z" />
<glyph unicode="r" horiz-adv-x="1251" d="M49 100q0 55 41 82q-41 27 -41 82t41 82q-41 27 -41 82t41 82q-41 27 -41 82t41 82q-41 27 -41 82t41 82q-41 27 -41 82q0 47 28.5 72.5t69.5 25.5q53 0 82 -41q27 41 82 41q53 0 82 -41q27 41 82 41q53 0 82 -41q27 41 82 41q53 0 82 -41q27 41 82 41q53 0 82 -41 q27 41 82 41q39 0 68.5 -25.5t29.5 -72.5q0 -55 -41 -82q14 -10 25 -25q27 41 81 41q39 0 69 -25.5t30 -72.5t-30 -73t-69 -26q-55 0 -81 41q-29 -41 -82 -41q-41 0 -70 26t-29 73q0 55 41 82q-14 10 -24 24q-29 -41 -82 -41q-55 0 -82 41q-29 -41 -82 -41q-55 0 -82 41 q-29 -41 -82 -41q-55 0 -82 41q-10 -14 -24 -24q41 -27 41 -82t-41 -82q41 -27 41 -82t-41 -82q41 -27 41 -82t-41 -82q41 -27 41 -82t-41 -82q41 -27 41 -82q0 -47 -30 -72.5t-69 -25.5q-55 0 -82 41q-29 -41 -82 -41q-41 0 -69.5 25.5t-28.5 72.5z" />
<glyph unicode="s" horiz-adv-x="1323" d="M59 100q0 47 29 73t70 26q53 0 82 -41q27 41 82 41q53 0 81 -41q27 41 82 41q53 0 82 -41q27 41 82 41q53 0 82 -41q27 41 82 41q53 0 82 -41q10 14 25 24q-41 27 -41 82t41 82q-41 27 -41 82t41 82q-14 10 -25 25q-29 -41 -82 -41q-55 0 -82 41q-29 -41 -82 -41 q-55 0 -82 41q-29 -41 -82 -41q-55 0 -82 41q-29 -41 -81 -41q-41 0 -70 25.5t-29 72.5q0 55 41 82q-14 10 -24 24q-29 -41 -82 -41q-41 0 -70 26t-29 73t29 72.5t70 25.5q53 0 82 -41q10 14 24 25q-41 27 -41 82q0 47 29 72.5t70 25.5q53 0 81 -41q27 41 82 41q53 0 82 -41 q27 41 82 41q53 0 82 -41q27 41 82 41q53 0 82 -41q27 41 82 41q53 0 82 -41q27 41 82 41q39 0 68.5 -25.5t29.5 -72.5t-29.5 -73t-68.5 -26q-55 0 -82 41q-29 -41 -82 -41q-55 0 -82 41q-29 -41 -82 -41q-55 0 -82 41q-29 -41 -82 -41q-55 0 -82 41q-29 -41 -82 -41 q-55 0 -82 41q-10 -14 -24 -24q41 -27 41 -82t-41 -82q14 -10 24 -25q27 41 82 41q53 0 82 -41q27 41 82 41q53 0 82 -41q27 41 82 41q53 0 82 -41q27 41 82 41q39 0 68.5 -25.5t29.5 -72.5q0 -55 -41 -82q14 -10 25 -25q27 41 82 41q39 0 68.5 -25.5t29.5 -72.5 q0 -55 -41 -82q41 -27 41 -82q0 -47 -29.5 -72.5t-68.5 -25.5q-55 0 -82 41q-10 -14 -25 -25q41 -27 41 -82q0 -47 -29.5 -72.5t-68.5 -25.5q-55 0 -82 41q-29 -41 -82 -41q-55 0 -82 41q-29 -41 -82 -41q-55 0 -82 41q-29 -41 -82 -41q-55 0 -82 41q-29 -41 -81 -41 q-55 0 -82 41q-29 -41 -82 -41q-41 0 -70 25.5t-29 72.5z" />
<glyph unicode="t" horiz-adv-x="1273" d="M31 920q0 47 28.5 72.5t69.5 25.5q53 0 82 -41q10 14 25 24q-41 27 -41 82t41 82q-41 27 -41 82q0 47 29.5 73t68.5 26q53 0 82 -41q27 41 82 41q39 0 68.5 -26t29.5 -73q0 -55 -41 -82q41 -27 41 -82t-41 -82q14 -10 25 -24q27 41 82 41q53 0 81 -41q27 41 82 41 q39 0 69 -25.5t30 -72.5t-30 -73t-69 -26q-55 0 -82 41q-29 -41 -81 -41q-55 0 -82 41q-10 -14 -25 -24q41 -27 41 -82t-41 -82q41 -27 41 -82t-41 -82q41 -27 41 -82t-41 -82q41 -27 41 -82t-41 -82q14 -10 25 -24q27 41 82 41q53 0 81 -41q27 41 82 41q53 0 82 -41 q27 41 82 41q53 0 82 -41q27 41 82 41q39 0 68.5 -26t29.5 -73t-29.5 -72.5t-68.5 -25.5q-55 0 -82 41q-29 -41 -82 -41q-55 0 -82 41q-29 -41 -82 -41q-55 0 -82 41q-29 -41 -81 -41q-55 0 -82 41q-29 -41 -82 -41q-41 0 -70 25.5t-29 72.5q0 55 41 82q-14 10 -24 25 q-29 -41 -82 -41q-41 0 -69.5 25.5t-28.5 72.5q0 55 41 82q-41 27 -41 82t41 82q-41 27 -41 82t41 82q-41 27 -41 82t41 82q-14 10 -25 24q-29 -41 -82 -41q-41 0 -69.5 25.5t-28.5 73.5z" />
<glyph unicode="u" horiz-adv-x="1372" d="M109 264q0 55 41 82q-41 27 -41 82t41 82q-41 27 -41 82t41 82q-41 27 -41 82t41 82q-41 27 -41 82q0 47 32 73q27 25 68 25q53 0 80 -41q29 41 82 41q41 0 69.5 -25.5t28.5 -72.5q0 -55 -41 -82q41 -27 41 -82t-41 -82q41 -27 41 -82t-41 -82q41 -27 41 -82t-41 -82 q41 -27 41 -82t-41 -82q16 -10 25 -24q29 41 82 41q55 0 81 -41q29 41 82 41q55 0 82 -41q29 41 82 41q55 0 82 -41q10 14 25 24q-41 27 -41 82t41 82q-41 27 -41 82t41 82q-41 27 -41 82t41 82q-41 27 -41 82t41 82q-41 27 -41 82q0 47 33 73q27 25 67 25q53 0 80 -41 q29 41 82 41q41 0 69.5 -25.5t28.5 -72.5q0 -55 -41 -82q41 -27 41 -82t-41 -82q41 -27 41 -82t-41 -82q41 -27 41 -82t-41 -82q41 -27 41 -82t-41 -82q41 -27 41 -82q0 -47 -28.5 -72.5t-69.5 -25.5q-53 0 -82 41q-27 -41 -82 -41q-53 0 -82 41q-27 -41 -82 -41 q-53 0 -82 41q-27 -41 -82 -41q-53 0 -82 41q-27 -41 -81 -41q-53 0 -82 41q-27 -41 -82 -41q-39 0 -69 25.5t-30 72.5q0 55 41 82q-14 10 -24 25q-27 -41 -82 -41q-39 0 -68.5 25.5t-29.5 72.5z" />
<glyph unicode="v" horiz-adv-x="1339" d="M76 592q0 55 41 82q-41 27 -41 82t41 82q-41 27 -41 82q0 47 28.5 72.5t69.5 25.5q53 0 82 -41q27 41 82 41q39 0 68.5 -25.5t29.5 -72.5q0 -55 -41 -82q41 -27 41 -82t-41 -82q41 -27 41 -82t-41 -82q14 -10 25 -25q27 41 82 41q39 0 68.5 -25.5t29.5 -72.5 q0 -55 -41 -82q14 -10 25 -24q26 40 79 40h3q53 0 82 -40q8 14 24 24q-41 27 -41 82q0 47 28.5 72.5t69.5 25.5q53 0 82 -41q8 14 25 25q-41 27 -41 82t41 82q-41 27 -41 82t41 82q-41 27 -41 82q0 47 28.5 72.5t69.5 25.5q53 0 82 -41q27 41 82 41q39 0 68.5 -25.5 t29.5 -72.5q0 -55 -41 -82q41 -27 41 -82t-41 -82q41 -27 41 -82q0 -47 -29.5 -72.5t-70.5 -25.5q-53 0 -80 41q-10 -14 -24 -25q41 -27 41 -82q0 -47 -30 -72.5t-71 -25.5q-53 0 -80 41q-10 -14 -24 -25q41 -27 41 -82q0 -47 -30 -72.5t-69 -25.5q-55 0 -81 41 q-10 -14 -25 -25q41 -27 41 -82q0 -47 -29.5 -72.5t-68.5 -25.5q-41 0 -70 25.5t-29 72.5q0 55 41 82q-16 10 -24 25q-29 -41 -82 -41q-41 0 -70 25.5t-29 72.5q0 55 41 82q-16 10 -24 25q-29 -41 -82 -41q-41 0 -69.5 25.5t-28.5 72.5q0 55 41 82q-16 10 -25 25 q-29 -41 -82 -41q-41 0 -69.5 25.5t-28.5 72.5z" />
<glyph unicode="w" horiz-adv-x="1536" d="M109 264q0 55 41 82q-41 27 -41 82t41 82q-41 27 -41 82t41 82q-41 27 -41 82t41 82q-41 27 -41 82q0 47 29.5 72.5t68.5 25.5q55 0 82 -41q29 41 82 41q41 0 69.5 -25.5t28.5 -72.5q0 -55 -41 -82q41 -27 41 -82t-41 -82q41 -27 41 -82t-41 -82q41 -27 41 -82t-41 -82 q41 -27 41 -82t-41 -82q16 -10 25 -24q29 41 82 41q55 0 81 -41q10 14 25 24q-41 27 -41 82t41 82q-41 27 -41 82t41 82q-41 27 -41 82t41 82q-41 27 -41 82t41 82q-41 27 -41 82q0 47 29.5 72.5t68.5 25.5q55 0 82 -41q29 41 82 41q41 0 70 -25.5t29 -72.5q0 -55 -41 -82 q41 -27 41 -82t-41 -82q41 -27 41 -82t-41 -82q41 -27 41 -82t-41 -82q41 -27 41 -82t-41 -82q16 -10 24 -24q29 41 82 41q55 0 82 -41q10 14 25 24q-41 27 -41 82t41 82q-41 27 -41 82t41 82q-41 27 -41 82t41 82q-41 27 -41 82t41 82q-41 27 -41 82q0 47 29.5 72.5 t68.5 25.5q55 0 82 -41q29 41 82 41q41 0 69.5 -25.5t28.5 -72.5q0 -55 -41 -82q41 -27 41 -82t-41 -82q41 -27 41 -82t-41 -82q41 -27 41 -82t-41 -82q41 -27 41 -82t-41 -82q41 -27 41 -82q0 -47 -28.5 -72.5t-69.5 -25.5q-53 0 -82 41q-27 -41 -82 -41q-53 0 -82 41 q-27 -41 -82 -41q-53 0 -82 41q-27 -41 -82 -41q-53 0 -82 41q-27 -41 -82 -41q-53 0 -82 41q-27 -41 -81 -41q-53 0 -82 41q-27 -41 -82 -41q-39 0 -69 25.5t-30 72.5q0 55 41 82q-14 10 -24 25q-27 -41 -82 -41q-39 0 -68.5 25.5t-29.5 72.5z" />
<glyph unicode="x" horiz-adv-x="1341" d="M80 100q0 47 28.5 73t69.5 26q53 0 82 -41q8 14 25 24q-41 27 -41 82q0 47 28.5 72.5t69.5 25.5q53 0 82 -40q8 14 25 24q-41 27 -41 82t41 82q-41 27 -41 82t41 82q-16 10 -25 24q-29 -41 -84 -41q-39 0 -67.5 26t-28.5 73q0 55 41 82q-16 10 -25 24q-29 -41 -84 -41 q-39 0 -67.5 25.5t-28.5 73.5q0 47 28.5 72.5t69.5 25.5q53 0 82 -41q27 41 82 41q39 0 67.5 -25.5t28.5 -72.5q0 -55 -41 -82q16 -10 27 -25q27 41 82 41q39 0 67.5 -25.5t28.5 -72.5q0 -55 -41 -82q16 -10 27 -25q27 41 82 41q53 0 82 -41q8 14 24 25q-41 27 -41 82 q0 47 29 72.5t70 25.5q53 0 81 -41q8 14 25 25q-41 27 -41 82q0 47 28.5 72.5t69.5 25.5q53 0 82 -41q27 41 82 41q39 0 67.5 -25.5t28.5 -72.5t-28.5 -73t-69.5 -26q-53 0 -80 41q-10 -14 -26 -24q41 -27 41 -82q0 -47 -29 -73t-70 -26q-53 0 -80 41q-10 -14 -26 -24 q41 -27 41 -82t-41 -82q41 -27 41 -82t-41 -82q16 -10 26 -24q26 40 79 40h3q39 0 68 -25.5t29 -72.5q0 -55 -41 -82q16 -10 26 -24q27 41 82 41q39 0 67.5 -26t28.5 -73t-28.5 -72.5t-69.5 -25.5q-53 0 -80 41q-29 -41 -84 -41q-39 0 -67.5 25.5t-28.5 72.5q0 55 41 82 q-16 10 -25 25q-29 -41 -84 -41q-39 0 -67.5 25.5t-28.5 72.5q0 55 41 82q-16 10 -24 25q-29 -41 -82 -41q-55 0 -82 41q-10 -14 -27 -25q41 -27 41 -82q0 -47 -28.5 -72.5t-69.5 -25.5q-53 0 -80 41q-10 -14 -27 -25q41 -27 41 -82q0 -47 -28.5 -72.5t-69.5 -25.5 q-53 0 -80 41q-29 -41 -84 -41q-39 0 -67.5 25.5t-28.5 72.5z" />
<glyph unicode="y" horiz-adv-x="1361" d="M98 -227q0 47 29 72.5t70 25.5q53 0 82 -41q27 41 81 41q53 0 82 -41q27 41 82 41q53 0 82 -41q27 41 82 41q53 0 82 -41q27 41 82 41q53 0 82 -41q10 14 24 25q-40 26 -40 79q0 58 40 84q-14 10 -24 25q-29 -41 -82 -41q-55 0 -82 41q-29 -41 -82 -41q-55 0 -82 41 q-29 -41 -82 -41q-55 0 -82 41q-29 -41 -82 -41q-41 0 -69.5 25.5t-28.5 72.5q0 55 41 82q-14 10 -24 25q-29 -41 -82 -41q-41 0 -70 25.5t-29 72.5q0 55 41 82q-41 27 -41 82t41 82q-41 27 -41 82t41 82q-41 27 -41 82t41 82q-41 27 -41 82q0 47 30 72.5t69 25.5 q53 0 82 -41q27 41 81 41q39 0 69 -25.5t30 -72.5q0 -55 -41 -82q41 -27 41 -82t-41 -82q41 -27 41 -82t-41 -82q41 -27 41 -82t-41 -82q41 -27 41 -82t-41 -82q14 -10 24 -24q27 41 82 41q53 0 82 -41q27 41 82 41q53 0 82 -41q27 41 82 41q53 0 82 -41q10 14 24 24 q-40 26 -40 79q0 58 40 85q-40 26 -40 79q0 58 40 85q-40 26 -40 79q0 58 40 85q-40 26 -40 79q0 58 40 85q-40 26 -40 79q0 50 29.5 75.5t68.5 25.5q53 0 82 -41q27 41 82 41q39 0 68.5 -25.5t29.5 -72.5q0 -55 -41 -82q41 -27 41 -82t-41 -82q41 -27 41 -82t-41 -82 q41 -27 41 -82t-41 -82q41 -27 41 -82t-41 -82q41 -27 41 -82t-41 -82q41 -27 41 -81q0 -47 -29.5 -73t-68.5 -26q-55 0 -82 41q-10 -14 -25 -24q41 -27 41 -82q0 -47 -29.5 -73t-68.5 -26q-55 0 -82 41q-29 -41 -82 -41q-55 0 -82 41q-29 -41 -82 -41q-55 0 -82 41 q-29 -41 -82 -41q-55 0 -82 41q-29 -41 -82 -41q-54 0 -81 41q-29 -41 -82 -41q-41 0 -70 26t-29 73z" />
<glyph unicode="z" horiz-adv-x="1318" d="M55 100q0 47 30 73t69 26q53 0 82 -41q10 14 24 24q-41 27 -41 82q0 47 30 72.5t68 25.5q55 0 82 -40q10 14 25 24q-41 27 -41 82q0 47 29.5 72.5t68.5 25.5q55 0 82 -41q10 14 25 25q-41 27 -41 82q0 47 29.5 72.5t68.5 25.5q55 0 82 -41q10 14 25 25q-41 27 -41 82 t41 82q-14 10 -25 24q-29 -41 -82 -41q-55 0 -82 41q-29 -41 -82 -41q-55 0 -82 41q-29 -41 -82 -41q-55 0 -81 41q-29 -41 -82 -41q-41 0 -70 25.5t-29 73.5q0 47 30 72.5t69 25.5q53 0 82 -41q27 41 81 41q53 0 82 -41q29 41 82 41q55 0 82 -41q27 41 82 41q53 0 82 -41 q29 41 82 41q55 0 82 -41q27 41 82 41q53 0 82 -41q27 41 82 41q39 0 68.5 -25.5t29.5 -72.5t-29.5 -73t-68.5 -26q-55 0 -82 41q-10 -14 -25 -24q41 -27 41 -82q0 -47 -29.5 -73t-68.5 -26q-55 0 -82 41q-10 -14 -25 -24q41 -27 41 -82q0 -47 -29.5 -72.5t-68.5 -25.5 q-55 0 -82 41q-10 -14 -25 -25q41 -27 41 -82q0 -47 -29.5 -72.5t-68.5 -25.5q-55 0 -82 41q-10 -14 -24 -25q41 -27 41 -82t-41 -82q14 -10 24 -24q27 41 82 41q53 0 82 -41q29 41 82 41q55 0 82 -41q27 41 82 41q53 0 82 -41q27 41 82 41q39 0 68.5 -26t29.5 -73 t-29.5 -72.5t-68.5 -25.5q-55 0 -82 41q-29 -41 -82 -41q-55 0 -82 41q-29 -41 -82 -41q-55 0 -82 41q-29 -41 -82 -41q-55 0 -82 41q-29 -41 -82 -41q-55 0 -82 41q-29 -41 -82 -41q-54 0 -81 41q-29 -41 -82 -41q-41 0 -70 25.5t-29 72.5z" />
<glyph unicode="|" horiz-adv-x="460" d="M113 -63q0 55 41 81q-41 27 -41 82t41 82q-41 27 -41 82t41 82q-41 27 -41 82t41 82q-41 27 -41 82t41 82q-41 27 -41 82t41 82q-41 27 -41 82t41 81q-41 27 -41 82t41 82q-41 27 -41 82q0 47 28.5 73t69.5 26q39 0 68.5 -26t29.5 -73q0 -55 -41 -82q41 -27 41 -82 t-41 -82q41 -27 41 -81q0 -55 -41 -82q41 -27 41 -82t-41 -82q41 -27 41 -82t-41 -82q41 -27 41 -82t-41 -82q41 -27 41 -82t-41 -82q41 -27 41 -82t-41 -82q41 -26 41 -81q0 -47 -29.5 -73t-68.5 -26q-41 0 -69.5 25.5t-28.5 73.5z" />
<glyph unicode="~" horiz-adv-x="1142" d="M96 1083q0 47 29 73t70 26q39 0 67.5 -26t28.5 -73t-29 -72.5t-67 -25.5q-41 0 -70 25.5t-29 72.5zM260 1247q0 47 28.5 73t69.5 26q53 0 82 -41q27 41 82 41q39 0 67.5 -26t28.5 -73t-28.5 -72.5t-69.5 -25.5q-53 0 -80 41q-29 -43 -84 -41q-96 0 -96 98zM588 1083 q0 47 28.5 73t69.5 26q53 0 82 -41q27 41 82 41q39 0 67.5 -26t28.5 -73t-28.5 -72.5t-69.5 -25.5q-53 0 -80 41q-29 -43 -84 -41q-96 0 -96 98zM915 1247q0 47 29 73t70 26q39 0 67.5 -26t28.5 -73t-28.5 -72.5t-67.5 -25.5q-41 0 -70 25.5t-29 72.5z" />
<glyph unicode="&#xad;" d="M147 756q0 47 30 72.5t69 25.5q53 0 82 -41q29 41 82 41t82 -41q29 41 81 41q53 0 82 -41q29 41 82 41q39 0 69 -25.5t30 -72.5t-30 -73t-69 -26q-53 0 -82 41q-29 -41 -82 -41t-81 41q-29 -41 -82 -41t-82 41q-29 -41 -82 -41q-39 0 -69 26t-30 73z" />
<glyph unicode="&#x2000;" horiz-adv-x="682" />
<glyph unicode="&#x2001;" horiz-adv-x="1365" />
<glyph unicode="&#x2002;" horiz-adv-x="682" />
<glyph unicode="&#x2003;" horiz-adv-x="1365" />
<glyph unicode="&#x2004;" horiz-adv-x="455" />
<glyph unicode="&#x2005;" horiz-adv-x="341" />
<glyph unicode="&#x2006;" horiz-adv-x="227" />
<glyph unicode="&#x2007;" horiz-adv-x="227" />
<glyph unicode="&#x2008;" horiz-adv-x="170" />
<glyph unicode="&#x2009;" horiz-adv-x="273" />
<glyph unicode="&#x200a;" horiz-adv-x="75" />
<glyph unicode="&#x2010;" d="M147 756q0 47 30 72.5t69 25.5q53 0 82 -41q29 41 82 41t82 -41q29 41 81 41q53 0 82 -41q29 41 82 41q39 0 69 -25.5t30 -72.5t-30 -73t-69 -26q-53 0 -82 41q-29 -41 -82 -41t-81 41q-29 -41 -82 -41t-82 41q-29 -41 -82 -41q-39 0 -69 26t-30 73z" />
<glyph unicode="&#x2011;" d="M147 756q0 47 30 72.5t69 25.5q53 0 82 -41q29 41 82 41t82 -41q29 41 81 41q53 0 82 -41q29 41 82 41q39 0 69 -25.5t30 -72.5t-30 -73t-69 -26q-53 0 -82 41q-29 -41 -82 -41t-81 41q-29 -41 -82 -41t-82 41q-29 -41 -82 -41q-39 0 -69 26t-30 73z" />
<glyph unicode="&#x2012;" d="M147 756q0 47 30 72.5t69 25.5q53 0 82 -41q29 41 82 41t82 -41q29 41 81 41q53 0 82 -41q29 41 82 41q39 0 69 -25.5t30 -72.5t-30 -73t-69 -26q-53 0 -82 41q-29 -41 -82 -41t-81 41q-29 -41 -82 -41t-82 41q-29 -41 -82 -41q-39 0 -69 26t-30 73z" />
<glyph unicode="&#x2013;" horiz-adv-x="1256" d="M147 756q0 47 44.5 72.5t102.5 25.5q79 0 122 -41q43 41 122 41t122 -41q43 41 120 41q79 0 122 -41q43 41 122 41q58 0 102.5 -25.5t44.5 -72.5t-44.5 -73t-102.5 -26q-79 0 -122 41q-43 -41 -122 -41t-120 41q-43 -41 -122 -41t-122 41q-43 -41 -122 -41 q-58 0 -102.5 26t-44.5 73z" />
<glyph unicode="&#x2014;" horiz-adv-x="2280" d="M147 756q0 47 89 72.5t205 25.5q158 0 244 -41q86 41 244 41q157 0 243 -41q87 41 241 41q158 0 244 -41q86 41 244 41q116 0 205 -25.5t89 -72.5t-89 -73t-205 -26q-158 0 -244 41q-86 -41 -244 -41q-157 0 -241 41q-86 -41 -243 -41q-158 0 -244 41q-86 -41 -244 -41 q-116 0 -205 26t-89 73z" />
<glyph unicode="&#x2018;" horiz-adv-x="561" d="M102 920q0 -47 29 -73t68 -26q41 0 69.5 25.5t28.5 73.5q0 55 -41 81q16 10 25 25q29 -41 81 -41q41 0 70 25.5t29 72.5q0 55 -41 82q41 27 41 82q0 47 -30 73t-71 26q-51 0 -79 -41q-27 41 -82 41q-39 0 -68 -26t-29 -73q0 -55 39 -82q-39 -27 -39 -82t39 -82 q-39 -26 -39 -81zM266 756q0 -47 29 -73t67 -26q41 0 70 26t29 73t-29 72.5t-70 25.5q-39 0 -67.5 -25.5t-28.5 -72.5z" />
<glyph unicode="&#x2019;" horiz-adv-x="561" d="M104 756q0 47 29 72.5t70 25.5q39 0 68.5 -25.5t29.5 -72.5t-29.5 -73t-68.5 -26q-41 0 -70 26t-29 73zM104 1083q0 55 41 82q-41 27 -41 82q0 47 30 73t71 26q53 0 80 -41q27 41 82 41q39 0 68.5 -26t29.5 -73q0 -55 -41 -82q41 -27 41 -82t-41 -82q41 -26 41 -81 q0 -47 -29.5 -73t-68.5 -26q-41 0 -70 25.5t-29 73.5q0 55 41 81q-14 10 -24 25q-29 -41 -82 -41q-41 0 -70 25.5t-29 72.5z" />
<glyph unicode="&#x201c;" horiz-adv-x="1052" d="M117 920q0 -47 29.5 -73t68.5 -26q41 0 69.5 25.5t28.5 73.5q0 55 -41 81q16 10 25 25q29 -41 82 -41q41 0 69.5 25.5t28.5 72.5q0 55 -41 82q41 27 41 82q0 47 -28.5 73t-69.5 26q-53 0 -82 -41q-27 41 -82 41q-39 0 -68.5 -26t-29.5 -73q0 -55 41 -82q-41 -27 -41 -82 t41 -82q-41 -26 -41 -81zM281 756q0 -47 32 -74q27 -25 68 -25q39 0 67.5 26t28.5 73t-28.5 72.5t-69.5 25.5q-39 0 -68.5 -25.5t-29.5 -72.5zM608 920q0 -47 30 -73t69 -26q41 0 69.5 25.5t28.5 73.5q0 55 -41 81q16 10 24 25q29 -41 82 -41q41 0 70 25.5t29 72.5 q0 55 -41 82q41 27 41 82q0 47 -29 73t-70 26q-53 0 -82 -41q-27 41 -81 41q-39 0 -69 -26t-30 -73q0 -55 41 -82q-41 -27 -41 -82t41 -82q-41 -26 -41 -81zM772 756q0 -47 33 -74q27 -25 67 -25q39 0 68 26t29 73t-29 72.5t-70 25.5q-39 0 -68.5 -25.5t-29.5 -72.5z" />
<glyph unicode="&#x201d;" horiz-adv-x="1052" d="M104 756q0 47 29 72.5t70 25.5q39 0 68.5 -25.5t29.5 -72.5t-29.5 -73t-68.5 -26q-41 0 -70 26t-29 73zM104 1083q0 55 41 82q-41 27 -41 82q0 47 29 73t70 26q53 0 82 -41q27 41 82 41q39 0 68.5 -26t29.5 -73q0 -55 -41 -82q41 -27 41 -82t-41 -82q41 -26 41 -81 q0 -47 -29.5 -73t-68.5 -26q-41 0 -70 25.5t-29 73.5q0 55 41 81q-14 10 -24 25q-29 -41 -82 -41q-41 0 -70 25.5t-29 72.5zM596 756q0 47 28.5 72.5t69.5 25.5q39 0 69 -25.5t30 -72.5t-30 -73t-69 -26q-41 0 -69.5 26t-28.5 73zM596 1083q0 55 41 82q-41 27 -41 82 q0 47 28.5 73t69.5 26q53 0 82 -41q27 41 82 41q39 0 68.5 -26t29.5 -73q0 -55 -41 -82q41 -27 41 -82t-41 -82q41 -26 41 -81q0 -47 -29.5 -73t-68.5 -26q-41 0 -69.5 25.5t-28.5 73.5q0 55 41 81q-14 10 -25 25q-29 -41 -82 -41q-41 0 -69.5 25.5t-28.5 72.5z" />
<glyph unicode="&#x2026;" horiz-adv-x="1570" d="M111 100q0 55 41 82q-41 27 -41 82q0 47 30.5 72.5t69.5 25.5q53 0 80 -40q29 41 82 40q41 0 69.5 -25.5t28.5 -72.5q0 -55 -41 -82q41 -27 41 -82q0 -47 -29.5 -73.5t-70.5 -24.5q-51 0 -80 41q-27 -41 -82 -41q-39 0 -68.5 25.5t-29.5 72.5zM602 100q0 55 41 82 q-41 27 -41 82q0 47 31 72.5t69 25.5q53 0 80 -40q29 41 82 40q41 0 70 -25.5t29 -72.5q0 -55 -41 -82q41 -27 41 -82q0 -47 -30 -73.5t-71 -24.5q-51 0 -80 41q-27 -41 -82 -41q-39 0 -68.5 25.5t-29.5 72.5zM1094 100q0 55 41 82q-41 27 -41 82q0 47 30.5 72.5t69.5 25.5 q53 0 80 -40q29 41 82 40q41 0 69.5 -25.5t28.5 -72.5q0 -55 -41 -82q41 -27 41 -82q0 -47 -29.5 -73.5t-70.5 -24.5q-51 0 -80 41q-27 -41 -82 -41q-39 0 -68.5 25.5t-29.5 72.5z" />
<glyph unicode="&#x202f;" horiz-adv-x="273" />
<glyph unicode="&#x205f;" horiz-adv-x="341" />
<glyph unicode="&#x25fc;" horiz-adv-x="1013" d="M0 0v1014h1014v-1014h-1014z" />
</font>
</defs>
</svg>
