<?xml version="1.0" standalone="no"?>
<!DOCTYPE svg PUBLIC "-//W3C//DTD SVG 1.1//EN" "http://www.w3.org/Graphics/SVG/1.1/DTD/svg11.dtd" >
<svg xmlns="http://www.w3.org/2000/svg">
<metadata></metadata>
<defs>
<font id="6px2busregular" horiz-adv-x="1365" >
<font-face units-per-em="2048" ascent="1707" descent="-341" />
<missing-glyph horiz-adv-x="500" />
<glyph horiz-adv-x="0" />
<glyph unicode="&#xd;" />
<glyph unicode=" " />
<glyph unicode="!" horiz-adv-x="682" d="M0 0v341h341v-341h-341zM0 683v1024h341v-1024h-341z" />
<glyph unicode="&#x22;" d="M0 1024v683h341v-683h-341zM683 1024v683h341v-683h-341z" />
<glyph unicode="#" horiz-adv-x="2048" d="M0 341v342h341v341h-341v341h341v342h342v-342h341v342h341v-342h342v-341h-342v-341h342v-342h-342v-341h-341v341h-341v-341h-342v341h-341zM683 683h341v341h-341v-341z" />
<glyph unicode="%" horiz-adv-x="2048" d="M0 1024v683h683v-683h341v683h341v-683h-341v-341h683v-683h-683v683h-341v-683h-342v683h342v341h-683z" />
<glyph unicode="&#x26;" d="M0 683v341h341v341h342v-341h341v-341h-341v-342h-342v342h-341z" />
<glyph unicode="'" horiz-adv-x="682" d="M0 1024v683h341v-683h-341z" />
<glyph unicode="(" horiz-adv-x="1024" d="M0 341v1024h341v342h342v-342h-342v-1024h342v-341h-342v341h-341z" />
<glyph unicode=")" horiz-adv-x="1024" d="M0 0v341h341v1024h-341v342h341v-342h342v-1024h-342v-341h-341z" />
<glyph unicode="*" horiz-adv-x="2048" d="M0 0v341h341v-341h-341zM0 683v341h683v683h341v-683h683v-341h-683v-683h-341v683h-683zM0 1365v342h341v-342h-341zM1365 0v341h342v-341h-342zM1365 1365v342h342v-342h-342z" />
<glyph unicode="+" d="M0 683v341h341v341h342v-341h341v-341h-341v-342h-342v342h-341z" />
<glyph unicode="," horiz-adv-x="682" d="M0 341h341v-682h-341v682z" />
<glyph unicode="-" d="M0 683v341h1024v-341h-1024z" />
<glyph unicode="." horiz-adv-x="682" d="M0 0v341h341v-341h-341z" />
<glyph unicode="/" d="M0 0v683h341v341h342v683h341v-683h-341v-341h-342v-683h-341z" />
<glyph unicode="0" d="M0 0v1707h1024v-1707h-1024zM341 341h342v1024h-342v-1024z" />
<glyph unicode="1" d="M0 0v341h341v1024h-341v342h683v-1366h341v-341h-1024z" />
<glyph unicode="2" d="M0 0v1024h683v341h-683v342h1024v-1024h-683v-342h683v-341h-1024z" />
<glyph unicode="3" d="M0 0v341h683v342h-683v341h683v341h-683v342h1024v-1707h-1024z" />
<glyph unicode="4" d="M0 683v1024h341v-683h342v683h341v-1707h-341v683h-683z" />
<glyph unicode="5" d="M0 0v341h683v342h-683v1024h1024v-342h-683v-341h683v-1024h-1024z" />
<glyph unicode="6" d="M0 0v1707h1024v-342h-683v-341h683v-1024h-1024zM341 341h342v342h-342v-342z" />
<glyph unicode="7" d="M0 1365v342h1024v-1707h-341v1365h-683z" />
<glyph unicode="8" d="M0 0v1707h1024v-1707h-1024zM341 341h342v342h-342v-342zM341 1024h342v341h-342v-341z" />
<glyph unicode="9" d="M0 0v341h683v342h-683v1024h1024v-1707h-1024zM341 1024h342v341h-342v-341z" />
<glyph unicode=":" horiz-adv-x="682" d="M0 341v342h341v-342h-341zM0 1024v341h341v-341h-341z" />
<glyph unicode=";" horiz-adv-x="682" d="M0 0v683h341v-683h-341zM0 1024v341h341v-341h-341z" />
<glyph unicode="&#x3c;" d="M0 683v341h341v341h342v342h341v-342h-341v-341h-342v-341h342v-342h341v-341h-341v341h-342v342h-341z" />
<glyph unicode="=" d="M0 341v342h1024v-342h-1024zM0 1024v341h1024v-341h-1024z" />
<glyph unicode="&#x3e;" d="M0 0v341h341v342h342v341h-342v341h-341v342h341v-342h342v-341h341v-341h-341v-342h-342v-341h-341z" />
<glyph unicode="?" d="M0 1365v342h1024v-1024h-683v341h342v341h-683zM341 0v341h342v-341h-342z" />
<glyph unicode="@" horiz-adv-x="2048" d="M0 0v1707h1707v-1707h-1024v1024h682v341h-1024v-1365h-341zM1024 341h341v342h-341v-342z" />
<glyph unicode="A" d="M0 0v1707h1024v-1707h-341v683h-342v-683h-341zM341 1024h342v341h-342v-341z" />
<glyph unicode="B" d="M0 0v1707h1024v-683h-341v-341h341v-683h-1024zM341 341h342v342h-342v-342zM341 1024h342v341h-342v-341z" />
<glyph unicode="C" d="M0 0v1707h1024v-342h-683v-1024h683v-341h-1024z" />
<glyph unicode="D" d="M0 0v1707h683v-342h341v-1024h-341v-341h-683zM341 341h342v1024h-342v-1024z" />
<glyph unicode="E" d="M0 0v1707h1024v-342h-683v-341h683v-341h-683v-342h683v-341h-1024z" />
<glyph unicode="F" d="M0 0v1707h1024v-342h-683v-341h683v-341h-683v-683h-341z" />
<glyph unicode="G" d="M0 0v1707h1024v-342h-683v-1024h342v683h341v-1024h-1024z" />
<glyph unicode="H" d="M0 0v1707h341v-683h342v683h341v-1707h-341v683h-342v-683h-341z" />
<glyph unicode="I" horiz-adv-x="682" d="M0 0v1707h341v-1707h-341z" />
<glyph unicode="J" d="M0 0v683h341v-342h342v1366h341v-1707h-1024z" />
<glyph unicode="K" d="M0 0v1707h341v-683h342v683h341v-683h-341v-341h341v-683h-341v683h-342v-683h-341z" />
<glyph unicode="L" d="M0 0v1707h341v-1366h683v-341h-1024z" />
<glyph unicode="M" horiz-adv-x="2048" d="M0 0v1707h341v-342h342v-341h341v341h341v342h342v-1707h-342v1024h-341v-683h-341v683h-342v-1024h-341z" />
<glyph unicode="N" horiz-adv-x="1706" d="M0 0v1707h341v-342h342v-341h341v683h341v-1707h-341v683h-341v341h-342v-1024h-341z" />
<glyph unicode="O" d="M0 0v1707h1024v-1707h-1024zM341 341h342v1024h-342v-1024z" />
<glyph unicode="P" d="M0 0v1707h1024v-1024h-683v-683h-341zM341 1024h342v341h-342v-341z" />
<glyph unicode="Q" d="M0 0v1707h1024v-1707h-341v-341h-342v341h-341zM341 341h342v1024h-342v-1024z" />
<glyph unicode="R" d="M0 0v1707h1024v-683h-341v-341h341v-683h-341v683h-342v-683h-341zM341 1024h342v341h-342v-341z" />
<glyph unicode="S" d="M0 0v341h683v342h-683v1024h1024v-342h-683v-341h683v-1024h-1024z" />
<glyph unicode="T" d="M0 1365v342h1024v-342h-341v-1365h-342v1365h-341z" />
<glyph unicode="U" d="M0 0v1707h341v-1366h342v1366h341v-1707h-1024z" />
<glyph unicode="V" d="M0 341v1366h341v-1366h342v1366h341v-1366h-341v-341h-342v341h-341z" />
<glyph unicode="W" horiz-adv-x="2048" d="M0 683v1024h341v-1024h342v1024h341v-1024h341v1024h342v-1024h-342v-683h-341v683h-341v-683h-342v683h-341z" />
<glyph unicode="X" d="M0 0v683h341v341h-341v683h341v-683h342v683h341v-683h-341v-341h341v-683h-341v683h-342v-683h-341z" />
<glyph unicode="Y" d="M0 1024v683h341v-683h342v683h341v-683h-341v-1024h-342v1024h-341z" />
<glyph unicode="Z" d="M0 0v683h341v341h342v341h-683v342h1024v-683h-341v-341h-342v-342h683v-341h-1024z" />
<glyph unicode="[" horiz-adv-x="1024" d="M0 0v1707h683v-342h-342v-1024h342v-341h-683z" />
<glyph unicode="]" horiz-adv-x="1024" d="M0 0v341h341v1024h-341v342h683v-1707h-683z" />
<glyph unicode="^" d="M0 1024v341h341v342h342v-342h341v-341h-341v341h-342v-341h-341z" />
<glyph unicode="_" d="M0 0v341h1024v-341h-1024z" />
<glyph unicode="a" d="M0 0v1707h1024v-1707h-341v683h-342v-683h-341zM341 1024h342v341h-342v-341z" />
<glyph unicode="b" d="M0 0v1707h1024v-683h-341v-341h341v-683h-1024zM341 341h342v342h-342v-342zM341 1024h342v341h-342v-341z" />
<glyph unicode="c" d="M0 0v1707h1024v-342h-683v-1024h683v-341h-1024z" />
<glyph unicode="d" d="M0 0v1707h683v-342h341v-1024h-341v-341h-683zM341 341h342v1024h-342v-1024z" />
<glyph unicode="e" d="M0 0v1707h1024v-342h-683v-341h683v-341h-683v-342h683v-341h-1024z" />
<glyph unicode="f" d="M0 0v1707h1024v-342h-683v-341h683v-341h-683v-683h-341z" />
<glyph unicode="g" d="M0 0v1707h1024v-342h-683v-1024h342v683h341v-1024h-1024z" />
<glyph unicode="h" d="M0 0v1707h341v-683h342v683h341v-1707h-341v683h-342v-683h-341z" />
<glyph unicode="i" horiz-adv-x="682" d="M0 0v1707h341v-1707h-341z" />
<glyph unicode="j" d="M0 0v683h341v-342h342v1366h341v-1707h-1024z" />
<glyph unicode="k" d="M0 0v1707h341v-683h342v683h341v-683h-341v-341h341v-683h-341v683h-342v-683h-341z" />
<glyph unicode="l" d="M0 0v1707h341v-1366h683v-341h-1024z" />
<glyph unicode="m" horiz-adv-x="2048" d="M0 0v1707h341v-342h342v-341h341v341h341v342h342v-1707h-342v1024h-341v-683h-341v683h-342v-1024h-341z" />
<glyph unicode="n" horiz-adv-x="1706" d="M0 0v1707h341v-342h342v-341h341v683h341v-1707h-341v683h-341v341h-342v-1024h-341z" />
<glyph unicode="o" d="M0 0v1707h1024v-1707h-1024zM341 341h342v1024h-342v-1024z" />
<glyph unicode="p" d="M0 0v1707h1024v-1024h-683v-683h-341zM341 1024h342v341h-342v-341z" />
<glyph unicode="q" d="M0 0v1707h1024v-1707h-341v-341h-342v341h-341zM341 341h342v1024h-342v-1024z" />
<glyph unicode="r" d="M0 0v1707h1024v-683h-341v-341h341v-683h-341v683h-342v-683h-341zM341 1024h342v341h-342v-341z" />
<glyph unicode="s" d="M0 0v341h683v342h-683v1024h1024v-342h-683v-341h683v-1024h-1024z" />
<glyph unicode="t" d="M0 1365v342h1024v-342h-341v-1365h-342v1365h-341z" />
<glyph unicode="u" d="M0 0v1707h341v-1366h342v1366h341v-1707h-1024z" />
<glyph unicode="v" d="M0 341v1366h341v-1366h342v1366h341v-1366h-341v-341h-342v341h-341z" />
<glyph unicode="w" horiz-adv-x="2048" d="M0 683v1024h341v-1024h342v1024h341v-1024h341v1024h342v-1024h-342v-683h-341v683h-341v-683h-342v683h-341z" />
<glyph unicode="x" d="M0 0v683h341v341h-341v683h341v-683h342v683h341v-683h-341v-341h341v-683h-341v683h-342v-683h-341z" />
<glyph unicode="y" d="M0 1024v683h341v-683h342v683h341v-683h-341v-1024h-342v1024h-341z" />
<glyph unicode="z" d="M0 0v683h341v341h342v341h-683v342h1024v-683h-341v-341h-342v-342h683v-341h-1024z" />
<glyph unicode="{" d="M0 683v341h341v683h683v-342h-341v-341h-342v-341h342v-342h341v-341h-683v683h-341z" />
<glyph unicode="|" horiz-adv-x="682" d="M0 0v1707h341v-1707h-341z" />
<glyph unicode="}" d="M0 0v341h341v1024h-341v342h683v-683h341v-341h-341v-683h-683z" />
<glyph unicode="~" horiz-adv-x="1706" d="M0 1024v341h341v342h342v-342h341v342h341v-342h-341v-341h-341v341h-342v-341h-341z" />
<glyph unicode="&#xa0;" />
<glyph unicode="&#xad;" d="M0 683v341h1024v-341h-1024z" />
<glyph unicode="&#x2000;" horiz-adv-x="853" />
<glyph unicode="&#x2001;" horiz-adv-x="1707" />
<glyph unicode="&#x2002;" horiz-adv-x="853" />
<glyph unicode="&#x2003;" horiz-adv-x="1707" />
<glyph unicode="&#x2004;" horiz-adv-x="569" />
<glyph unicode="&#x2005;" horiz-adv-x="426" />
<glyph unicode="&#x2006;" horiz-adv-x="284" />
<glyph unicode="&#x2007;" horiz-adv-x="284" />
<glyph unicode="&#x2008;" horiz-adv-x="213" />
<glyph unicode="&#x2009;" horiz-adv-x="341" />
<glyph unicode="&#x200a;" horiz-adv-x="94" />
<glyph unicode="&#x2010;" d="M0 683v341h1024v-341h-1024z" />
<glyph unicode="&#x2011;" d="M0 683v341h1024v-341h-1024z" />
<glyph unicode="&#x2012;" d="M0 683v341h1024v-341h-1024z" />
<glyph unicode="&#x2013;" d="M0 683v341h1024v-341h-1024z" />
<glyph unicode="&#x2014;" horiz-adv-x="2389" d="M0 683v341h2048v-341h-2048z" />
<glyph unicode="&#x202f;" horiz-adv-x="341" />
<glyph unicode="&#x205f;" horiz-adv-x="426" />
<glyph unicode="&#x25fc;" horiz-adv-x="1706" d="M0 0v1707h1707v-1707h-1707z" />
</font>
</defs>
</svg>
